<?xml version="1.0" encoding="UTF-8" standalone="no"?><svg xmlns="http://www.w3.org/2000/svg" xmlns:xlink="http://www.w3.org/1999/xlink" clip-rule="evenodd" stroke-miterlimit="10" viewBox="0 0 1024 768"><desc>SVG generated by Keynote</desc><defs></defs><g transform="matrix(1.00, 0.00, -0.00, -1.00, 0.0, 768.0)"><g><clipPath id="clip0x7fc2e220b010"><path d="M 0.0 768.0 L 1024.0 768.0 L 1024.0 0.0 L 0.0 0.0 Z M 0.0 768.0 "></path></clipPath><g clip-path="url(#clip0x7fc2e220b010)"><image xlink:href="../../CABF5236-1324-4602-9291-A4670FFDE0C7/assets/1783979FC7716684DCC3F94F50982FFC.jpeg" width="2048.00" height="1536.00" transform="matrix(0.50, 0.00, -0.00, -0.50, 0.0, 768.0)"></image></g></g><path d="M 0.0 0.5 L 960.0 0.5 L 960.0 0.5 L 0.0 0.5 Z M 0.0 0.0 " fill="none" stroke="#7995B9" stroke-width="1.00" transform="matrix(1.00, 0.00, 0.00, -1.00, 32.0, 566.0)"></path><path d="M 0.0 0.5 L 960.0 0.5 L 960.0 0.5 L 0.0 0.5 Z M 0.0 0.0 " fill="none" stroke="#7995B9" stroke-width="1.00" transform="matrix(1.00, 0.00, 0.00, -1.00, 32.0, 562.0)"></path><text xml:space="preserve" font-family="Didot,Didot" font-size="64.0" fill="#304863" transform="matrix(1.00, 0.00, -0.00, -1.00, 32.0, 631.7)">H</text><text xml:space="preserve" font-family="Didot,Didot" font-size="64.0" fill="#304863" transform="matrix(1.00, 0.00, -0.00, -1.00, 82.9, 631.7)">o</text><text xml:space="preserve" font-family="Didot,Didot" font-size="64.0" fill="#304863" transform="matrix(1.00, 0.00, -0.00, -1.00, 116.5, 631.7)">w</text><text xml:space="preserve" font-family="Didot,Didot" font-size="64.0" fill="#304863" transform="matrix(1.00, 0.00, -0.00, -1.00, 162.7, 631.7)"> </text><text xml:space="preserve" font-family="Didot,Didot" font-size="64.0" fill="#304863" transform="matrix(1.00, 0.00, -0.00, -1.00, 179.2, 631.7)">c</text><text xml:space="preserve" font-family="Didot,Didot" font-size="64.0" fill="#304863" transform="matrix(1.00, 0.00, -0.00, -1.00, 208.7, 631.7)">a</text><text xml:space="preserve" font-family="Didot,Didot" font-size="64.0" fill="#304863" transform="matrix(1.00, 0.00, -0.00, -1.00, 238.2, 631.7)">n</text><text xml:space="preserve" font-family="Didot,Didot" font-size="64.0" fill="#304863" transform="matrix(1.00, 0.00, -0.00, -1.00, 276.0, 631.7)"> </text><text xml:space="preserve" font-family="Didot,Didot" font-size="64.0" fill="#304863" transform="matrix(1.00, 0.00, -0.00, -1.00, 292.5, 631.7)">t</text><text xml:space="preserve" font-family="Didot,Didot" font-size="64.0" fill="#304863" transform="matrix(1.00, 0.00, -0.00, -1.00, 312.6, 631.7)">h</text><text xml:space="preserve" font-family="Didot,Didot" font-size="64.0" fill="#304863" transform="matrix(1.00, 0.00, -0.00, -1.00, 350.4, 631.7)">i</text><text xml:space="preserve" font-family="Didot,Didot" font-size="64.0" fill="#304863" transform="matrix(1.00, 0.00, -0.00, -1.00, 368.1, 631.7)">s</text><text xml:space="preserve" font-family="Didot,Didot" font-size="64.0" fill="#304863" transform="matrix(1.00, 0.00, -0.00, -1.00, 394.0, 631.7)"> </text><text xml:space="preserve" font-family="Didot,Didot" font-size="64.0" fill="#304863" transform="matrix(1.00, 0.00, -0.00, -1.00, 410.6, 631.7)">t</text><text xml:space="preserve" font-family="Didot,Didot" font-size="64.0" fill="#304863" transform="matrix(1.00, 0.00, -0.00, -1.00, 430.6, 631.7)">o</text><text xml:space="preserve" font-family="Didot,Didot" font-size="64.0" fill="#304863" transform="matrix(1.00, 0.00, -0.00, -1.00, 464.9, 631.7)">o</text><text xml:space="preserve" font-family="Didot,Didot" font-size="64.0" fill="#304863" transform="matrix(1.00, 0.00, -0.00, -1.00, 499.2, 631.7)">l</text><text xml:space="preserve" font-family="Didot,Didot" font-size="64.0" fill="#304863" transform="matrix(1.00, 0.00, -0.00, -1.00, 516.9, 631.7)"> </text><text xml:space="preserve" font-family="Didot,Didot" font-size="64.0" fill="#304863" transform="matrix(1.00, 0.00, -0.00, -1.00, 533.4, 631.7)">h</text><text xml:space="preserve" font-family="Didot,Didot" font-size="64.0" fill="#304863" transform="matrix(1.00, 0.00, -0.00, -1.00, 571.2, 631.7)">e</text><text xml:space="preserve" font-family="Didot,Didot" font-size="64.0" fill="#304863" transform="matrix(1.00, 0.00, -0.00, -1.00, 601.9, 631.7)">l</text><text xml:space="preserve" font-family="Didot,Didot" font-size="64.0" fill="#304863" transform="matrix(1.00, 0.00, -0.00, -1.00, 619.6, 631.7)">p</text><text xml:space="preserve" font-family="Didot,Didot" font-size="64.0" fill="#304863" transform="matrix(1.00, 0.00, -0.00, -1.00, 656.3, 631.7)"> </text><text xml:space="preserve" font-family="Didot,Didot" font-size="64.0" fill="#304863" transform="matrix(1.00, 0.00, -0.00, -1.00, 672.8, 631.7)">m</text><text xml:space="preserve" font-family="Didot,Didot" font-size="64.0" fill="#304863" transform="matrix(1.00, 0.00, -0.00, -1.00, 727.2, 631.7)">e</text><text xml:space="preserve" font-family="Didot,Didot" font-size="64.0" fill="#304863" transform="matrix(1.00, 0.00, -0.00, -1.00, 757.9, 631.7)">?</text><g><clipPath id="clip0x7fc2e21383a0"><path d="M 32.0 498.0 L 486.0 498.0 L 486.0 124.0 L 32.0 124.0 Z M 31.7 497.8 "></path></clipPath><g clip-path="url(#clip0x7fc2e21383a0)"><image xlink:href="../../B4DC66DC-021D-42AB-9159-876C2B317E0C/assets/BCC127A9DFE2FF8600432DFC8E63E610.png" width="1104.00" height="878.00" transform="matrix(0.48, 0.00, -0.00, -0.48, -13.2, 524.7)"></image></g></g><g><clipPath id="clip0x7fc2e2139c50"><path d="M 527.0 498.0 L 977.0 498.0 L 977.0 124.0 L 527.0 124.0 Z M 527.3 497.8 "></path></clipPath><g clip-path="url(#clip0x7fc2e2139c50)"><image xlink:href="../../B4DC66DC-021D-42AB-9159-876C2B317E0C/assets/9A7007E08843B9D49E15DF388971994A.png" width="1118.00" height="896.00" transform="matrix(0.47, 0.00, -0.00, -0.47, 495.0, 513.6)"></image></g></g><text xml:space="preserve" font-family="Palatino-Roman,Palatino" font-size="30.0" fill="#324763" transform="matrix(1.00, 0.00, -0.00, -1.00, 434.7, 524.3)">C</text><text xml:space="preserve" font-family="Palatino-Roman,Palatino" font-size="30.0" fill="#324763" transform="matrix(1.00, 0.00, -0.00, -1.00, 456.0, 524.3)">r</text><text xml:space="preserve" font-family="Palatino-Roman,Palatino" font-size="30.0" fill="#324763" transform="matrix(1.00, 0.00, -0.00, -1.00, 467.8, 524.3)">i</text><text xml:space="preserve" font-family="Palatino-Roman,Palatino" font-size="30.0" fill="#324763" transform="matrix(1.00, 0.00, -0.00, -1.00, 476.5, 524.3)">m</text><text xml:space="preserve" font-family="Palatino-Roman,Palatino" font-size="30.0" fill="#324763" transform="matrix(1.00, 0.00, -0.00, -1.00, 503.0, 524.3)">e</text><text xml:space="preserve" font-family="Palatino-Roman,Palatino" font-size="30.0" fill="#324763" transform="matrix(1.00, 0.00, -0.00, -1.00, 517.4, 524.3)">R</text><text xml:space="preserve" font-family="Palatino-Roman,Palatino" font-size="30.0" fill="#324763" transform="matrix(1.00, 0.00, -0.00, -1.00, 537.4, 524.3)">a</text><text xml:space="preserve" font-family="Palatino-Roman,Palatino" font-size="30.0" fill="#324763" transform="matrix(1.00, 0.00, -0.00, -1.00, 552.4, 524.3)">t</text><text xml:space="preserve" font-family="Palatino-Roman,Palatino" font-size="30.0" fill="#324763" transform="matrix(1.00, 0.00, -0.00, -1.00, 562.2, 524.3)">e</text><text xml:space="preserve" font-family="Palatino-Roman,Palatino" font-size="30.0" fill="#324763" transform="matrix(1.00, 0.00, -0.00, -1.00, 576.6, 524.3)">s</text><text xml:space="preserve" font-family="Palatino-Bold,Palatino" font-weight="bold" font-size="30.0" fill="#324763" transform="matrix(1.00, 0.00, -0.00, -1.00, 201.5, 142.3)">J</text><text xml:space="preserve" font-family="Palatino-Bold,Palatino" font-weight="bold" font-size="30.0" fill="#324763" transform="matrix(1.00, 0.00, -0.00, -1.00, 213.1, 142.3)">u</text><text xml:space="preserve" font-family="Palatino-Bold,Palatino" font-weight="bold" font-size="30.0" fill="#324763" transform="matrix(1.00, 0.00, -0.00, -1.00, 231.5, 142.3)">n</text><text xml:space="preserve" font-family="Palatino-Bold,Palatino" font-weight="bold" font-size="30.0" fill="#324763" transform="matrix(1.00, 0.00, -0.00, -1.00, 249.8, 142.3)"> </text><text xml:space="preserve" font-family="Palatino-Bold,Palatino" font-weight="bold" font-size="30.0" fill="#324763" transform="matrix(1.00, 0.00, -0.00, -1.00, 257.3, 142.3)">2</text><text xml:space="preserve" font-family="Palatino-Bold,Palatino" font-weight="bold" font-size="30.0" fill="#324763" transform="matrix(1.00, 0.00, -0.00, -1.00, 272.3, 142.3)">0</text><text xml:space="preserve" font-family="Palatino-Bold,Palatino" font-weight="bold" font-size="30.0" fill="#324763" transform="matrix(1.00, 0.00, -0.00, -1.00, 287.3, 142.3)">1</text><text xml:space="preserve" font-family="Palatino-Bold,Palatino" font-weight="bold" font-size="30.0" fill="#324763" transform="matrix(1.00, 0.00, -0.00, -1.00, 301.2, 142.3)">1</text><text xml:space="preserve" font-family="Palatino-Bold,Palatino" font-weight="bold" font-size="30.0" fill="#324763" transform="matrix(1.00, 0.00, -0.00, -1.00, 694.0, 142.3)">J</text><text xml:space="preserve" font-family="Palatino-Bold,Palatino" font-weight="bold" font-size="30.0" fill="#324763" transform="matrix(1.00, 0.00, -0.00, -1.00, 705.7, 142.3)">u</text><text xml:space="preserve" font-family="Palatino-Bold,Palatino" font-weight="bold" font-size="30.0" fill="#324763" transform="matrix(1.00, 0.00, -0.00, -1.00, 724.0, 142.3)">n</text><text xml:space="preserve" font-family="Palatino-Bold,Palatino" font-weight="bold" font-size="30.0" fill="#324763" transform="matrix(1.00, 0.00, -0.00, -1.00, 742.3, 142.3)"> </text><text xml:space="preserve" font-family="Palatino-Bold,Palatino" font-weight="bold" font-size="30.0" fill="#324763" transform="matrix(1.00, 0.00, -0.00, -1.00, 749.8, 142.3)">2</text><text xml:space="preserve" font-family="Palatino-Bold,Palatino" font-weight="bold" font-size="30.0" fill="#324763" transform="matrix(1.00, 0.00, -0.00, -1.00, 764.8, 142.3)">0</text><text xml:space="preserve" font-family="Palatino-Bold,Palatino" font-weight="bold" font-size="30.0" fill="#324763" transform="matrix(1.00, 0.00, -0.00, -1.00, 779.8, 142.3)">1</text><text xml:space="preserve" font-family="Palatino-Bold,Palatino" font-weight="bold" font-size="30.0" fill="#324763" transform="matrix(1.00, 0.00, -0.00, -1.00, 794.8, 142.3)">3</text><image xlink:href="../../B4DC66DC-021D-42AB-9159-876C2B317E0C/assets/F8C58031549371951A18BFCB0A8E0BE1.png" width="81.00" height="81.00" transform="matrix(1.00, 0.00, -0.00, -1.00, 774.8, 328.5)" opacity="0.50"></image><path d="M 56.3 9.7 C 69.1 22.5 69.1 43.4 56.3 56.3 C 43.4 69.1 22.5 69.1 9.7 56.3 C -3.2 43.4 -3.2 22.5 9.7 9.7 C 22.5 -3.2 43.4 -3.2 56.3 9.7 Z M 56.3 9.7 " fill="none" stroke="#000000" stroke-width="5.00" transform="matrix(1.00, 0.00, 0.00, -1.00, 779.0, 325.0)"></path><image xlink:href="../../B4DC66DC-021D-42AB-9159-876C2B317E0C/assets/F8C58031549371951A18BFCB0A8E0BE1.png" width="81.00" height="81.00" transform="matrix(1.00, 0.00, -0.00, -1.00, 284.8, 320.4)" opacity="0.50"></image><path d="M 56.3 9.7 C 69.1 22.5 69.1 43.4 56.3 56.3 C 43.4 69.1 22.5 69.1 9.7 56.3 C -3.2 43.4 -3.2 22.5 9.7 9.7 C 22.5 -3.2 43.4 -3.2 56.3 9.7 Z M 56.3 9.7 " fill="none" stroke="#000000" stroke-width="5.00" transform="matrix(1.00, 0.00, 0.00, -1.00, 289.0, 317.0)"></path><text xml:space="preserve" font-family="Palatino-Bold,Palatino" font-weight="bold" font-size="36.0" fill="#324763" transform="matrix(1.00, 0.00, -0.00, -1.00, 111.6, 45.0)">C</text><text xml:space="preserve" font-family="Palatino-Bold,Palatino" font-weight="bold" font-size="36.0" fill="#324763" transform="matrix(1.00, 0.00, -0.00, -1.00, 137.6, 45.0)">a</text><text xml:space="preserve" font-family="Palatino-Bold,Palatino" font-weight="bold" font-size="36.0" fill="#324763" transform="matrix(1.00, 0.00, -0.00, -1.00, 155.6, 45.0)">n</text><text xml:space="preserve" font-family="Palatino-Bold,Palatino" font-weight="bold" font-size="36.0" fill="#324763" transform="matrix(1.00, 0.00, -0.00, -1.00, 177.6, 45.0)"> </text><text xml:space="preserve" font-family="Palatino-Bold,Palatino" font-weight="bold" font-size="36.0" fill="#324763" transform="matrix(1.00, 0.00, -0.00, -1.00, 186.6, 45.0)">w</text><text xml:space="preserve" font-family="Palatino-Bold,Palatino" font-weight="bold" font-size="36.0" fill="#324763" transform="matrix(1.00, 0.00, -0.00, -1.00, 216.6, 45.0)">e</text><text xml:space="preserve" font-family="Palatino-Bold,Palatino" font-weight="bold" font-size="36.0" fill="#324763" transform="matrix(1.00, 0.00, -0.00, -1.00, 234.6, 45.0)"> </text><text xml:space="preserve" font-family="Palatino-Bold,Palatino" font-weight="bold" font-size="36.0" fill="#324763" transform="matrix(1.00, 0.00, -0.00, -1.00, 243.6, 45.0)">e</text><text xml:space="preserve" font-family="Palatino-Bold,Palatino" font-weight="bold" font-size="36.0" fill="#324763" transform="matrix(1.00, 0.00, -0.00, -1.00, 261.6, 45.0)">x</text><text xml:space="preserve" font-family="Palatino-Bold,Palatino" font-weight="bold" font-size="36.0" fill="#324763" transform="matrix(1.00, 0.00, -0.00, -1.00, 279.6, 45.0)">p</text><text xml:space="preserve" font-family="Palatino-Bold,Palatino" font-weight="bold" font-size="36.0" fill="#324763" transform="matrix(1.00, 0.00, -0.00, -1.00, 301.6, 45.0)">e</text><text xml:space="preserve" font-family="Palatino-Bold,Palatino" font-weight="bold" font-size="36.0" fill="#324763" transform="matrix(1.00, 0.00, -0.00, -1.00, 319.6, 45.0)">c</text><text xml:space="preserve" font-family="Palatino-Bold,Palatino" font-weight="bold" font-size="36.0" fill="#324763" transform="matrix(1.00, 0.00, -0.00, -1.00, 335.5, 45.0)">t</text><text xml:space="preserve" font-family="Palatino-Bold,Palatino" font-weight="bold" font-size="36.0" fill="#324763" transform="matrix(1.00, 0.00, -0.00, -1.00, 347.5, 45.0)"> </text><text xml:space="preserve" font-family="Palatino-Bold,Palatino" font-weight="bold" font-size="36.0" fill="#324763" transform="matrix(1.00, 0.00, -0.00, -1.00, 356.5, 45.0)">a</text><text xml:space="preserve" font-family="Palatino-Bold,Palatino" font-weight="bold" font-size="36.0" fill="#324763" transform="matrix(1.00, 0.00, -0.00, -1.00, 374.5, 45.0)"> </text><text xml:space="preserve" font-family="Palatino-Bold,Palatino" font-weight="bold" font-size="36.0" fill="#324763" transform="matrix(1.00, 0.00, -0.00, -1.00, 383.5, 45.0)">c</text><text xml:space="preserve" font-family="Palatino-Bold,Palatino" font-weight="bold" font-size="36.0" fill="#324763" transform="matrix(1.00, 0.00, -0.00, -1.00, 399.5, 45.0)">o</text><text xml:space="preserve" font-family="Palatino-Bold,Palatino" font-weight="bold" font-size="36.0" fill="#324763" transform="matrix(1.00, 0.00, -0.00, -1.00, 419.5, 45.0)">r</text><text xml:space="preserve" font-family="Palatino-Bold,Palatino" font-weight="bold" font-size="36.0" fill="#324763" transform="matrix(1.00, 0.00, -0.00, -1.00, 433.5, 45.0)">r</text><text xml:space="preserve" font-family="Palatino-Bold,Palatino" font-weight="bold" font-size="36.0" fill="#324763" transform="matrix(1.00, 0.00, -0.00, -1.00, 447.5, 45.0)">e</text><text xml:space="preserve" font-family="Palatino-Bold,Palatino" font-weight="bold" font-size="36.0" fill="#324763" transform="matrix(1.00, 0.00, -0.00, -1.00, 465.5, 45.0)">s</text><text xml:space="preserve" font-family="Palatino-Bold,Palatino" font-weight="bold" font-size="36.0" fill="#324763" transform="matrix(1.00, 0.00, -0.00, -1.00, 481.5, 45.0)">p</text><text xml:space="preserve" font-family="Palatino-Bold,Palatino" font-weight="bold" font-size="36.0" fill="#324763" transform="matrix(1.00, 0.00, -0.00, -1.00, 503.5, 45.0)">o</text><text xml:space="preserve" font-family="Palatino-Bold,Palatino" font-weight="bold" font-size="36.0" fill="#324763" transform="matrix(1.00, 0.00, -0.00, -1.00, 523.5, 45.0)">n</text><text xml:space="preserve" font-family="Palatino-Bold,Palatino" font-weight="bold" font-size="36.0" fill="#324763" transform="matrix(1.00, 0.00, -0.00, -1.00, 545.5, 45.0)">d</text><text xml:space="preserve" font-family="Palatino-Bold,Palatino" font-weight="bold" font-size="36.0" fill="#324763" transform="matrix(1.00, 0.00, -0.00, -1.00, 567.5, 45.0)">i</text><text xml:space="preserve" font-family="Palatino-Bold,Palatino" font-weight="bold" font-size="36.0" fill="#324763" transform="matrix(1.00, 0.00, -0.00, -1.00, 579.5, 45.0)">n</text><text xml:space="preserve" font-family="Palatino-Bold,Palatino" font-weight="bold" font-size="36.0" fill="#324763" transform="matrix(1.00, 0.00, -0.00, -1.00, 601.5, 45.0)">g</text><text xml:space="preserve" font-family="Palatino-Bold,Palatino" font-weight="bold" font-size="36.0" fill="#324763" transform="matrix(1.00, 0.00, -0.00, -1.00, 621.5, 45.0)"> </text><text xml:space="preserve" font-family="Palatino-Bold,Palatino" font-weight="bold" font-size="36.0" fill="#324763" transform="matrix(1.00, 0.00, -0.00, -1.00, 630.5, 45.0)">c</text><text xml:space="preserve" font-family="Palatino-Bold,Palatino" font-weight="bold" font-size="36.0" fill="#324763" transform="matrix(1.00, 0.00, -0.00, -1.00, 646.5, 45.0)">h</text><text xml:space="preserve" font-family="Palatino-Bold,Palatino" font-weight="bold" font-size="36.0" fill="#324763" transform="matrix(1.00, 0.00, -0.00, -1.00, 668.5, 45.0)">a</text><text xml:space="preserve" font-family="Palatino-Bold,Palatino" font-weight="bold" font-size="36.0" fill="#324763" transform="matrix(1.00, 0.00, -0.00, -1.00, 686.5, 45.0)">n</text><text xml:space="preserve" font-family="Palatino-Bold,Palatino" font-weight="bold" font-size="36.0" fill="#324763" transform="matrix(1.00, 0.00, -0.00, -1.00, 708.4, 45.0)">g</text><text xml:space="preserve" font-family="Palatino-Bold,Palatino" font-weight="bold" font-size="36.0" fill="#324763" transform="matrix(1.00, 0.00, -0.00, -1.00, 728.5, 45.0)">e</text><text xml:space="preserve" font-family="Palatino-Bold,Palatino" font-weight="bold" font-size="36.0" fill="#324763" transform="matrix(1.00, 0.00, -0.00, -1.00, 746.5, 45.0)"> </text><text xml:space="preserve" font-family="Palatino-Bold,Palatino" font-weight="bold" font-size="36.0" fill="#324763" transform="matrix(1.00, 0.00, -0.00, -1.00, 755.5, 45.0)">i</text><text xml:space="preserve" font-family="Palatino-Bold,Palatino" font-weight="bold" font-size="36.0" fill="#324763" transform="matrix(1.00, 0.00, -0.00, -1.00, 767.5, 45.0)">n</text><text xml:space="preserve" font-family="Palatino-Bold,Palatino" font-weight="bold" font-size="36.0" fill="#324763" transform="matrix(1.00, 0.00, -0.00, -1.00, 789.4, 45.0)"> </text><text xml:space="preserve" font-family="Palatino-Bold,Palatino" font-weight="bold" font-size="36.0" fill="#324763" transform="matrix(1.00, 0.00, -0.00, -1.00, 798.4, 45.0)">p</text><text xml:space="preserve" font-family="Palatino-Bold,Palatino" font-weight="bold" font-size="36.0" fill="#324763" transform="matrix(1.00, 0.00, -0.00, -1.00, 820.4, 45.0)">r</text><text xml:space="preserve" font-family="Palatino-Bold,Palatino" font-weight="bold" font-size="36.0" fill="#324763" transform="matrix(1.00, 0.00, -0.00, -1.00, 834.4, 45.0)">i</text><text xml:space="preserve" font-family="Palatino-Bold,Palatino" font-weight="bold" font-size="36.0" fill="#324763" transform="matrix(1.00, 0.00, -0.00, -1.00, 846.4, 45.0)">c</text><text xml:space="preserve" font-family="Palatino-Bold,Palatino" font-weight="bold" font-size="36.0" fill="#324763" transform="matrix(1.00, 0.00, -0.00, -1.00, 862.4, 45.0)">e</text><text xml:space="preserve" font-family="Palatino-Bold,Palatino" font-weight="bold" font-size="36.0" fill="#324763" transform="matrix(1.00, 0.00, -0.00, -1.00, 880.4, 45.0)">?</text><text xml:space="preserve" font-family="Palatino-Bold,Palatino" font-weight="bold" font-size="36.0" fill="#324763" transform="matrix(1.00, 0.00, -0.00, -1.00, 896.4, 45.0)">?</text></g></svg>