<?xml version="1.0" encoding="UTF-8" standalone="no"?><svg xmlns="http://www.w3.org/2000/svg" xmlns:xlink="http://www.w3.org/1999/xlink" clip-rule="evenodd" stroke-miterlimit="10" viewBox="0 0 802 39"><desc>SVG generated by Keynote</desc><defs></defs><g transform="matrix(1.00, 0.00, -0.00, -1.00, 0.0, 39.0)"><text xml:space="preserve" font-family="Palatino-Bold,Palatino" font-weight="bold" font-size="36.0" fill="#324763" transform="matrix(1.00, 0.00, -0.00, -1.00, -0.4, 11.0)">C</text><text xml:space="preserve" font-family="Palatino-Bold,Palatino" font-weight="bold" font-size="36.0" fill="#324763" transform="matrix(1.00, 0.00, -0.00, -1.00, 25.6, 11.0)">a</text><text xml:space="preserve" font-family="Palatino-Bold,Palatino" font-weight="bold" font-size="36.0" fill="#324763" transform="matrix(1.00, 0.00, -0.00, -1.00, 43.6, 11.0)">n</text><text xml:space="preserve" font-family="Palatino-Bold,Palatino" font-weight="bold" font-size="36.0" fill="#324763" transform="matrix(1.00, 0.00, -0.00, -1.00, 65.6, 11.0)"> </text><text xml:space="preserve" font-family="Palatino-Bold,Palatino" font-weight="bold" font-size="36.0" fill="#324763" transform="matrix(1.00, 0.00, -0.00, -1.00, 74.6, 11.0)">w</text><text xml:space="preserve" font-family="Palatino-Bold,Palatino" font-weight="bold" font-size="36.0" fill="#324763" transform="matrix(1.00, 0.00, -0.00, -1.00, 104.6, 11.0)">e</text><text xml:space="preserve" font-family="Palatino-Bold,Palatino" font-weight="bold" font-size="36.0" fill="#324763" transform="matrix(1.00, 0.00, -0.00, -1.00, 122.6, 11.0)"> </text><text xml:space="preserve" font-family="Palatino-Bold,Palatino" font-weight="bold" font-size="36.0" fill="#324763" transform="matrix(1.00, 0.00, -0.00, -1.00, 131.6, 11.0)">e</text><text xml:space="preserve" font-family="Palatino-Bold,Palatino" font-weight="bold" font-size="36.0" fill="#324763" transform="matrix(1.00, 0.00, -0.00, -1.00, 149.6, 11.0)">x</text><text xml:space="preserve" font-family="Palatino-Bold,Palatino" font-weight="bold" font-size="36.0" fill="#324763" transform="matrix(1.00, 0.00, -0.00, -1.00, 167.6, 11.0)">p</text><text xml:space="preserve" font-family="Palatino-Bold,Palatino" font-weight="bold" font-size="36.0" fill="#324763" transform="matrix(1.00, 0.00, -0.00, -1.00, 189.6, 11.0)">e</text><text xml:space="preserve" font-family="Palatino-Bold,Palatino" font-weight="bold" font-size="36.0" fill="#324763" transform="matrix(1.00, 0.00, -0.00, -1.00, 207.6, 11.0)">c</text><text xml:space="preserve" font-family="Palatino-Bold,Palatino" font-weight="bold" font-size="36.0" fill="#324763" transform="matrix(1.00, 0.00, -0.00, -1.00, 223.5, 11.0)">t</text><text xml:space="preserve" font-family="Palatino-Bold,Palatino" font-weight="bold" font-size="36.0" fill="#324763" transform="matrix(1.00, 0.00, -0.00, -1.00, 235.5, 11.0)"> </text><text xml:space="preserve" font-family="Palatino-Bold,Palatino" font-weight="bold" font-size="36.0" fill="#324763" transform="matrix(1.00, 0.00, -0.00, -1.00, 244.5, 11.0)">a</text><text xml:space="preserve" font-family="Palatino-Bold,Palatino" font-weight="bold" font-size="36.0" fill="#324763" transform="matrix(1.00, 0.00, -0.00, -1.00, 262.5, 11.0)"> </text><text xml:space="preserve" font-family="Palatino-Bold,Palatino" font-weight="bold" font-size="36.0" fill="#324763" transform="matrix(1.00, 0.00, -0.00, -1.00, 271.5, 11.0)">c</text><text xml:space="preserve" font-family="Palatino-Bold,Palatino" font-weight="bold" font-size="36.0" fill="#324763" transform="matrix(1.00, 0.00, -0.00, -1.00, 287.5, 11.0)">o</text><text xml:space="preserve" font-family="Palatino-Bold,Palatino" font-weight="bold" font-size="36.0" fill="#324763" transform="matrix(1.00, 0.00, -0.00, -1.00, 307.5, 11.0)">r</text><text xml:space="preserve" font-family="Palatino-Bold,Palatino" font-weight="bold" font-size="36.0" fill="#324763" transform="matrix(1.00, 0.00, -0.00, -1.00, 321.5, 11.0)">r</text><text xml:space="preserve" font-family="Palatino-Bold,Palatino" font-weight="bold" font-size="36.0" fill="#324763" transform="matrix(1.00, 0.00, -0.00, -1.00, 335.5, 11.0)">e</text><text xml:space="preserve" font-family="Palatino-Bold,Palatino" font-weight="bold" font-size="36.0" fill="#324763" transform="matrix(1.00, 0.00, -0.00, -1.00, 353.5, 11.0)">s</text><text xml:space="preserve" font-family="Palatino-Bold,Palatino" font-weight="bold" font-size="36.0" fill="#324763" transform="matrix(1.00, 0.00, -0.00, -1.00, 369.5, 11.0)">p</text><text xml:space="preserve" font-family="Palatino-Bold,Palatino" font-weight="bold" font-size="36.0" fill="#324763" transform="matrix(1.00, 0.00, -0.00, -1.00, 391.5, 11.0)">o</text><text xml:space="preserve" font-family="Palatino-Bold,Palatino" font-weight="bold" font-size="36.0" fill="#324763" transform="matrix(1.00, 0.00, -0.00, -1.00, 411.5, 11.0)">n</text><text xml:space="preserve" font-family="Palatino-Bold,Palatino" font-weight="bold" font-size="36.0" fill="#324763" transform="matrix(1.00, 0.00, -0.00, -1.00, 433.5, 11.0)">d</text><text xml:space="preserve" font-family="Palatino-Bold,Palatino" font-weight="bold" font-size="36.0" fill="#324763" transform="matrix(1.00, 0.00, -0.00, -1.00, 455.5, 11.0)">i</text><text xml:space="preserve" font-family="Palatino-Bold,Palatino" font-weight="bold" font-size="36.0" fill="#324763" transform="matrix(1.00, 0.00, -0.00, -1.00, 467.5, 11.0)">n</text><text xml:space="preserve" font-family="Palatino-Bold,Palatino" font-weight="bold" font-size="36.0" fill="#324763" transform="matrix(1.00, 0.00, -0.00, -1.00, 489.5, 11.0)">g</text><text xml:space="preserve" font-family="Palatino-Bold,Palatino" font-weight="bold" font-size="36.0" fill="#324763" transform="matrix(1.00, 0.00, -0.00, -1.00, 509.5, 11.0)"> </text><text xml:space="preserve" font-family="Palatino-Bold,Palatino" font-weight="bold" font-size="36.0" fill="#324763" transform="matrix(1.00, 0.00, -0.00, -1.00, 518.5, 11.0)">c</text><text xml:space="preserve" font-family="Palatino-Bold,Palatino" font-weight="bold" font-size="36.0" fill="#324763" transform="matrix(1.00, 0.00, -0.00, -1.00, 534.5, 11.0)">h</text><text xml:space="preserve" font-family="Palatino-Bold,Palatino" font-weight="bold" font-size="36.0" fill="#324763" transform="matrix(1.00, 0.00, -0.00, -1.00, 556.5, 11.0)">a</text><text xml:space="preserve" font-family="Palatino-Bold,Palatino" font-weight="bold" font-size="36.0" fill="#324763" transform="matrix(1.00, 0.00, -0.00, -1.00, 574.5, 11.0)">n</text><text xml:space="preserve" font-family="Palatino-Bold,Palatino" font-weight="bold" font-size="36.0" fill="#324763" transform="matrix(1.00, 0.00, -0.00, -1.00, 596.4, 11.0)">g</text><text xml:space="preserve" font-family="Palatino-Bold,Palatino" font-weight="bold" font-size="36.0" fill="#324763" transform="matrix(1.00, 0.00, -0.00, -1.00, 616.5, 11.0)">e</text><text xml:space="preserve" font-family="Palatino-Bold,Palatino" font-weight="bold" font-size="36.0" fill="#324763" transform="matrix(1.00, 0.00, -0.00, -1.00, 634.5, 11.0)"> </text><text xml:space="preserve" font-family="Palatino-Bold,Palatino" font-weight="bold" font-size="36.0" fill="#324763" transform="matrix(1.00, 0.00, -0.00, -1.00, 643.5, 11.0)">i</text><text xml:space="preserve" font-family="Palatino-Bold,Palatino" font-weight="bold" font-size="36.0" fill="#324763" transform="matrix(1.00, 0.00, -0.00, -1.00, 655.5, 11.0)">n</text><text xml:space="preserve" font-family="Palatino-Bold,Palatino" font-weight="bold" font-size="36.0" fill="#324763" transform="matrix(1.00, 0.00, -0.00, -1.00, 677.4, 11.0)"> </text><text xml:space="preserve" font-family="Palatino-Bold,Palatino" font-weight="bold" font-size="36.0" fill="#324763" transform="matrix(1.00, 0.00, -0.00, -1.00, 686.4, 11.0)">p</text><text xml:space="preserve" font-family="Palatino-Bold,Palatino" font-weight="bold" font-size="36.0" fill="#324763" transform="matrix(1.00, 0.00, -0.00, -1.00, 708.4, 11.0)">r</text><text xml:space="preserve" font-family="Palatino-Bold,Palatino" font-weight="bold" font-size="36.0" fill="#324763" transform="matrix(1.00, 0.00, -0.00, -1.00, 722.4, 11.0)">i</text><text xml:space="preserve" font-family="Palatino-Bold,Palatino" font-weight="bold" font-size="36.0" fill="#324763" transform="matrix(1.00, 0.00, -0.00, -1.00, 734.4, 11.0)">c</text><text xml:space="preserve" font-family="Palatino-Bold,Palatino" font-weight="bold" font-size="36.0" fill="#324763" transform="matrix(1.00, 0.00, -0.00, -1.00, 750.4, 11.0)">e</text><text xml:space="preserve" font-family="Palatino-Bold,Palatino" font-weight="bold" font-size="36.0" fill="#324763" transform="matrix(1.00, 0.00, -0.00, -1.00, 768.4, 11.0)">?</text><text xml:space="preserve" font-family="Palatino-Bold,Palatino" font-weight="bold" font-size="36.0" fill="#324763" transform="matrix(1.00, 0.00, -0.00, -1.00, 784.4, 11.0)">?</text></g></svg>