<?xml version="1.0" encoding="UTF-8" standalone="no"?><svg xmlns="http://www.w3.org/2000/svg" xmlns:xlink="http://www.w3.org/1999/xlink" clip-rule="evenodd" stroke-miterlimit="10" viewBox="0 0 273 59"><desc>SVG generated by Keynote</desc><defs></defs><g transform="matrix(1.00, 0.00, -0.00, -1.00, 0.0, 59.0)"><g><clipPath id="clip0x7fcb2b855ba0"><path d="M 18.3 0.8 L 254.7 0.8 L 254.7 57.3 L 18.3 57.3 Z M 18.3 0.8 "></path></clipPath><g clip-path="url(#clip0x7fcb2b855ba0)"><text xml:space="preserve" font-family="Palatino-Roman,Palatino" font-size="30.0" fill="#C25F61" transform="matrix(1.00, 0.00, -0.00, -1.00, 27.0, 17.4)">C</text><text xml:space="preserve" font-family="Palatino-Roman,Palatino" font-size="30.0" fill="#324763" transform="matrix(1.00, 0.00, -0.00, -1.00, 48.3, 17.4)">r</text><text xml:space="preserve" font-family="Palatino-Roman,Palatino" font-size="30.0" fill="#324763" transform="matrix(1.00, 0.00, -0.00, -1.00, 59.6, 17.4)">o</text><text xml:space="preserve" font-family="Palatino-Roman,Palatino" font-size="30.0" fill="#324763" transform="matrix(1.00, 0.00, -0.00, -1.00, 76.0, 17.4)">s</text><text xml:space="preserve" font-family="Palatino-Roman,Palatino" font-size="30.0" fill="#324763" transform="matrix(1.00, 0.00, -0.00, -1.00, 88.7, 17.4)">s</text><text xml:space="preserve" font-family="Palatino-Roman,Palatino" font-size="30.0" fill="#324763" transform="matrix(1.00, 0.00, -0.00, -1.00, 101.4, 17.4)"> </text><text xml:space="preserve" font-family="Palatino-Roman,Palatino" font-size="30.0" fill="#C25F61" transform="matrix(1.00, 0.00, -0.00, -1.00, 108.9, 17.4)">V</text><text xml:space="preserve" font-family="Palatino-Roman,Palatino" font-size="30.0" fill="#324763" transform="matrix(1.00, 0.00, -0.00, -1.00, 127.8, 17.4)">a</text><text xml:space="preserve" font-family="Palatino-Roman,Palatino" font-size="30.0" fill="#324763" transform="matrix(1.00, 0.00, -0.00, -1.00, 142.8, 17.4)">l</text><text xml:space="preserve" font-family="Palatino-Roman,Palatino" font-size="30.0" fill="#324763" transform="matrix(1.00, 0.00, -0.00, -1.00, 151.6, 17.4)">i</text><text xml:space="preserve" font-family="Palatino-Roman,Palatino" font-size="30.0" fill="#324763" transform="matrix(1.00, 0.00, -0.00, -1.00, 160.3, 17.4)">d</text><text xml:space="preserve" font-family="Palatino-Roman,Palatino" font-size="30.0" fill="#324763" transform="matrix(1.00, 0.00, -0.00, -1.00, 178.6, 17.4)">a</text><text xml:space="preserve" font-family="Palatino-Roman,Palatino" font-size="30.0" fill="#324763" transform="matrix(1.00, 0.00, -0.00, -1.00, 193.6, 17.4)">t</text><text xml:space="preserve" font-family="Palatino-Roman,Palatino" font-size="30.0" fill="#324763" transform="matrix(1.00, 0.00, -0.00, -1.00, 203.4, 17.4)">i</text><text xml:space="preserve" font-family="Palatino-Roman,Palatino" font-size="30.0" fill="#324763" transform="matrix(1.00, 0.00, -0.00, -1.00, 212.1, 17.4)">o</text><text xml:space="preserve" font-family="Palatino-Roman,Palatino" font-size="30.0" fill="#324763" transform="matrix(1.00, 0.00, -0.00, -1.00, 228.5, 17.4)">n</text></g></g><g><clipPath id="clip0x7fcb2b861790"><path d="M 0.6 0.0 L 272.4 0.0 L 272.4 58.1 L 0.6 58.1 Z M 0.6 0.0 "></path></clipPath><g clip-path="url(#clip0x7fcb2b861790)"><path d="M 0.0 27.0 L 0.0 27.0 C 0.0 12.1 12.1 0.1 27.0 0.1 L 240.8 0.1 C 255.8 0.1 267.9 12.1 267.9 27.0 L 267.9 27.0 C 267.9 42.0 255.8 54.1 240.8 54.1 L 27.0 54.1 C 12.1 54.1 0.0 42.0 0.0 27.0 Z M 0.0 27.0 " fill="none" stroke="#7995B9" stroke-width="2.00" transform="matrix(1.00, 0.00, 0.00, -1.00, 2.6, 56.1)"></path></g></g></g></svg>