<?xml version="1.0" encoding="UTF-8" standalone="no"?><svg xmlns="http://www.w3.org/2000/svg" xmlns:xlink="http://www.w3.org/1999/xlink" clip-rule="evenodd" stroke-miterlimit="10" viewBox="0 0 333 224"><desc>SVG generated by Keynote</desc><defs></defs><g transform="matrix(1.00, 0.00, -0.00, -1.00, 0.0, 224.0)"><g><clipPath id="clip0x7fcb228cb1e0"><path d="M 14.9 211.9 L 317.4 211.9 L 317.4 135.4 L 14.9 135.4 Z M 14.9 211.9 "></path></clipPath><g clip-path="url(#clip0x7fcb228cb1e0)"><g><clipPath id="clip0x7fcb228cb980"><path d="M 14.9 135.4 L 317.4 135.4 L 317.4 211.9 L 14.9 211.9 Z M 14.9 135.4 "></path></clipPath><g clip-path="url(#clip0x7fcb228cb980)"><path d="M 21.9 142.4 C 24.7 143.6 51.1 152.3 75.3 153.8 C 75.9 155.8 78.5 162.6 79.0 164.4 C 53.8 162.7 33.4 155.2 25.2 151.4 L 21.9 142.4 " fill="#82BE41"></path><path d="M 26.1 154.0 C 33.8 161.9 61.6 187.3 61.6 187.3 C 47.2 184.0 32.1 179.5 26.7 177.0 L 18.6 168.8 C 25.4 170.2 27.6 170.5 32.5 171.2 L 26.1 154.0 " fill="#82BE41"></path><path d="M 61.3 204.4 C 57.0 202.4 44.4 192.8 37.7 187.7 C 45.9 190.4 65.6 194.8 75.7 195.0 C 72.6 197.2 63.7 203.2 61.3 204.4 " fill="#3B66A2"></path><path d="M 77.6 193.7 C 77.6 193.7 53.1 169.3 49.3 165.8 C 56.7 168.5 72.0 171.6 81.7 172.2 C 82.8 175.6 84.0 178.1 84.0 178.1 L 97.0 179.4 C 97.0 179.4 87.1 187.3 77.6 193.7 " fill="#3B66A2"></path><path d="M 236.2 150.3 C 233.1 146.8 229.1 144.7 222.8 144.7 C 211.8 144.7 204.5 153.0 204.5 165.8 C 204.5 178.6 211.8 187.1 222.8 187.1 C 228.6 187.1 233.1 185.1 236.6 180.9 C 239.9 177.1 241.3 172.7 241.3 166.1 C 241.3 159.1 239.7 154.3 236.2 150.3 Z M 227.6 177.0 C 226.6 178.4 224.9 179.2 223.0 179.2 C 220.4 179.2 218.4 177.6 217.5 175.1 C 216.8 172.9 216.4 170.1 216.4 166.0 C 216.4 161.3 216.9 157.8 217.7 155.7 C 218.7 153.5 221.1 152.4 223.1 152.4 C 227.7 152.4 229.7 156.5 229.7 166.2 C 229.7 171.6 229.0 175.2 227.6 177.0 Z M 287.8 145.6 L 278.0 145.6 L 274.4 159.6 C 273.5 162.8 272.6 166.7 272.1 169.4 C 271.8 171.3 271.7 171.9 271.5 173.5 C 271.2 171.7 271.1 171.2 270.5 168.2 C 269.7 164.7 268.0 157.7 267.0 153.9 L 264.9 145.6 L 255.0 145.6 L 243.7 186.3 L 254.5 186.3 L 257.8 171.1 C 258.8 166.4 260.1 158.4 260.1 158.4 C 260.1 158.4 261.1 165.7 263.0 172.6 L 266.8 186.3 L 276.9 186.3 L 280.1 172.8 C 281.9 165.3 283.1 158.4 283.1 158.4 C 283.4 160.2 284.2 166.6 285.4 171.7 L 288.5 186.3 L 299.4 186.3 L 287.8 145.6 Z M 185.6 145.6 L 196.5 145.6 L 196.4 204.4 L 185.5 201.9 L 185.6 145.6 Z M 164.4 145.6 L 175.3 145.6 L 175.2 204.4 L 164.3 201.9 L 164.4 145.6 Z M 143.3 145.5 L 143.3 181.3 L 153.9 183.7 L 154.0 145.5 L 143.3 145.5 Z M 148.6 186.0 C 145.0 186.0 142.1 189.0 142.1 192.6 C 142.1 196.3 145.1 199.2 148.8 199.2 C 152.4 199.2 155.2 196.3 155.2 192.6 C 155.2 189.0 152.3 186.0 148.6 186.0 Z M 133.1 145.6 L 98.7 145.6 L 98.7 153.4 L 119.5 189.2 C 121.0 191.7 121.8 193.7 121.8 193.7 C 121.8 193.7 120.6 193.8 117.3 193.8 L 100.3 193.8 L 102.7 203.0 L 135.8 203.0 L 135.8 195.0 L 114.8 158.2 C 113.6 156.2 112.7 154.6 112.7 154.6 C 112.7 154.6 115.2 154.6 117.4 154.6 L 136.0 154.6 L 133.1 145.6 " fill="#3B66A2"></path><path d="M 308.8 187.0 C 306.0 187.0 303.7 189.2 303.7 192.1 C 303.7 195.0 306.0 197.3 308.8 197.3 C 311.6 197.3 313.9 195.0 313.9 192.1 C 313.9 189.2 311.6 187.0 308.8 187.0 Z M 308.8 196.4 C 306.5 196.4 304.7 194.5 304.7 192.1 C 304.7 189.7 306.5 187.8 308.8 187.8 C 311.0 187.8 312.9 189.7 312.9 192.1 C 312.9 194.5 311.0 196.4 308.8 196.4 Z M 309.9 189.3 L 309.4 190.2 C 309.0 190.9 308.8 191.3 308.5 191.6 C 308.3 191.7 308.3 191.7 308.1 191.8 L 308.1 189.3 L 307.1 189.3 L 307.1 195.0 L 308.9 195.0 C 310.2 195.0 310.7 194.3 310.7 193.4 C 310.7 192.5 310.2 191.8 309.3 191.8 C 309.5 191.7 309.9 191.1 310.2 190.7 L 311.1 189.3 L 309.9 189.3 Z M 308.1 194.2 L 308.1 192.4 L 308.6 192.4 C 309.1 192.4 309.3 192.5 309.5 192.7 C 309.7 192.8 309.8 193.1 309.8 193.4 C 309.8 193.9 309.4 194.2 308.6 194.2 L 308.1 194.2 " fill="#3B66A2"></path></g></g></g></g><g><clipPath id="clip0x7fcb228cfda0"><path d="M 53.1 3.7 L 485.5 3.7 L 485.5 140.3 L 53.1 140.3 Z M 53.1 3.7 "></path></clipPath><g clip-path="url(#clip0x7fcb228cfda0)"><text xml:space="preserve" font-family="Palatino-Roman,Palatino" font-size="30.0" fill="#324763" transform="matrix(1.00, 0.00, -0.00, -1.00, 99.2, 100.3)">1</text><text xml:space="preserve" font-family="Palatino-Roman,Palatino" font-size="30.0" fill="#324763" transform="matrix(1.00, 0.00, -0.00, -1.00, 114.2, 100.3)">7</text><text xml:space="preserve" font-family="Palatino-Roman,Palatino" font-size="30.0" fill="#324763" transform="matrix(1.00, 0.00, -0.00, -1.00, 129.2, 100.3)">K</text><text xml:space="preserve" font-family="Palatino-Roman,Palatino" font-size="30.0" fill="#324763" transform="matrix(1.00, 0.00, -0.00, -1.00, 151.0, 100.3)"> </text><text xml:space="preserve" font-family="Palatino-Roman,Palatino" font-size="30.0" fill="#324763" transform="matrix(1.00, 0.00, -0.00, -1.00, 158.5, 100.3)">h</text><text xml:space="preserve" font-family="Palatino-Roman,Palatino" font-size="30.0" fill="#324763" transform="matrix(1.00, 0.00, -0.00, -1.00, 175.9, 100.3)">o</text><text xml:space="preserve" font-family="Palatino-Roman,Palatino" font-size="30.0" fill="#324763" transform="matrix(1.00, 0.00, -0.00, -1.00, 192.3, 100.3)">m</text><text xml:space="preserve" font-family="Palatino-Roman,Palatino" font-size="30.0" fill="#324763" transform="matrix(1.00, 0.00, -0.00, -1.00, 218.8, 100.3)">e</text><text xml:space="preserve" font-family="Palatino-Roman,Palatino" font-size="30.0" fill="#324763" transform="matrix(1.00, 0.00, -0.00, -1.00, 69.4, 60.3)">s</text><text xml:space="preserve" font-family="Palatino-Roman,Palatino" font-size="30.0" fill="#324763" transform="matrix(1.00, 0.00, -0.00, -1.00, 82.1, 60.3)">a</text><text xml:space="preserve" font-family="Palatino-Roman,Palatino" font-size="30.0" fill="#324763" transform="matrix(1.00, 0.00, -0.00, -1.00, 97.1, 60.3)">l</text><text xml:space="preserve" font-family="Palatino-Roman,Palatino" font-size="30.0" fill="#324763" transform="matrix(1.00, 0.00, -0.00, -1.00, 105.8, 60.3)">e</text><text xml:space="preserve" font-family="Palatino-Roman,Palatino" font-size="30.0" fill="#324763" transform="matrix(1.00, 0.00, -0.00, -1.00, 120.2, 60.3)">s</text><text xml:space="preserve" font-family="Palatino-Roman,Palatino" font-size="30.0" fill="#324763" transform="matrix(1.00, 0.00, -0.00, -1.00, 132.9, 60.3)"> </text><text xml:space="preserve" font-family="Palatino-Roman,Palatino" font-size="30.0" fill="#324763" transform="matrix(1.00, 0.00, -0.00, -1.00, 140.4, 60.3)">o</text><text xml:space="preserve" font-family="Palatino-Roman,Palatino" font-size="30.0" fill="#324763" transform="matrix(1.00, 0.00, -0.00, -1.00, 156.8, 60.3)">v</text><text xml:space="preserve" font-family="Palatino-Roman,Palatino" font-size="30.0" fill="#324763" transform="matrix(1.00, 0.00, -0.00, -1.00, 173.7, 60.3)">e</text><text xml:space="preserve" font-family="Palatino-Roman,Palatino" font-size="30.0" fill="#324763" transform="matrix(1.00, 0.00, -0.00, -1.00, 188.1, 60.3)">r</text><text xml:space="preserve" font-family="Palatino-Roman,Palatino" font-size="30.0" fill="#324763" transform="matrix(1.00, 0.00, -0.00, -1.00, 199.9, 60.3)"> </text><text xml:space="preserve" font-family="Palatino-Roman,Palatino" font-size="30.0" fill="#324763" transform="matrix(1.00, 0.00, -0.00, -1.00, 207.4, 60.3)">p</text><text xml:space="preserve" font-family="Palatino-Roman,Palatino" font-size="30.0" fill="#324763" transform="matrix(1.00, 0.00, -0.00, -1.00, 225.5, 60.3)">a</text><text xml:space="preserve" font-family="Palatino-Roman,Palatino" font-size="30.0" fill="#324763" transform="matrix(1.00, 0.00, -0.00, -1.00, 240.5, 60.3)">s</text><text xml:space="preserve" font-family="Palatino-Roman,Palatino" font-size="30.0" fill="#324763" transform="matrix(1.00, 0.00, -0.00, -1.00, 253.2, 60.3)">t</text><text xml:space="preserve" font-family="Palatino-Roman,Palatino" font-size="30.0" fill="#324763" transform="matrix(1.00, 0.00, -0.00, -1.00, 263.0, 60.3)"> </text><text xml:space="preserve" font-family="Palatino-Roman,Palatino" font-size="30.0" fill="#324763" transform="matrix(1.00, 0.00, -0.00, -1.00, 115.5, 20.3)">4</text><text xml:space="preserve" font-family="Palatino-Roman,Palatino" font-size="30.0" fill="#324763" transform="matrix(1.00, 0.00, -0.00, -1.00, 130.5, 20.3)"> </text><text xml:space="preserve" font-family="Palatino-Roman,Palatino" font-size="30.0" fill="#324763" transform="matrix(1.00, 0.00, -0.00, -1.00, 138.0, 20.3)">y</text><text xml:space="preserve" font-family="Palatino-Roman,Palatino" font-size="30.0" fill="#324763" transform="matrix(1.00, 0.00, -0.00, -1.00, 154.6, 20.3)">e</text><text xml:space="preserve" font-family="Palatino-Roman,Palatino" font-size="30.0" fill="#324763" transform="matrix(1.00, 0.00, -0.00, -1.00, 169.0, 20.3)">a</text><text xml:space="preserve" font-family="Palatino-Roman,Palatino" font-size="30.0" fill="#324763" transform="matrix(1.00, 0.00, -0.00, -1.00, 184.0, 20.3)">r</text><text xml:space="preserve" font-family="Palatino-Roman,Palatino" font-size="30.0" fill="#324763" transform="matrix(1.00, 0.00, -0.00, -1.00, 195.9, 20.3)">s</text><text xml:space="preserve" font-family="Palatino-Roman,Palatino" font-size="30.0" fill="#324763" transform="matrix(1.00, 0.00, -0.00, -1.00, 208.6, 20.3)">!</text></g></g><g><clipPath id="clip0x7fcb228e14a0"><path d="M 0.0 0.1 L 332.4 0.1 L 332.4 224.0 L 0.0 224.0 Z M 0.0 0.1 "></path></clipPath><g clip-path="url(#clip0x7fcb228e14a0)"><path d="M 0.0 184.5 L 0.0 32.5 C 0.0 14.6 14.6 -0.0 32.5 -0.0 L 292.8 -0.0 C 310.8 -0.0 325.0 14.6 325.0 32.5 L 325.0 184.4 C 325.0 202.3 310.8 217.0 292.8 217.0 L 32.5 217.0 C 14.6 217.0 0.0 202.5 0.0 184.5 Z M 0.0 184.4 " fill="none" stroke="#A53234" stroke-width="5.00" transform="matrix(1.00, 0.00, 0.00, -1.00, 3.5, 220.5)"></path></g></g></g></svg>