<?xml version="1.0" encoding="UTF-8" standalone="no"?><svg xmlns="http://www.w3.org/2000/svg" xmlns:xlink="http://www.w3.org/1999/xlink" clip-rule="evenodd" stroke-miterlimit="10" viewBox="0 0 206 71"><desc>SVG generated by Keynote</desc><defs></defs><g transform="matrix(1.00, 0.00, -0.00, -1.00, 0.0, 71.0)"><text xml:space="preserve" font-family="Palatino-Roman,Palatino" font-size="30.0" fill="#C25F61" transform="matrix(1.00, 0.00, -0.00, -1.00, 0.4, 47.3)">C</text><text xml:space="preserve" font-family="Palatino-Roman,Palatino" font-size="30.0" fill="#324763" transform="matrix(1.00, 0.00, -0.00, -1.00, 21.6, 47.3)">l</text><text xml:space="preserve" font-family="Palatino-Roman,Palatino" font-size="30.0" fill="#324763" transform="matrix(1.00, 0.00, -0.00, -1.00, 30.4, 47.3)">e</text><text xml:space="preserve" font-family="Palatino-Roman,Palatino" font-size="30.0" fill="#324763" transform="matrix(1.00, 0.00, -0.00, -1.00, 44.7, 47.3)">a</text><text xml:space="preserve" font-family="Palatino-Roman,Palatino" font-size="30.0" fill="#324763" transform="matrix(1.00, 0.00, -0.00, -1.00, 59.7, 47.3)">n</text><text xml:space="preserve" font-family="Palatino-Roman,Palatino" font-size="30.0" fill="#324763" transform="matrix(1.00, 0.00, -0.00, -1.00, 77.2, 47.3)"> </text><text xml:space="preserve" font-family="Palatino-Roman,Palatino" font-size="30.0" fill="#324763" transform="matrix(1.00, 0.00, -0.00, -1.00, 84.7, 47.3)">a</text><text xml:space="preserve" font-family="Palatino-Roman,Palatino" font-size="30.0" fill="#324763" transform="matrix(1.00, 0.00, -0.00, -1.00, 99.7, 47.3)">n</text><text xml:space="preserve" font-family="Palatino-Roman,Palatino" font-size="30.0" fill="#324763" transform="matrix(1.00, 0.00, -0.00, -1.00, 117.1, 47.3)">d</text><text xml:space="preserve" font-family="Palatino-Roman,Palatino" font-size="30.0" fill="#324763" transform="matrix(1.00, 0.00, -0.00, -1.00, 135.5, 47.3)"> </text><text xml:space="preserve" font-family="Palatino-Roman,Palatino" font-size="30.0" fill="#C25F61" transform="matrix(1.00, 0.00, -0.00, -1.00, 143.0, 47.3)">S</text><text xml:space="preserve" font-family="Palatino-Roman,Palatino" font-size="30.0" fill="#324763" transform="matrix(1.00, 0.00, -0.00, -1.00, 158.7, 47.3)">p</text><text xml:space="preserve" font-family="Palatino-Roman,Palatino" font-size="30.0" fill="#324763" transform="matrix(1.00, 0.00, -0.00, -1.00, 176.8, 47.3)">l</text><text xml:space="preserve" font-family="Palatino-Roman,Palatino" font-size="30.0" fill="#324763" transform="matrix(1.00, 0.00, -0.00, -1.00, 185.5, 47.3)">i</text><text xml:space="preserve" font-family="Palatino-Roman,Palatino" font-size="30.0" fill="#324763" transform="matrix(1.00, 0.00, -0.00, -1.00, 194.2, 47.3)">t</text><text xml:space="preserve" font-family="Palatino-Roman,Palatino" font-size="30.0" fill="#324763" transform="matrix(1.00, 0.00, -0.00, -1.00, 40.5, 7.3)">(</text><text xml:space="preserve" font-family="Palatino-Roman,Palatino" font-size="30.0" fill="#324763" transform="matrix(1.00, 0.00, -0.00, -1.00, 50.5, 7.3)">7</text><text xml:space="preserve" font-family="Palatino-Roman,Palatino" font-size="30.0" fill="#324763" transform="matrix(1.00, 0.00, -0.00, -1.00, 65.5, 7.3)">5</text><text xml:space="preserve" font-family="Palatino-Roman,Palatino" font-size="30.0" fill="#324763" transform="matrix(1.00, 0.00, -0.00, -1.00, 80.5, 7.3)">/</text><text xml:space="preserve" font-family="Palatino-Roman,Palatino" font-size="30.0" fill="#324763" transform="matrix(1.00, 0.00, -0.00, -1.00, 98.7, 7.3)">2</text><text xml:space="preserve" font-family="Palatino-Roman,Palatino" font-size="30.0" fill="#324763" transform="matrix(1.00, 0.00, -0.00, -1.00, 113.7, 7.3)">5</text><text xml:space="preserve" font-family="Palatino-Roman,Palatino" font-size="30.0" fill="#324763" transform="matrix(1.00, 0.00, -0.00, -1.00, 128.7, 7.3)">%</text><text xml:space="preserve" font-family="Palatino-Roman,Palatino" font-size="30.0" fill="#324763" transform="matrix(1.00, 0.00, -0.00, -1.00, 153.9, 7.3)">)</text></g></svg>