<?xml version="1.0" encoding="UTF-8" standalone="no"?><svg xmlns="http://www.w3.org/2000/svg" xmlns:xlink="http://www.w3.org/1999/xlink" clip-rule="evenodd" stroke-miterlimit="10" viewBox="0 0 1024 768"><desc>SVG generated by Keynote</desc><defs></defs><g transform="matrix(1.00, 0.00, -0.00, -1.00, 0.0, 768.0)"><g><clipPath id="clip0x7fcb2bc78250"><path d="M 0.0 768.0 L 1024.0 768.0 L 1024.0 0.0 L 0.0 0.0 Z M 0.0 768.0 "></path></clipPath><g clip-path="url(#clip0x7fcb2bc78250)"><image xlink:href="../../CABF5236-1324-4602-9291-A4670FFDE0C7/assets/1783979FC7716684DCC3F94F50982FFC.jpeg" width="2048.00" height="1536.00" transform="matrix(0.50, 0.00, -0.00, -0.50, 0.0, 768.0)"></image></g></g><path d="M 0.0 0.5 L 960.0 0.5 L 960.0 0.5 L 0.0 0.5 Z M 0.0 0.0 " fill="none" stroke="#7995B9" stroke-width="1.00" transform="matrix(1.00, 0.00, 0.00, -1.00, 32.0, 566.0)"></path><path d="M 0.0 0.5 L 960.0 0.5 L 960.0 0.5 L 0.0 0.5 Z M 0.0 0.0 " fill="none" stroke="#7995B9" stroke-width="1.00" transform="matrix(1.00, 0.00, 0.00, -1.00, 32.0, 562.0)"></path><text xml:space="preserve" font-family="Didot,Didot" font-size="64.0" fill="#304863" transform="matrix(1.00, 0.00, -0.00, -1.00, 32.0, 631.7)">…</text><text xml:space="preserve" font-family="Didot,Didot" font-size="64.0" fill="#304863" transform="matrix(1.00, 0.00, -0.00, -1.00, 94.7, 631.7)"> </text><text xml:space="preserve" font-family="Didot,Didot" font-size="64.0" fill="#304863" transform="matrix(1.00, 0.00, -0.00, -1.00, 111.2, 631.7)">w</text><text xml:space="preserve" font-family="Didot,Didot" font-size="64.0" fill="#304863" transform="matrix(1.00, 0.00, -0.00, -1.00, 157.4, 631.7)">h</text><text xml:space="preserve" font-family="Didot,Didot" font-size="64.0" fill="#304863" transform="matrix(1.00, 0.00, -0.00, -1.00, 195.2, 631.7)">a</text><text xml:space="preserve" font-family="Didot,Didot" font-size="64.0" fill="#304863" transform="matrix(1.00, 0.00, -0.00, -1.00, 224.7, 631.7)">t</text><text xml:space="preserve" font-family="Didot,Didot" font-size="64.0" fill="#304863" transform="matrix(1.00, 0.00, -0.00, -1.00, 244.7, 631.7)">’</text><text xml:space="preserve" font-family="Didot,Didot" font-size="64.0" fill="#304863" transform="matrix(1.00, 0.00, -0.00, -1.00, 257.7, 631.7)">s</text><text xml:space="preserve" font-family="Didot,Didot" font-size="64.0" fill="#304863" transform="matrix(1.00, 0.00, -0.00, -1.00, 283.7, 631.7)"> </text><text xml:space="preserve" font-family="Didot,Didot" font-size="64.0" fill="#304863" transform="matrix(1.00, 0.00, -0.00, -1.00, 300.2, 631.7)">u</text><text xml:space="preserve" font-family="Didot,Didot" font-size="64.0" fill="#304863" transform="matrix(1.00, 0.00, -0.00, -1.00, 336.9, 631.7)">n</text><text xml:space="preserve" font-family="Didot,Didot" font-size="64.0" fill="#304863" transform="matrix(1.00, 0.00, -0.00, -1.00, 374.7, 631.7)">d</text><text xml:space="preserve" font-family="Didot,Didot" font-size="64.0" fill="#304863" transform="matrix(1.00, 0.00, -0.00, -1.00, 411.4, 631.7)">e</text><text xml:space="preserve" font-family="Didot,Didot" font-size="64.0" fill="#304863" transform="matrix(1.00, 0.00, -0.00, -1.00, 442.1, 631.7)">r</text><text xml:space="preserve" font-family="Didot,Didot" font-size="64.0" fill="#304863" transform="matrix(1.00, 0.00, -0.00, -1.00, 466.9, 631.7)"> </text><text xml:space="preserve" font-family="Didot,Didot" font-size="64.0" fill="#304863" transform="matrix(1.00, 0.00, -0.00, -1.00, 483.4, 631.7)">t</text><text xml:space="preserve" font-family="Didot,Didot" font-size="64.0" fill="#304863" transform="matrix(1.00, 0.00, -0.00, -1.00, 503.4, 631.7)">h</text><text xml:space="preserve" font-family="Didot,Didot" font-size="64.0" fill="#304863" transform="matrix(1.00, 0.00, -0.00, -1.00, 541.2, 631.7)">e</text><text xml:space="preserve" font-family="Didot,Didot" font-size="64.0" fill="#304863" transform="matrix(1.00, 0.00, -0.00, -1.00, 572.0, 631.7)"> </text><text xml:space="preserve" font-family="Didot,Didot" font-size="64.0" fill="#304863" transform="matrix(1.00, 0.00, -0.00, -1.00, 588.5, 631.7)">h</text><text xml:space="preserve" font-family="Didot,Didot" font-size="64.0" fill="#304863" transform="matrix(1.00, 0.00, -0.00, -1.00, 626.3, 631.7)">o</text><text xml:space="preserve" font-family="Didot,Didot" font-size="64.0" fill="#304863" transform="matrix(1.00, 0.00, -0.00, -1.00, 660.6, 631.7)">o</text><text xml:space="preserve" font-family="Didot,Didot" font-size="64.0" fill="#304863" transform="matrix(1.00, 0.00, -0.00, -1.00, 694.9, 631.7)">d</text><text xml:space="preserve" font-family="Didot,Didot" font-size="64.0" fill="#304863" transform="matrix(1.00, 0.00, -0.00, -1.00, 731.6, 631.7)">…</text><g><clipPath id="clip0x7fcb2b9c6060"><path d="M 598.1 204.9 L 1228.7 204.9 L 1228.7 340.6 L 598.1 340.6 Z M 598.1 204.9 "></path></clipPath><g clip-path="url(#clip0x7fcb2b9c6060)"><text xml:space="preserve" font-family="Palatino-Bold,Palatino" font-weight="bold" font-size="43.0" fill="#C25F61" transform="matrix(1.00, 0.00, -0.00, -1.00, 677.9, 284.7)">V</text><text xml:space="preserve" font-family="Palatino-Bold,Palatino" font-weight="bold" font-size="43.0" fill="#324763" transform="matrix(1.00, 0.00, -0.00, -1.00, 706.6, 284.7)">e</text><text xml:space="preserve" font-family="Palatino-Bold,Palatino" font-weight="bold" font-size="43.0" fill="#324763" transform="matrix(1.00, 0.00, -0.00, -1.00, 728.1, 284.7)">c</text><text xml:space="preserve" font-family="Palatino-Bold,Palatino" font-weight="bold" font-size="43.0" fill="#324763" transform="matrix(1.00, 0.00, -0.00, -1.00, 747.2, 284.7)">t</text><text xml:space="preserve" font-family="Palatino-Bold,Palatino" font-weight="bold" font-size="43.0" fill="#324763" transform="matrix(1.00, 0.00, -0.00, -1.00, 761.5, 284.7)">o</text><text xml:space="preserve" font-family="Palatino-Bold,Palatino" font-weight="bold" font-size="43.0" fill="#324763" transform="matrix(1.00, 0.00, -0.00, -1.00, 785.4, 284.7)">r</text><text xml:space="preserve" font-family="Palatino-Bold,Palatino" font-weight="bold" font-size="43.0" fill="#324763" transform="matrix(1.00, 0.00, -0.00, -1.00, 802.2, 284.7)"> </text><text xml:space="preserve" font-family="Palatino-Bold,Palatino" font-weight="bold" font-size="43.0" fill="#C25F61" transform="matrix(1.00, 0.00, -0.00, -1.00, 812.9, 284.7)">A</text><text xml:space="preserve" font-family="Palatino-Bold,Palatino" font-weight="bold" font-size="43.0" fill="#324763" transform="matrix(1.00, 0.00, -0.00, -1.00, 846.3, 284.7)">u</text><text xml:space="preserve" font-family="Palatino-Bold,Palatino" font-weight="bold" font-size="43.0" fill="#324763" transform="matrix(1.00, 0.00, -0.00, -1.00, 872.6, 284.7)">t</text><text xml:space="preserve" font-family="Palatino-Bold,Palatino" font-weight="bold" font-size="43.0" fill="#324763" transform="matrix(1.00, 0.00, -0.00, -1.00, 886.9, 284.7)">o</text><text xml:space="preserve" font-family="Palatino-Bold,Palatino" font-weight="bold" font-size="43.0" fill="#C25F61" transform="matrix(1.00, 0.00, -0.00, -1.00, 615.8, 228.7)">R</text><text xml:space="preserve" font-family="Palatino-Bold,Palatino" font-weight="bold" font-size="43.0" fill="#324763" transform="matrix(1.00, 0.00, -0.00, -1.00, 646.9, 228.7)">e</text><text xml:space="preserve" font-family="Palatino-Bold,Palatino" font-weight="bold" font-size="43.0" fill="#324763" transform="matrix(1.00, 0.00, -0.00, -1.00, 668.4, 228.7)">g</text><text xml:space="preserve" font-family="Palatino-Bold,Palatino" font-weight="bold" font-size="43.0" fill="#324763" transform="matrix(1.00, 0.00, -0.00, -1.00, 692.3, 228.7)">r</text><text xml:space="preserve" font-family="Palatino-Bold,Palatino" font-weight="bold" font-size="43.0" fill="#324763" transform="matrix(1.00, 0.00, -0.00, -1.00, 709.0, 228.7)">e</text><text xml:space="preserve" font-family="Palatino-Bold,Palatino" font-weight="bold" font-size="43.0" fill="#324763" transform="matrix(1.00, 0.00, -0.00, -1.00, 730.5, 228.7)">s</text><text xml:space="preserve" font-family="Palatino-Bold,Palatino" font-weight="bold" font-size="43.0" fill="#324763" transform="matrix(1.00, 0.00, -0.00, -1.00, 749.6, 228.7)">s</text><text xml:space="preserve" font-family="Palatino-Bold,Palatino" font-weight="bold" font-size="43.0" fill="#324763" transform="matrix(1.00, 0.00, -0.00, -1.00, 768.7, 228.7)">i</text><text xml:space="preserve" font-family="Palatino-Bold,Palatino" font-weight="bold" font-size="43.0" fill="#324763" transform="matrix(1.00, 0.00, -0.00, -1.00, 783.0, 228.7)">o</text><text xml:space="preserve" font-family="Palatino-Bold,Palatino" font-weight="bold" font-size="43.0" fill="#324763" transform="matrix(1.00, 0.00, -0.00, -1.00, 806.9, 228.7)">n</text><text xml:space="preserve" font-family="Palatino-Bold,Palatino" font-weight="bold" font-size="43.0" fill="#324763" transform="matrix(1.00, 0.00, -0.00, -1.00, 833.2, 228.7)"> </text><text xml:space="preserve" font-family="Palatino-Bold,Palatino" font-weight="bold" font-size="43.0" fill="#C25F61" transform="matrix(1.00, 0.00, -0.00, -1.00, 843.9, 228.7)">M</text><text xml:space="preserve" font-family="Palatino-Bold,Palatino" font-weight="bold" font-size="43.0" fill="#324763" transform="matrix(1.00, 0.00, -0.00, -1.00, 886.9, 228.7)">o</text><text xml:space="preserve" font-family="Palatino-Bold,Palatino" font-weight="bold" font-size="43.0" fill="#324763" transform="matrix(1.00, 0.00, -0.00, -1.00, 910.9, 228.7)">d</text><text xml:space="preserve" font-family="Palatino-Bold,Palatino" font-weight="bold" font-size="43.0" fill="#324763" transform="matrix(1.00, 0.00, -0.00, -1.00, 937.1, 228.7)">e</text><text xml:space="preserve" font-family="Palatino-Bold,Palatino" font-weight="bold" font-size="43.0" fill="#324763" transform="matrix(1.00, 0.00, -0.00, -1.00, 958.6, 228.7)">l</text><text xml:space="preserve" font-family="Palatino-Bold,Palatino" font-weight="bold" font-size="43.0" fill="#324763" transform="matrix(1.00, 0.00, -0.00, -1.00, 972.9, 228.7)"> </text></g></g><g><clipPath id="clip0x7fcb2b9d6120"><path d="M 593.6 206.5 L 995.2 206.5 L 995.2 339.0 L 593.6 339.0 Z M 593.6 206.5 "></path></clipPath><g clip-path="url(#clip0x7fcb2b9d6120)"><path d="M 0.0 96.3 L 0.4 28.3 C 0.4 12.7 12.7 0.0 28.3 0.0 L 365.3 0.0 C 381.0 0.0 393.4 12.7 393.4 28.3 L 393.4 96.3 C 393.4 111.9 381.0 125.0 365.3 125.0 L 28.3 125.0 C 12.7 125.0 0.0 111.9 0.0 96.3 Z M 0.0 96.3 " fill="none" stroke="#426132" stroke-width="6.00" transform="matrix(1.00, 0.00, 0.00, -1.00, 597.6, 335.0)"></path></g></g><text xml:space="preserve" font-family="Palatino-Bold,Palatino" font-weight="bold" font-size="37.0" fill="#C25F61" transform="matrix(1.00, 0.00, -0.00, -1.00, 98.5, 488.3)">O</text><text xml:space="preserve" font-family="Palatino-Bold,Palatino" font-weight="bold" font-size="37.0" fill="#304863" transform="matrix(1.00, 0.00, -0.00, -1.00, 129.3, 488.3)">p</text><text xml:space="preserve" font-family="Palatino-Bold,Palatino" font-weight="bold" font-size="37.0" fill="#304863" transform="matrix(1.00, 0.00, -0.00, -1.00, 151.9, 488.3)">t</text><text xml:space="preserve" font-family="Palatino-Bold,Palatino" font-weight="bold" font-size="37.0" fill="#304863" transform="matrix(1.00, 0.00, -0.00, -1.00, 164.2, 488.3)">i</text><text xml:space="preserve" font-family="Palatino-Bold,Palatino" font-weight="bold" font-size="37.0" fill="#304863" transform="matrix(1.00, 0.00, -0.00, -1.00, 176.5, 488.3)">m</text><text xml:space="preserve" font-family="Palatino-Bold,Palatino" font-weight="bold" font-size="37.0" fill="#304863" transform="matrix(1.00, 0.00, -0.00, -1.00, 209.3, 488.3)">i</text><text xml:space="preserve" font-family="Palatino-Bold,Palatino" font-weight="bold" font-size="37.0" fill="#304863" transform="matrix(1.00, 0.00, -0.00, -1.00, 221.6, 488.3)">z</text><text xml:space="preserve" font-family="Palatino-Bold,Palatino" font-weight="bold" font-size="37.0" fill="#304863" transform="matrix(1.00, 0.00, -0.00, -1.00, 240.1, 488.3)">a</text><text xml:space="preserve" font-family="Palatino-Bold,Palatino" font-weight="bold" font-size="37.0" fill="#304863" transform="matrix(1.00, 0.00, -0.00, -1.00, 258.6, 488.3)">t</text><text xml:space="preserve" font-family="Palatino-Bold,Palatino" font-weight="bold" font-size="37.0" fill="#304863" transform="matrix(1.00, 0.00, -0.00, -1.00, 270.9, 488.3)">i</text><text xml:space="preserve" font-family="Palatino-Bold,Palatino" font-weight="bold" font-size="37.0" fill="#304863" transform="matrix(1.00, 0.00, -0.00, -1.00, 283.2, 488.3)">o</text><text xml:space="preserve" font-family="Palatino-Bold,Palatino" font-weight="bold" font-size="37.0" fill="#304863" transform="matrix(1.00, 0.00, -0.00, -1.00, 303.8, 488.3)">n</text><text xml:space="preserve" font-family="Palatino-Bold,Palatino" font-weight="bold" font-size="37.0" fill="#304863" transform="matrix(1.00, 0.00, -0.00, -1.00, 326.4, 488.3)"> </text><text xml:space="preserve" font-family="Palatino-Bold,Palatino" font-weight="bold" font-size="37.0" fill="#C25F61" transform="matrix(1.00, 0.00, -0.00, -1.00, 335.6, 488.3)">P</text><text xml:space="preserve" font-family="Palatino-Bold,Palatino" font-weight="bold" font-size="37.0" fill="#304863" transform="matrix(1.00, 0.00, -0.00, -1.00, 358.2, 488.3)">a</text><text xml:space="preserve" font-family="Palatino-Bold,Palatino" font-weight="bold" font-size="37.0" fill="#304863" transform="matrix(1.00, 0.00, -0.00, -1.00, 376.7, 488.3)">r</text><text xml:space="preserve" font-family="Palatino-Bold,Palatino" font-weight="bold" font-size="37.0" fill="#304863" transform="matrix(1.00, 0.00, -0.00, -1.00, 391.0, 488.3)">a</text><text xml:space="preserve" font-family="Palatino-Bold,Palatino" font-weight="bold" font-size="37.0" fill="#304863" transform="matrix(1.00, 0.00, -0.00, -1.00, 409.5, 488.3)">m</text><text xml:space="preserve" font-family="Palatino-Bold,Palatino" font-weight="bold" font-size="37.0" fill="#304863" transform="matrix(1.00, 0.00, -0.00, -1.00, 442.4, 488.3)">e</text><text xml:space="preserve" font-family="Palatino-Bold,Palatino" font-weight="bold" font-size="37.0" fill="#304863" transform="matrix(1.00, 0.00, -0.00, -1.00, 460.9, 488.3)">t</text><text xml:space="preserve" font-family="Palatino-Bold,Palatino" font-weight="bold" font-size="37.0" fill="#304863" transform="matrix(1.00, 0.00, -0.00, -1.00, 473.2, 488.3)">e</text><text xml:space="preserve" font-family="Palatino-Bold,Palatino" font-weight="bold" font-size="37.0" fill="#304863" transform="matrix(1.00, 0.00, -0.00, -1.00, 491.7, 488.3)">r</text><text xml:space="preserve" font-family="Palatino-Bold,Palatino" font-weight="bold" font-size="37.0" fill="#304863" transform="matrix(1.00, 0.00, -0.00, -1.00, 506.1, 488.3)">s</text><text xml:space="preserve" font-family="Palatino-Bold,Palatino" font-weight="bold" font-size="37.0" fill="#304863" transform="matrix(1.00, 0.00, -0.00, -1.00, 522.5, 488.3)">:</text><image xlink:href="../../7E4A20B1-28CC-4B4D-AFDB-541E4FF0A55A/assets/CC7366385AC282D6A9B342F8A75D0D61.png" width="80.00" height="80.00" transform="matrix(0.20, 0.00, -0.00, -0.20, 32.0, 428.2)"></image><text xml:space="preserve" font-family="Palatino-Bold,Palatino" font-weight="bold" font-size="31.9" fill="#000000" transform="matrix(1.00, 0.00, -0.00, -1.00, 65.6, 409.6)">S</text><text xml:space="preserve" font-family="Palatino-Bold,Palatino" font-weight="bold" font-size="31.9" fill="#000000" transform="matrix(1.00, 0.00, -0.00, -1.00, 85.1, 409.6)">i</text><text xml:space="preserve" font-family="Palatino-Bold,Palatino" font-weight="bold" font-size="31.9" fill="#000000" transform="matrix(1.00, 0.00, -0.00, -1.00, 95.7, 409.6)">z</text><text xml:space="preserve" font-family="Palatino-Bold,Palatino" font-weight="bold" font-size="31.9" fill="#000000" transform="matrix(1.00, 0.00, -0.00, -1.00, 111.7, 409.6)">e</text><text xml:space="preserve" font-family="Palatino-Bold,Palatino" font-weight="bold" font-size="31.9" fill="#000000" transform="matrix(1.00, 0.00, -0.00, -1.00, 127.6, 409.6)"> </text><text xml:space="preserve" font-family="Palatino-Bold,Palatino" font-weight="bold" font-size="31.9" fill="#000000" transform="matrix(1.00, 0.00, -0.00, -1.00, 135.6, 409.6)">o</text><text xml:space="preserve" font-family="Palatino-Bold,Palatino" font-weight="bold" font-size="31.9" fill="#000000" transform="matrix(1.00, 0.00, -0.00, -1.00, 153.4, 409.6)">f</text><text xml:space="preserve" font-family="Palatino-Bold,Palatino" font-weight="bold" font-size="31.9" fill="#000000" transform="matrix(1.00, 0.00, -0.00, -1.00, 165.8, 409.6)"> </text><text xml:space="preserve" font-family="Palatino-Bold,Palatino" font-weight="bold" font-size="31.9" fill="#000000" transform="matrix(1.00, 0.00, -0.00, -1.00, 173.8, 409.6)">G</text><text xml:space="preserve" font-family="Palatino-Bold,Palatino" font-weight="bold" font-size="31.9" fill="#000000" transform="matrix(1.00, 0.00, -0.00, -1.00, 200.4, 409.6)">e</text><text xml:space="preserve" font-family="Palatino-Bold,Palatino" font-weight="bold" font-size="31.9" fill="#000000" transform="matrix(1.00, 0.00, -0.00, -1.00, 216.3, 409.6)">o</text><text xml:space="preserve" font-family="Palatino-Bold,Palatino" font-weight="bold" font-size="31.9" fill="#000000" transform="matrix(1.00, 0.00, -0.00, -1.00, 234.1, 409.6)">g</text><text xml:space="preserve" font-family="Palatino-Bold,Palatino" font-weight="bold" font-size="31.9" fill="#000000" transform="matrix(1.00, 0.00, -0.00, -1.00, 251.9, 409.6)">r</text><text xml:space="preserve" font-family="Palatino-Bold,Palatino" font-weight="bold" font-size="31.9" fill="#000000" transform="matrix(1.00, 0.00, -0.00, -1.00, 264.3, 409.6)">a</text><text xml:space="preserve" font-family="Palatino-Bold,Palatino" font-weight="bold" font-size="31.9" fill="#000000" transform="matrix(1.00, 0.00, -0.00, -1.00, 280.2, 409.6)">p</text><text xml:space="preserve" font-family="Palatino-Bold,Palatino" font-weight="bold" font-size="31.9" fill="#000000" transform="matrix(1.00, 0.00, -0.00, -1.00, 299.7, 409.6)">h</text><text xml:space="preserve" font-family="Palatino-Bold,Palatino" font-weight="bold" font-size="31.9" fill="#000000" transform="matrix(1.00, 0.00, -0.00, -1.00, 319.2, 409.6)">i</text><text xml:space="preserve" font-family="Palatino-Bold,Palatino" font-weight="bold" font-size="31.9" fill="#000000" transform="matrix(1.00, 0.00, -0.00, -1.00, 329.9, 409.6)">c</text><text xml:space="preserve" font-family="Palatino-Bold,Palatino" font-weight="bold" font-size="31.9" fill="#000000" transform="matrix(1.00, 0.00, -0.00, -1.00, 344.0, 409.6)">a</text><text xml:space="preserve" font-family="Palatino-Bold,Palatino" font-weight="bold" font-size="31.9" fill="#000000" transform="matrix(1.00, 0.00, -0.00, -1.00, 360.0, 409.6)">l</text><text xml:space="preserve" font-family="Palatino-Bold,Palatino" font-weight="bold" font-size="31.9" fill="#000000" transform="matrix(1.00, 0.00, -0.00, -1.00, 370.6, 409.6)"> </text><text xml:space="preserve" font-family="Palatino-Bold,Palatino" font-weight="bold" font-size="31.9" fill="#000000" transform="matrix(1.00, 0.00, -0.00, -1.00, 65.6, 367.6)">S</text><text xml:space="preserve" font-family="Palatino-Bold,Palatino" font-weight="bold" font-size="31.9" fill="#000000" transform="matrix(1.00, 0.00, -0.00, -1.00, 85.1, 367.6)">e</text><text xml:space="preserve" font-family="Palatino-Bold,Palatino" font-weight="bold" font-size="31.9" fill="#000000" transform="matrix(1.00, 0.00, -0.00, -1.00, 101.1, 367.6)">g</text><text xml:space="preserve" font-family="Palatino-Bold,Palatino" font-weight="bold" font-size="31.9" fill="#000000" transform="matrix(1.00, 0.00, -0.00, -1.00, 118.8, 367.6)">m</text><text xml:space="preserve" font-family="Palatino-Bold,Palatino" font-weight="bold" font-size="31.9" fill="#000000" transform="matrix(1.00, 0.00, -0.00, -1.00, 147.2, 367.6)">e</text><text xml:space="preserve" font-family="Palatino-Bold,Palatino" font-weight="bold" font-size="31.9" fill="#000000" transform="matrix(1.00, 0.00, -0.00, -1.00, 163.2, 367.6)">n</text><text xml:space="preserve" font-family="Palatino-Bold,Palatino" font-weight="bold" font-size="31.9" fill="#000000" transform="matrix(1.00, 0.00, -0.00, -1.00, 182.7, 367.6)">t</text><text xml:space="preserve" font-family="Palatino-Bold,Palatino" font-weight="bold" font-size="31.9" fill="#000000" transform="matrix(1.00, 0.00, -0.00, -1.00, 193.3, 367.6)">a</text><text xml:space="preserve" font-family="Palatino-Bold,Palatino" font-weight="bold" font-size="31.9" fill="#000000" transform="matrix(1.00, 0.00, -0.00, -1.00, 209.2, 367.6)">t</text><text xml:space="preserve" font-family="Palatino-Bold,Palatino" font-weight="bold" font-size="31.9" fill="#000000" transform="matrix(1.00, 0.00, -0.00, -1.00, 219.9, 367.6)">i</text><text xml:space="preserve" font-family="Palatino-Bold,Palatino" font-weight="bold" font-size="31.9" fill="#000000" transform="matrix(1.00, 0.00, -0.00, -1.00, 230.5, 367.6)">o</text><text xml:space="preserve" font-family="Palatino-Bold,Palatino" font-weight="bold" font-size="31.9" fill="#000000" transform="matrix(1.00, 0.00, -0.00, -1.00, 248.3, 367.6)">n</text><image xlink:href="../../7E4A20B1-28CC-4B4D-AFDB-541E4FF0A55A/assets/CC7366385AC282D6A9B342F8A75D0D61.png" width="80.00" height="80.00" transform="matrix(0.20, 0.00, -0.00, -0.20, 32.0, 308.9)"></image><text xml:space="preserve" font-family="Palatino-Bold,Palatino" font-weight="bold" font-size="31.9" fill="#000000" transform="matrix(1.00, 0.00, -0.00, -1.00, 65.6, 290.3)">H</text><text xml:space="preserve" font-family="Palatino-Bold,Palatino" font-weight="bold" font-size="31.9" fill="#000000" transform="matrix(1.00, 0.00, -0.00, -1.00, 92.2, 290.3)">o</text><text xml:space="preserve" font-family="Palatino-Bold,Palatino" font-weight="bold" font-size="31.9" fill="#000000" transform="matrix(1.00, 0.00, -0.00, -1.00, 109.9, 290.3)">u</text><text xml:space="preserve" font-family="Palatino-Bold,Palatino" font-weight="bold" font-size="31.9" fill="#000000" transform="matrix(1.00, 0.00, -0.00, -1.00, 129.4, 290.3)">s</text><text xml:space="preserve" font-family="Palatino-Bold,Palatino" font-weight="bold" font-size="31.9" fill="#000000" transform="matrix(1.00, 0.00, -0.00, -1.00, 143.6, 290.3)">i</text><text xml:space="preserve" font-family="Palatino-Bold,Palatino" font-weight="bold" font-size="31.9" fill="#000000" transform="matrix(1.00, 0.00, -0.00, -1.00, 154.2, 290.3)">n</text><text xml:space="preserve" font-family="Palatino-Bold,Palatino" font-weight="bold" font-size="31.9" fill="#000000" transform="matrix(1.00, 0.00, -0.00, -1.00, 173.7, 290.3)">g</text><text xml:space="preserve" font-family="Palatino-Bold,Palatino" font-weight="bold" font-size="31.9" fill="#000000" transform="matrix(1.00, 0.00, -0.00, -1.00, 191.5, 290.3)"> </text><text xml:space="preserve" font-family="Palatino-Bold,Palatino" font-weight="bold" font-size="31.9" fill="#000000" transform="matrix(1.00, 0.00, -0.00, -1.00, 199.5, 290.3)">S</text><text xml:space="preserve" font-family="Palatino-Bold,Palatino" font-weight="bold" font-size="31.9" fill="#000000" transform="matrix(1.00, 0.00, -0.00, -1.00, 219.0, 290.3)">i</text><text xml:space="preserve" font-family="Palatino-Bold,Palatino" font-weight="bold" font-size="31.9" fill="#000000" transform="matrix(1.00, 0.00, -0.00, -1.00, 229.6, 290.3)">z</text><text xml:space="preserve" font-family="Palatino-Bold,Palatino" font-weight="bold" font-size="31.9" fill="#000000" transform="matrix(1.00, 0.00, -0.00, -1.00, 245.5, 290.3)">e</text><text xml:space="preserve" font-family="Palatino-Bold,Palatino" font-weight="bold" font-size="31.9" fill="#000000" transform="matrix(1.00, 0.00, -0.00, -1.00, 261.5, 290.3)">s</text><text xml:space="preserve" font-family="Palatino-Bold,Palatino" font-weight="bold" font-size="31.9" fill="#000000" transform="matrix(1.00, 0.00, -0.00, -1.00, 275.7, 290.3)"> </text><text xml:space="preserve" font-family="Palatino-Bold,Palatino" font-weight="bold" font-size="31.9" fill="#000000" transform="matrix(1.00, 0.00, -0.00, -1.00, 283.6, 290.3)">t</text><text xml:space="preserve" font-family="Palatino-Bold,Palatino" font-weight="bold" font-size="31.9" fill="#000000" transform="matrix(1.00, 0.00, -0.00, -1.00, 294.3, 290.3)">o</text><text xml:space="preserve" font-family="Palatino-Bold,Palatino" font-weight="bold" font-size="31.9" fill="#000000" transform="matrix(1.00, 0.00, -0.00, -1.00, 312.0, 290.3)"> </text><text xml:space="preserve" font-family="Palatino-Bold,Palatino" font-weight="bold" font-size="31.9" fill="#000000" transform="matrix(1.00, 0.00, -0.00, -1.00, 320.0, 290.3)">U</text><text xml:space="preserve" font-family="Palatino-Bold,Palatino" font-weight="bold" font-size="31.9" fill="#000000" transform="matrix(1.00, 0.00, -0.00, -1.00, 344.8, 290.3)">s</text><text xml:space="preserve" font-family="Palatino-Bold,Palatino" font-weight="bold" font-size="31.9" fill="#000000" transform="matrix(1.00, 0.00, -0.00, -1.00, 359.0, 290.3)">e</text><text xml:space="preserve" font-family="Palatino-Bold,Palatino" font-weight="bold" font-size="31.9" fill="#000000" transform="matrix(1.00, 0.00, -0.00, -1.00, 375.0, 290.3)"> </text><text xml:space="preserve" font-family="Palatino-Bold,Palatino" font-weight="bold" font-size="31.9" fill="#000000" transform="matrix(1.00, 0.00, -0.00, -1.00, 382.9, 290.3)">(</text><text xml:space="preserve" font-family="Palatino-Bold,Palatino" font-weight="bold" font-size="31.9" fill="#000000" transform="matrix(1.00, 0.00, -0.00, -1.00, 393.6, 290.3)">2</text><text xml:space="preserve" font-family="Palatino-Bold,Palatino" font-weight="bold" font-size="31.9" fill="#000000" transform="matrix(1.00, 0.00, -0.00, -1.00, 409.5, 290.3)"> </text><text xml:space="preserve" font-family="Palatino-Bold,Palatino" font-weight="bold" font-size="31.9" fill="#000000" transform="matrix(1.00, 0.00, -0.00, -1.00, 417.5, 290.3)">B</text><text xml:space="preserve" font-family="Palatino-Bold,Palatino" font-weight="bold" font-size="31.9" fill="#000000" transform="matrix(1.00, 0.00, -0.00, -1.00, 438.8, 290.3)">D</text><text xml:space="preserve" font-family="Palatino-Bold,Palatino" font-weight="bold" font-size="31.9" fill="#000000" transform="matrix(1.00, 0.00, -0.00, -1.00, 465.4, 290.3)">R</text><text xml:space="preserve" font-family="Palatino-Bold,Palatino" font-weight="bold" font-size="31.9" fill="#000000" transform="matrix(1.00, 0.00, -0.00, -1.00, 488.4, 290.3)">M</text><text xml:space="preserve" font-family="Palatino-Bold,Palatino" font-weight="bold" font-size="31.9" fill="#000000" transform="matrix(1.00, 0.00, -0.00, -1.00, 520.4, 290.3)">)</text><image xlink:href="../../7E4A20B1-28CC-4B4D-AFDB-541E4FF0A55A/assets/CC7366385AC282D6A9B342F8A75D0D61.png" width="80.00" height="80.00" transform="matrix(0.20, 0.00, -0.00, -0.20, 32.0, 231.6)"></image><text xml:space="preserve" font-family="Palatino-Bold,Palatino" font-weight="bold" font-size="31.9" fill="#000000" transform="matrix(1.00, 0.00, -0.00, -1.00, 65.6, 213.0)">C</text><text xml:space="preserve" font-family="Palatino-Bold,Palatino" font-weight="bold" font-size="31.9" fill="#000000" transform="matrix(1.00, 0.00, -0.00, -1.00, 88.7, 213.0)">r</text><text xml:space="preserve" font-family="Palatino-Bold,Palatino" font-weight="bold" font-size="31.9" fill="#000000" transform="matrix(1.00, 0.00, -0.00, -1.00, 101.1, 213.0)">i</text><text xml:space="preserve" font-family="Palatino-Bold,Palatino" font-weight="bold" font-size="31.9" fill="#000000" transform="matrix(1.00, 0.00, -0.00, -1.00, 111.7, 213.0)">m</text><text xml:space="preserve" font-family="Palatino-Bold,Palatino" font-weight="bold" font-size="31.9" fill="#000000" transform="matrix(1.00, 0.00, -0.00, -1.00, 140.1, 213.0)">e</text><text xml:space="preserve" font-family="Palatino-Bold,Palatino" font-weight="bold" font-size="31.9" fill="#000000" transform="matrix(1.00, 0.00, -0.00, -1.00, 156.1, 213.0)">-</text><text xml:space="preserve" font-family="Palatino-Bold,Palatino" font-weight="bold" font-size="31.9" fill="#000000" transform="matrix(1.00, 0.00, -0.00, -1.00, 166.7, 213.0)">t</text><text xml:space="preserve" font-family="Palatino-Bold,Palatino" font-weight="bold" font-size="31.9" fill="#000000" transform="matrix(1.00, 0.00, -0.00, -1.00, 177.3, 213.0)">y</text><text xml:space="preserve" font-family="Palatino-Bold,Palatino" font-weight="bold" font-size="31.9" fill="#000000" transform="matrix(1.00, 0.00, -0.00, -1.00, 195.1, 213.0)">p</text><text xml:space="preserve" font-family="Palatino-Bold,Palatino" font-weight="bold" font-size="31.9" fill="#000000" transform="matrix(1.00, 0.00, -0.00, -1.00, 214.6, 213.0)">e</text><text xml:space="preserve" font-family="Palatino-Bold,Palatino" font-weight="bold" font-size="31.9" fill="#000000" transform="matrix(1.00, 0.00, -0.00, -1.00, 230.5, 213.0)"> </text><text xml:space="preserve" font-family="Palatino-Bold,Palatino" font-weight="bold" font-size="31.9" fill="#000000" transform="matrix(1.00, 0.00, -0.00, -1.00, 238.5, 213.0)">t</text><text xml:space="preserve" font-family="Palatino-Bold,Palatino" font-weight="bold" font-size="31.9" fill="#000000" transform="matrix(1.00, 0.00, -0.00, -1.00, 249.1, 213.0)">o</text><text xml:space="preserve" font-family="Palatino-Bold,Palatino" font-weight="bold" font-size="31.9" fill="#000000" transform="matrix(1.00, 0.00, -0.00, -1.00, 266.9, 213.0)"> </text><text xml:space="preserve" font-family="Palatino-Bold,Palatino" font-weight="bold" font-size="31.9" fill="#000000" transform="matrix(1.00, 0.00, -0.00, -1.00, 274.9, 213.0)">u</text><text xml:space="preserve" font-family="Palatino-Bold,Palatino" font-weight="bold" font-size="31.9" fill="#000000" transform="matrix(1.00, 0.00, -0.00, -1.00, 294.4, 213.0)">s</text><text xml:space="preserve" font-family="Palatino-Bold,Palatino" font-weight="bold" font-size="31.9" fill="#000000" transform="matrix(1.00, 0.00, -0.00, -1.00, 308.5, 213.0)">e</text><text xml:space="preserve" font-family="Palatino-Bold,Palatino" font-weight="bold" font-size="31.9" fill="#000000" transform="matrix(1.00, 0.00, -0.00, -1.00, 324.5, 213.0)"> </text><text xml:space="preserve" font-family="Palatino-Bold,Palatino" font-weight="bold" font-size="31.9" fill="#000000" transform="matrix(1.00, 0.00, -0.00, -1.00, 332.5, 213.0)">(</text><text xml:space="preserve" font-family="Palatino-Bold,Palatino" font-weight="bold" font-size="31.9" fill="#000000" transform="matrix(1.00, 0.00, -0.00, -1.00, 343.1, 213.0)">e</text><text xml:space="preserve" font-family="Palatino-Bold,Palatino" font-weight="bold" font-size="31.9" fill="#000000" transform="matrix(1.00, 0.00, -0.00, -1.00, 359.1, 213.0)">x</text><text xml:space="preserve" font-family="Palatino-Bold,Palatino" font-weight="bold" font-size="31.9" fill="#000000" transform="matrix(1.00, 0.00, -0.00, -1.00, 375.0, 213.0)">t</text><text xml:space="preserve" font-family="Palatino-Bold,Palatino" font-weight="bold" font-size="31.9" fill="#000000" transform="matrix(1.00, 0.00, -0.00, -1.00, 385.7, 213.0)">r</text><text xml:space="preserve" font-family="Palatino-Bold,Palatino" font-weight="bold" font-size="31.9" fill="#000000" transform="matrix(1.00, 0.00, -0.00, -1.00, 398.1, 213.0)">a</text><text xml:space="preserve" font-family="Palatino-Bold,Palatino" font-weight="bold" font-size="31.9" fill="#000000" transform="matrix(1.00, 0.00, -0.00, -1.00, 414.0, 213.0)"> </text><text xml:space="preserve" font-family="Palatino-Bold,Palatino" font-weight="bold" font-size="31.9" fill="#000000" transform="matrix(1.00, 0.00, -0.00, -1.00, 65.6, 171.0)">w</text><text xml:space="preserve" font-family="Palatino-Bold,Palatino" font-weight="bold" font-size="31.9" fill="#000000" transform="matrix(1.00, 0.00, -0.00, -1.00, 92.2, 171.0)">e</text><text xml:space="preserve" font-family="Palatino-Bold,Palatino" font-weight="bold" font-size="31.9" fill="#000000" transform="matrix(1.00, 0.00, -0.00, -1.00, 108.1, 171.0)">i</text><text xml:space="preserve" font-family="Palatino-Bold,Palatino" font-weight="bold" font-size="31.9" fill="#000000" transform="matrix(1.00, 0.00, -0.00, -1.00, 118.8, 171.0)">g</text><text xml:space="preserve" font-family="Palatino-Bold,Palatino" font-weight="bold" font-size="31.9" fill="#000000" transform="matrix(1.00, 0.00, -0.00, -1.00, 136.5, 171.0)">h</text><text xml:space="preserve" font-family="Palatino-Bold,Palatino" font-weight="bold" font-size="31.9" fill="#000000" transform="matrix(1.00, 0.00, -0.00, -1.00, 156.0, 171.0)">t</text><text xml:space="preserve" font-family="Palatino-Bold,Palatino" font-weight="bold" font-size="31.9" fill="#000000" transform="matrix(1.00, 0.00, -0.00, -1.00, 166.7, 171.0)">i</text><text xml:space="preserve" font-family="Palatino-Bold,Palatino" font-weight="bold" font-size="31.9" fill="#000000" transform="matrix(1.00, 0.00, -0.00, -1.00, 177.3, 171.0)">n</text><text xml:space="preserve" font-family="Palatino-Bold,Palatino" font-weight="bold" font-size="31.9" fill="#000000" transform="matrix(1.00, 0.00, -0.00, -1.00, 196.8, 171.0)">g</text><text xml:space="preserve" font-family="Palatino-Bold,Palatino" font-weight="bold" font-size="31.9" fill="#000000" transform="matrix(1.00, 0.00, -0.00, -1.00, 214.5, 171.0)"> </text><text xml:space="preserve" font-family="Palatino-Bold,Palatino" font-weight="bold" font-size="31.9" fill="#000000" transform="matrix(1.00, 0.00, -0.00, -1.00, 222.5, 171.0)">f</text><text xml:space="preserve" font-family="Palatino-Bold,Palatino" font-weight="bold" font-size="31.9" fill="#000000" transform="matrix(1.00, 0.00, -0.00, -1.00, 234.9, 171.0)">o</text><text xml:space="preserve" font-family="Palatino-Bold,Palatino" font-weight="bold" font-size="31.9" fill="#000000" transform="matrix(1.00, 0.00, -0.00, -1.00, 252.7, 171.0)">r</text><text xml:space="preserve" font-family="Palatino-Bold,Palatino" font-weight="bold" font-size="31.9" fill="#000000" transform="matrix(1.00, 0.00, -0.00, -1.00, 265.1, 171.0)"> </text><text xml:space="preserve" font-family="Palatino-Bold,Palatino" font-weight="bold" font-size="31.9" fill="#000000" transform="matrix(1.00, 0.00, -0.00, -1.00, 273.1, 171.0)">v</text><text xml:space="preserve" font-family="Palatino-Bold,Palatino" font-weight="bold" font-size="31.9" fill="#000000" transform="matrix(1.00, 0.00, -0.00, -1.00, 290.9, 171.0)">i</text><text xml:space="preserve" font-family="Palatino-Bold,Palatino" font-weight="bold" font-size="31.9" fill="#000000" transform="matrix(1.00, 0.00, -0.00, -1.00, 301.5, 171.0)">o</text><text xml:space="preserve" font-family="Palatino-Bold,Palatino" font-weight="bold" font-size="31.9" fill="#000000" transform="matrix(1.00, 0.00, -0.00, -1.00, 319.3, 171.0)">l</text><text xml:space="preserve" font-family="Palatino-Bold,Palatino" font-weight="bold" font-size="31.9" fill="#000000" transform="matrix(1.00, 0.00, -0.00, -1.00, 329.9, 171.0)">e</text><text xml:space="preserve" font-family="Palatino-Bold,Palatino" font-weight="bold" font-size="31.9" fill="#000000" transform="matrix(1.00, 0.00, -0.00, -1.00, 345.9, 171.0)">n</text><text xml:space="preserve" font-family="Palatino-Bold,Palatino" font-weight="bold" font-size="31.9" fill="#000000" transform="matrix(1.00, 0.00, -0.00, -1.00, 365.3, 171.0)">t</text><text xml:space="preserve" font-family="Palatino-Bold,Palatino" font-weight="bold" font-size="31.9" fill="#000000" transform="matrix(1.00, 0.00, -0.00, -1.00, 376.0, 171.0)"> </text><text xml:space="preserve" font-family="Palatino-Bold,Palatino" font-weight="bold" font-size="31.9" fill="#000000" transform="matrix(1.00, 0.00, -0.00, -1.00, 384.0, 171.0)">c</text><text xml:space="preserve" font-family="Palatino-Bold,Palatino" font-weight="bold" font-size="31.9" fill="#000000" transform="matrix(1.00, 0.00, -0.00, -1.00, 398.1, 171.0)">r</text><text xml:space="preserve" font-family="Palatino-Bold,Palatino" font-weight="bold" font-size="31.9" fill="#000000" transform="matrix(1.00, 0.00, -0.00, -1.00, 410.5, 171.0)">i</text><text xml:space="preserve" font-family="Palatino-Bold,Palatino" font-weight="bold" font-size="31.9" fill="#000000" transform="matrix(1.00, 0.00, -0.00, -1.00, 421.2, 171.0)">m</text><text xml:space="preserve" font-family="Palatino-Bold,Palatino" font-weight="bold" font-size="31.9" fill="#000000" transform="matrix(1.00, 0.00, -0.00, -1.00, 449.6, 171.0)">e</text><text xml:space="preserve" font-family="Palatino-Bold,Palatino" font-weight="bold" font-size="31.9" fill="#000000" transform="matrix(1.00, 0.00, -0.00, -1.00, 465.5, 171.0)">)</text><image xlink:href="../../7E4A20B1-28CC-4B4D-AFDB-541E4FF0A55A/assets/CC7366385AC282D6A9B342F8A75D0D61.png" width="80.00" height="80.00" transform="matrix(0.20, 0.00, -0.00, -0.20, 32.0, 112.3)"></image><text xml:space="preserve" font-family="Palatino-Bold,Palatino" font-weight="bold" font-size="31.9" fill="#000000" transform="matrix(1.00, 0.00, -0.00, -1.00, 65.6, 93.7)">T</text><text xml:space="preserve" font-family="Palatino-Bold,Palatino" font-weight="bold" font-size="31.9" fill="#000000" transform="matrix(1.00, 0.00, -0.00, -1.00, 83.4, 93.7)">e</text><text xml:space="preserve" font-family="Palatino-Bold,Palatino" font-weight="bold" font-size="31.9" fill="#000000" transform="matrix(1.00, 0.00, -0.00, -1.00, 99.3, 93.7)">m</text><text xml:space="preserve" font-family="Palatino-Bold,Palatino" font-weight="bold" font-size="31.9" fill="#000000" transform="matrix(1.00, 0.00, -0.00, -1.00, 127.7, 93.7)">p</text><text xml:space="preserve" font-family="Palatino-Bold,Palatino" font-weight="bold" font-size="31.9" fill="#000000" transform="matrix(1.00, 0.00, -0.00, -1.00, 147.2, 93.7)">o</text><text xml:space="preserve" font-family="Palatino-Bold,Palatino" font-weight="bold" font-size="31.9" fill="#000000" transform="matrix(1.00, 0.00, -0.00, -1.00, 165.0, 93.7)">r</text><text xml:space="preserve" font-family="Palatino-Bold,Palatino" font-weight="bold" font-size="31.9" fill="#000000" transform="matrix(1.00, 0.00, -0.00, -1.00, 177.4, 93.7)">a</text><text xml:space="preserve" font-family="Palatino-Bold,Palatino" font-weight="bold" font-size="31.9" fill="#000000" transform="matrix(1.00, 0.00, -0.00, -1.00, 193.3, 93.7)">l</text><text xml:space="preserve" font-family="Palatino-Bold,Palatino" font-weight="bold" font-size="31.9" fill="#000000" transform="matrix(1.00, 0.00, -0.00, -1.00, 204.0, 93.7)"> </text><text xml:space="preserve" font-family="Palatino-Bold,Palatino" font-weight="bold" font-size="31.9" fill="#000000" transform="matrix(1.00, 0.00, -0.00, -1.00, 212.0, 93.7)">l</text><text xml:space="preserve" font-family="Palatino-Bold,Palatino" font-weight="bold" font-size="31.9" fill="#000000" transform="matrix(1.00, 0.00, -0.00, -1.00, 222.6, 93.7)">a</text><text xml:space="preserve" font-family="Palatino-Bold,Palatino" font-weight="bold" font-size="31.9" fill="#000000" transform="matrix(1.00, 0.00, -0.00, -1.00, 238.5, 93.7)">g</text><text xml:space="preserve" font-family="Palatino-Bold,Palatino" font-weight="bold" font-size="31.9" fill="#000000" transform="matrix(1.00, 0.00, -0.00, -1.00, 256.3, 93.7)"> </text><text xml:space="preserve" font-family="Palatino-Bold,Palatino" font-weight="bold" font-size="31.9" fill="#000000" transform="matrix(1.00, 0.00, -0.00, -1.00, 264.3, 93.7)">b</text><text xml:space="preserve" font-family="Palatino-Bold,Palatino" font-weight="bold" font-size="31.9" fill="#000000" transform="matrix(1.00, 0.00, -0.00, -1.00, 283.8, 93.7)">e</text><text xml:space="preserve" font-family="Palatino-Bold,Palatino" font-weight="bold" font-size="31.9" fill="#000000" transform="matrix(1.00, 0.00, -0.00, -1.00, 299.7, 93.7)">t</text><text xml:space="preserve" font-family="Palatino-Bold,Palatino" font-weight="bold" font-size="31.9" fill="#000000" transform="matrix(1.00, 0.00, -0.00, -1.00, 310.4, 93.7)">w</text><text xml:space="preserve" font-family="Palatino-Bold,Palatino" font-weight="bold" font-size="31.9" fill="#000000" transform="matrix(1.00, 0.00, -0.00, -1.00, 336.9, 93.7)">e</text><text xml:space="preserve" font-family="Palatino-Bold,Palatino" font-weight="bold" font-size="31.9" fill="#000000" transform="matrix(1.00, 0.00, -0.00, -1.00, 352.9, 93.7)">e</text><text xml:space="preserve" font-family="Palatino-Bold,Palatino" font-weight="bold" font-size="31.9" fill="#000000" transform="matrix(1.00, 0.00, -0.00, -1.00, 368.9, 93.7)">n</text><text xml:space="preserve" font-family="Palatino-Bold,Palatino" font-weight="bold" font-size="31.9" fill="#000000" transform="matrix(1.00, 0.00, -0.00, -1.00, 388.4, 93.7)"> </text><text xml:space="preserve" font-family="Palatino-Bold,Palatino" font-weight="bold" font-size="31.9" fill="#000000" transform="matrix(1.00, 0.00, -0.00, -1.00, 396.3, 93.7)">c</text><text xml:space="preserve" font-family="Palatino-Bold,Palatino" font-weight="bold" font-size="31.9" fill="#000000" transform="matrix(1.00, 0.00, -0.00, -1.00, 410.5, 93.7)">r</text><text xml:space="preserve" font-family="Palatino-Bold,Palatino" font-weight="bold" font-size="31.9" fill="#000000" transform="matrix(1.00, 0.00, -0.00, -1.00, 422.9, 93.7)">i</text><text xml:space="preserve" font-family="Palatino-Bold,Palatino" font-weight="bold" font-size="31.9" fill="#000000" transform="matrix(1.00, 0.00, -0.00, -1.00, 433.6, 93.7)">m</text><text xml:space="preserve" font-family="Palatino-Bold,Palatino" font-weight="bold" font-size="31.9" fill="#000000" transform="matrix(1.00, 0.00, -0.00, -1.00, 461.9, 93.7)">e</text><text xml:space="preserve" font-family="Palatino-Bold,Palatino" font-weight="bold" font-size="31.9" fill="#000000" transform="matrix(1.00, 0.00, -0.00, -1.00, 477.9, 93.7)"> </text><text xml:space="preserve" font-family="Palatino-Bold,Palatino" font-weight="bold" font-size="31.9" fill="#000000" transform="matrix(1.00, 0.00, -0.00, -1.00, 65.6, 51.7)">a</text><text xml:space="preserve" font-family="Palatino-Bold,Palatino" font-weight="bold" font-size="31.9" fill="#000000" transform="matrix(1.00, 0.00, -0.00, -1.00, 81.6, 51.7)">n</text><text xml:space="preserve" font-family="Palatino-Bold,Palatino" font-weight="bold" font-size="31.9" fill="#000000" transform="matrix(1.00, 0.00, -0.00, -1.00, 101.1, 51.7)">d</text><text xml:space="preserve" font-family="Palatino-Bold,Palatino" font-weight="bold" font-size="31.9" fill="#000000" transform="matrix(1.00, 0.00, -0.00, -1.00, 120.5, 51.7)"> </text><text xml:space="preserve" font-family="Palatino-Bold,Palatino" font-weight="bold" font-size="31.9" fill="#000000" transform="matrix(1.00, 0.00, -0.00, -1.00, 128.5, 51.7)">p</text><text xml:space="preserve" font-family="Palatino-Bold,Palatino" font-weight="bold" font-size="31.9" fill="#000000" transform="matrix(1.00, 0.00, -0.00, -1.00, 148.0, 51.7)">r</text><text xml:space="preserve" font-family="Palatino-Bold,Palatino" font-weight="bold" font-size="31.9" fill="#000000" transform="matrix(1.00, 0.00, -0.00, -1.00, 160.4, 51.7)">i</text><text xml:space="preserve" font-family="Palatino-Bold,Palatino" font-weight="bold" font-size="31.9" fill="#000000" transform="matrix(1.00, 0.00, -0.00, -1.00, 171.1, 51.7)">c</text><text xml:space="preserve" font-family="Palatino-Bold,Palatino" font-weight="bold" font-size="31.9" fill="#000000" transform="matrix(1.00, 0.00, -0.00, -1.00, 185.2, 51.7)">e</text><text xml:space="preserve" font-family="Palatino-Bold,Palatino" font-weight="bold" font-size="31.9" fill="#000000" transform="matrix(1.00, 0.00, -0.00, -1.00, 201.2, 51.7)">s</text><text xml:space="preserve" font-family="Palatino-Bold,Palatino" font-weight="bold" font-size="30.0" fill="#324763" transform="matrix(1.00, 0.00, -0.00, -1.00, 546.6, 101.3)">M</text><text xml:space="preserve" font-family="Palatino-Bold,Palatino" font-weight="bold" font-size="30.0" fill="#324763" transform="matrix(1.00, 0.00, -0.00, -1.00, 576.6, 101.3)">A</text><text xml:space="preserve" font-family="Palatino-Bold,Palatino" font-weight="bold" font-size="30.0" fill="#324763" transform="matrix(1.00, 0.00, -0.00, -1.00, 599.9, 101.3)">X</text><text xml:space="preserve" font-family="Palatino-Bold,Palatino" font-weight="bold" font-size="30.0" fill="#324763" transform="matrix(1.00, 0.00, -0.00, -1.00, 619.9, 101.3)">I</text><text xml:space="preserve" font-family="Palatino-Bold,Palatino" font-weight="bold" font-size="30.0" fill="#324763" transform="matrix(1.00, 0.00, -0.00, -1.00, 631.6, 101.3)">M</text><text xml:space="preserve" font-family="Palatino-Bold,Palatino" font-weight="bold" font-size="30.0" fill="#324763" transform="matrix(1.00, 0.00, -0.00, -1.00, 661.6, 101.3)">U</text><text xml:space="preserve" font-family="Palatino-Bold,Palatino" font-weight="bold" font-size="30.0" fill="#324763" transform="matrix(1.00, 0.00, -0.00, -1.00, 685.0, 101.3)">M</text><text xml:space="preserve" font-family="Palatino-Bold,Palatino" font-weight="bold" font-size="30.0" fill="#324763" transform="matrix(1.00, 0.00, -0.00, -1.00, 715.0, 101.3)"> </text><text xml:space="preserve" font-family="Palatino-Bold,Palatino" font-weight="bold" font-size="30.0" fill="#C25F61" transform="matrix(1.00, 0.00, -0.00, -1.00, 722.5, 101.3)">P</text><text xml:space="preserve" font-family="Palatino-Bold,Palatino" font-weight="bold" font-size="30.0" fill="#C25F61" transform="matrix(1.00, 0.00, -0.00, -1.00, 740.8, 101.3)">R</text><text xml:space="preserve" font-family="Palatino-Bold,Palatino" font-weight="bold" font-size="30.0" fill="#C25F61" transform="matrix(1.00, 0.00, -0.00, -1.00, 762.4, 101.3)">E</text><text xml:space="preserve" font-family="Palatino-Bold,Palatino" font-weight="bold" font-size="30.0" fill="#C25F61" transform="matrix(1.00, 0.00, -0.00, -1.00, 780.8, 101.3)">D</text><text xml:space="preserve" font-family="Palatino-Bold,Palatino" font-weight="bold" font-size="30.0" fill="#C25F61" transform="matrix(1.00, 0.00, -0.00, -1.00, 805.8, 101.3)">I</text><text xml:space="preserve" font-family="Palatino-Bold,Palatino" font-weight="bold" font-size="30.0" fill="#C25F61" transform="matrix(1.00, 0.00, -0.00, -1.00, 817.4, 101.3)">C</text><text xml:space="preserve" font-family="Palatino-Bold,Palatino" font-weight="bold" font-size="30.0" fill="#C25F61" transform="matrix(1.00, 0.00, -0.00, -1.00, 839.1, 101.3)">T</text><text xml:space="preserve" font-family="Palatino-Bold,Palatino" font-weight="bold" font-size="30.0" fill="#C25F61" transform="matrix(1.00, 0.00, -0.00, -1.00, 856.4, 101.3)">A</text><text xml:space="preserve" font-family="Palatino-Bold,Palatino" font-weight="bold" font-size="30.0" fill="#C25F61" transform="matrix(1.00, 0.00, -0.00, -1.00, 879.7, 101.3)">B</text><text xml:space="preserve" font-family="Palatino-Bold,Palatino" font-weight="bold" font-size="30.0" fill="#C25F61" transform="matrix(1.00, 0.00, -0.00, -1.00, 899.7, 101.3)">I</text><text xml:space="preserve" font-family="Palatino-Bold,Palatino" font-weight="bold" font-size="30.0" fill="#C25F61" transform="matrix(1.00, 0.00, -0.00, -1.00, 911.4, 101.3)">L</text><text xml:space="preserve" font-family="Palatino-Bold,Palatino" font-weight="bold" font-size="30.0" fill="#C25F61" transform="matrix(1.00, 0.00, -0.00, -1.00, 929.7, 101.3)">I</text><text xml:space="preserve" font-family="Palatino-Bold,Palatino" font-weight="bold" font-size="30.0" fill="#C25F61" transform="matrix(1.00, 0.00, -0.00, -1.00, 941.4, 101.3)">T</text><text xml:space="preserve" font-family="Palatino-Bold,Palatino" font-weight="bold" font-size="30.0" fill="#C25F61" transform="matrix(1.00, 0.00, -0.00, -1.00, 961.4, 101.3)">Y</text><text xml:space="preserve" font-family="Palatino-Bold,Palatino" font-weight="bold" font-size="30.0" fill="#C25F61" transform="matrix(1.00, 0.00, -0.00, -1.00, 981.4, 101.3)"> </text><text xml:space="preserve" font-family="Palatino-Bold,Palatino" font-weight="bold" font-size="30.0" fill="#324763" transform="matrix(1.00, 0.00, -0.00, -1.00, 988.9, 101.3)"> </text><text xml:space="preserve" font-family="Palatino-Bold,Palatino" font-weight="bold" font-size="30.0" fill="#324763" transform="matrix(1.00, 0.00, -0.00, -1.00, 657.1, 61.3)">A</text><text xml:space="preserve" font-family="Palatino-Bold,Palatino" font-weight="bold" font-size="30.0" fill="#324763" transform="matrix(1.00, 0.00, -0.00, -1.00, 677.6, 61.3)">T</text><text xml:space="preserve" font-family="Palatino-Bold,Palatino" font-weight="bold" font-size="30.0" fill="#324763" transform="matrix(1.00, 0.00, -0.00, -1.00, 697.6, 61.3)"> </text><text xml:space="preserve" font-family="Palatino-Bold,Palatino" font-weight="bold" font-size="30.0" fill="#324763" transform="matrix(1.00, 0.00, -0.00, -1.00, 705.1, 61.3)">3</text><text xml:space="preserve" font-family="Palatino-Bold,Palatino" font-weight="bold" font-size="30.0" fill="#324763" transform="matrix(1.00, 0.00, -0.00, -1.00, 720.1, 61.3)"> </text><text xml:space="preserve" font-family="Palatino-Bold,Palatino" font-weight="bold" font-size="30.0" fill="#324763" transform="matrix(1.00, 0.00, -0.00, -1.00, 727.6, 61.3)">M</text><text xml:space="preserve" font-family="Palatino-Bold,Palatino" font-weight="bold" font-size="30.0" fill="#324763" transform="matrix(1.00, 0.00, -0.00, -1.00, 757.6, 61.3)">O</text><text xml:space="preserve" font-family="Palatino-Bold,Palatino" font-weight="bold" font-size="30.0" fill="#324763" transform="matrix(1.00, 0.00, -0.00, -1.00, 782.6, 61.3)">N</text><text xml:space="preserve" font-family="Palatino-Bold,Palatino" font-weight="bold" font-size="30.0" fill="#324763" transform="matrix(1.00, 0.00, -0.00, -1.00, 807.6, 61.3)">T</text><text xml:space="preserve" font-family="Palatino-Bold,Palatino" font-weight="bold" font-size="30.0" fill="#324763" transform="matrix(1.00, 0.00, -0.00, -1.00, 827.6, 61.3)">H</text><text xml:space="preserve" font-family="Palatino-Bold,Palatino" font-weight="bold" font-size="30.0" fill="#324763" transform="matrix(1.00, 0.00, -0.00, -1.00, 852.6, 61.3)">S</text></g></svg>