<?xml version="1.0" encoding="UTF-8" standalone="no"?><svg xmlns="http://www.w3.org/2000/svg" xmlns:xlink="http://www.w3.org/1999/xlink" clip-rule="evenodd" stroke-miterlimit="10" viewBox="0 0 340 76"><desc>SVG generated by Keynote</desc><defs></defs><g transform="matrix(1.00, 0.00, -0.00, -1.00, 0.0, 76.0)"><image xlink:href="CC7366385AC282D6A9B342F8A75D0D61.png" width="80.00" height="80.00" transform="matrix(0.20, 0.00, -0.00, -0.20, 0.0, 70.2)"></image><text xml:space="preserve" font-family="Palatino-Bold,Palatino" font-weight="bold" font-size="31.9" fill="#000000" transform="matrix(1.00, 0.00, -0.00, -1.00, 33.6, 51.6)">S</text><text xml:space="preserve" font-family="Palatino-Bold,Palatino" font-weight="bold" font-size="31.9" fill="#000000" transform="matrix(1.00, 0.00, -0.00, -1.00, 53.1, 51.6)">i</text><text xml:space="preserve" font-family="Palatino-Bold,Palatino" font-weight="bold" font-size="31.9" fill="#000000" transform="matrix(1.00, 0.00, -0.00, -1.00, 63.7, 51.6)">z</text><text xml:space="preserve" font-family="Palatino-Bold,Palatino" font-weight="bold" font-size="31.9" fill="#000000" transform="matrix(1.00, 0.00, -0.00, -1.00, 79.7, 51.6)">e</text><text xml:space="preserve" font-family="Palatino-Bold,Palatino" font-weight="bold" font-size="31.9" fill="#000000" transform="matrix(1.00, 0.00, -0.00, -1.00, 95.6, 51.6)"> </text><text xml:space="preserve" font-family="Palatino-Bold,Palatino" font-weight="bold" font-size="31.9" fill="#000000" transform="matrix(1.00, 0.00, -0.00, -1.00, 103.6, 51.6)">o</text><text xml:space="preserve" font-family="Palatino-Bold,Palatino" font-weight="bold" font-size="31.9" fill="#000000" transform="matrix(1.00, 0.00, -0.00, -1.00, 121.4, 51.6)">f</text><text xml:space="preserve" font-family="Palatino-Bold,Palatino" font-weight="bold" font-size="31.9" fill="#000000" transform="matrix(1.00, 0.00, -0.00, -1.00, 133.8, 51.6)"> </text><text xml:space="preserve" font-family="Palatino-Bold,Palatino" font-weight="bold" font-size="31.9" fill="#000000" transform="matrix(1.00, 0.00, -0.00, -1.00, 141.8, 51.6)">G</text><text xml:space="preserve" font-family="Palatino-Bold,Palatino" font-weight="bold" font-size="31.9" fill="#000000" transform="matrix(1.00, 0.00, -0.00, -1.00, 168.4, 51.6)">e</text><text xml:space="preserve" font-family="Palatino-Bold,Palatino" font-weight="bold" font-size="31.9" fill="#000000" transform="matrix(1.00, 0.00, -0.00, -1.00, 184.3, 51.6)">o</text><text xml:space="preserve" font-family="Palatino-Bold,Palatino" font-weight="bold" font-size="31.9" fill="#000000" transform="matrix(1.00, 0.00, -0.00, -1.00, 202.1, 51.6)">g</text><text xml:space="preserve" font-family="Palatino-Bold,Palatino" font-weight="bold" font-size="31.9" fill="#000000" transform="matrix(1.00, 0.00, -0.00, -1.00, 219.9, 51.6)">r</text><text xml:space="preserve" font-family="Palatino-Bold,Palatino" font-weight="bold" font-size="31.9" fill="#000000" transform="matrix(1.00, 0.00, -0.00, -1.00, 232.3, 51.6)">a</text><text xml:space="preserve" font-family="Palatino-Bold,Palatino" font-weight="bold" font-size="31.9" fill="#000000" transform="matrix(1.00, 0.00, -0.00, -1.00, 248.2, 51.6)">p</text><text xml:space="preserve" font-family="Palatino-Bold,Palatino" font-weight="bold" font-size="31.9" fill="#000000" transform="matrix(1.00, 0.00, -0.00, -1.00, 267.7, 51.6)">h</text><text xml:space="preserve" font-family="Palatino-Bold,Palatino" font-weight="bold" font-size="31.9" fill="#000000" transform="matrix(1.00, 0.00, -0.00, -1.00, 287.2, 51.6)">i</text><text xml:space="preserve" font-family="Palatino-Bold,Palatino" font-weight="bold" font-size="31.9" fill="#000000" transform="matrix(1.00, 0.00, -0.00, -1.00, 297.9, 51.6)">c</text><text xml:space="preserve" font-family="Palatino-Bold,Palatino" font-weight="bold" font-size="31.9" fill="#000000" transform="matrix(1.00, 0.00, -0.00, -1.00, 312.0, 51.6)">a</text><text xml:space="preserve" font-family="Palatino-Bold,Palatino" font-weight="bold" font-size="31.9" fill="#000000" transform="matrix(1.00, 0.00, -0.00, -1.00, 328.0, 51.6)">l</text><text xml:space="preserve" font-family="Palatino-Bold,Palatino" font-weight="bold" font-size="31.9" fill="#000000" transform="matrix(1.00, 0.00, -0.00, -1.00, 338.6, 51.6)"> </text><text xml:space="preserve" font-family="Palatino-Bold,Palatino" font-weight="bold" font-size="31.9" fill="#000000" transform="matrix(1.00, 0.00, -0.00, -1.00, 33.6, 9.6)">S</text><text xml:space="preserve" font-family="Palatino-Bold,Palatino" font-weight="bold" font-size="31.9" fill="#000000" transform="matrix(1.00, 0.00, -0.00, -1.00, 53.1, 9.6)">e</text><text xml:space="preserve" font-family="Palatino-Bold,Palatino" font-weight="bold" font-size="31.9" fill="#000000" transform="matrix(1.00, 0.00, -0.00, -1.00, 69.1, 9.6)">g</text><text xml:space="preserve" font-family="Palatino-Bold,Palatino" font-weight="bold" font-size="31.9" fill="#000000" transform="matrix(1.00, 0.00, -0.00, -1.00, 86.8, 9.6)">m</text><text xml:space="preserve" font-family="Palatino-Bold,Palatino" font-weight="bold" font-size="31.9" fill="#000000" transform="matrix(1.00, 0.00, -0.00, -1.00, 115.2, 9.6)">e</text><text xml:space="preserve" font-family="Palatino-Bold,Palatino" font-weight="bold" font-size="31.9" fill="#000000" transform="matrix(1.00, 0.00, -0.00, -1.00, 131.2, 9.6)">n</text><text xml:space="preserve" font-family="Palatino-Bold,Palatino" font-weight="bold" font-size="31.9" fill="#000000" transform="matrix(1.00, 0.00, -0.00, -1.00, 150.7, 9.6)">t</text><text xml:space="preserve" font-family="Palatino-Bold,Palatino" font-weight="bold" font-size="31.9" fill="#000000" transform="matrix(1.00, 0.00, -0.00, -1.00, 161.3, 9.6)">a</text><text xml:space="preserve" font-family="Palatino-Bold,Palatino" font-weight="bold" font-size="31.9" fill="#000000" transform="matrix(1.00, 0.00, -0.00, -1.00, 177.2, 9.6)">t</text><text xml:space="preserve" font-family="Palatino-Bold,Palatino" font-weight="bold" font-size="31.9" fill="#000000" transform="matrix(1.00, 0.00, -0.00, -1.00, 187.9, 9.6)">i</text><text xml:space="preserve" font-family="Palatino-Bold,Palatino" font-weight="bold" font-size="31.9" fill="#000000" transform="matrix(1.00, 0.00, -0.00, -1.00, 198.5, 9.6)">o</text><text xml:space="preserve" font-family="Palatino-Bold,Palatino" font-weight="bold" font-size="31.9" fill="#000000" transform="matrix(1.00, 0.00, -0.00, -1.00, 216.3, 9.6)">n</text></g></svg>