<?xml version="1.0" encoding="UTF-8" standalone="no"?><svg xmlns="http://www.w3.org/2000/svg" xmlns:xlink="http://www.w3.org/1999/xlink" clip-rule="evenodd" stroke-miterlimit="10" viewBox="0 0 444 77"><desc>SVG generated by Keynote</desc><defs></defs><g transform="matrix(1.00, 0.00, -0.00, -1.00, 0.0, 77.0)"><image xlink:href="../../7E4A20B1-28CC-4B4D-AFDB-541E4FF0A55A/assets/CC7366385AC282D6A9B342F8A75D0D61.png" width="80.00" height="80.00" transform="matrix(0.20, 0.00, -0.00, -0.20, 0.0, 70.6)"></image><text xml:space="preserve" font-family="Palatino-Bold,Palatino" font-weight="bold" font-size="31.9" fill="#000000" transform="matrix(1.00, 0.00, -0.00, -1.00, 33.6, 52.0)">C</text><text xml:space="preserve" font-family="Palatino-Bold,Palatino" font-weight="bold" font-size="31.9" fill="#000000" transform="matrix(1.00, 0.00, -0.00, -1.00, 56.7, 52.0)">r</text><text xml:space="preserve" font-family="Palatino-Bold,Palatino" font-weight="bold" font-size="31.9" fill="#000000" transform="matrix(1.00, 0.00, -0.00, -1.00, 69.1, 52.0)">i</text><text xml:space="preserve" font-family="Palatino-Bold,Palatino" font-weight="bold" font-size="31.9" fill="#000000" transform="matrix(1.00, 0.00, -0.00, -1.00, 79.7, 52.0)">m</text><text xml:space="preserve" font-family="Palatino-Bold,Palatino" font-weight="bold" font-size="31.9" fill="#000000" transform="matrix(1.00, 0.00, -0.00, -1.00, 108.1, 52.0)">e</text><text xml:space="preserve" font-family="Palatino-Bold,Palatino" font-weight="bold" font-size="31.9" fill="#000000" transform="matrix(1.00, 0.00, -0.00, -1.00, 124.1, 52.0)">-</text><text xml:space="preserve" font-family="Palatino-Bold,Palatino" font-weight="bold" font-size="31.9" fill="#000000" transform="matrix(1.00, 0.00, -0.00, -1.00, 134.7, 52.0)">t</text><text xml:space="preserve" font-family="Palatino-Bold,Palatino" font-weight="bold" font-size="31.9" fill="#000000" transform="matrix(1.00, 0.00, -0.00, -1.00, 145.3, 52.0)">y</text><text xml:space="preserve" font-family="Palatino-Bold,Palatino" font-weight="bold" font-size="31.9" fill="#000000" transform="matrix(1.00, 0.00, -0.00, -1.00, 163.1, 52.0)">p</text><text xml:space="preserve" font-family="Palatino-Bold,Palatino" font-weight="bold" font-size="31.9" fill="#000000" transform="matrix(1.00, 0.00, -0.00, -1.00, 182.6, 52.0)">e</text><text xml:space="preserve" font-family="Palatino-Bold,Palatino" font-weight="bold" font-size="31.9" fill="#000000" transform="matrix(1.00, 0.00, -0.00, -1.00, 198.5, 52.0)"> </text><text xml:space="preserve" font-family="Palatino-Bold,Palatino" font-weight="bold" font-size="31.9" fill="#000000" transform="matrix(1.00, 0.00, -0.00, -1.00, 206.5, 52.0)">t</text><text xml:space="preserve" font-family="Palatino-Bold,Palatino" font-weight="bold" font-size="31.9" fill="#000000" transform="matrix(1.00, 0.00, -0.00, -1.00, 217.1, 52.0)">o</text><text xml:space="preserve" font-family="Palatino-Bold,Palatino" font-weight="bold" font-size="31.9" fill="#000000" transform="matrix(1.00, 0.00, -0.00, -1.00, 234.9, 52.0)"> </text><text xml:space="preserve" font-family="Palatino-Bold,Palatino" font-weight="bold" font-size="31.9" fill="#000000" transform="matrix(1.00, 0.00, -0.00, -1.00, 242.9, 52.0)">u</text><text xml:space="preserve" font-family="Palatino-Bold,Palatino" font-weight="bold" font-size="31.9" fill="#000000" transform="matrix(1.00, 0.00, -0.00, -1.00, 262.4, 52.0)">s</text><text xml:space="preserve" font-family="Palatino-Bold,Palatino" font-weight="bold" font-size="31.9" fill="#000000" transform="matrix(1.00, 0.00, -0.00, -1.00, 276.5, 52.0)">e</text><text xml:space="preserve" font-family="Palatino-Bold,Palatino" font-weight="bold" font-size="31.9" fill="#000000" transform="matrix(1.00, 0.00, -0.00, -1.00, 292.5, 52.0)"> </text><text xml:space="preserve" font-family="Palatino-Bold,Palatino" font-weight="bold" font-size="31.9" fill="#000000" transform="matrix(1.00, 0.00, -0.00, -1.00, 300.5, 52.0)">(</text><text xml:space="preserve" font-family="Palatino-Bold,Palatino" font-weight="bold" font-size="31.9" fill="#000000" transform="matrix(1.00, 0.00, -0.00, -1.00, 311.1, 52.0)">e</text><text xml:space="preserve" font-family="Palatino-Bold,Palatino" font-weight="bold" font-size="31.9" fill="#000000" transform="matrix(1.00, 0.00, -0.00, -1.00, 327.1, 52.0)">x</text><text xml:space="preserve" font-family="Palatino-Bold,Palatino" font-weight="bold" font-size="31.9" fill="#000000" transform="matrix(1.00, 0.00, -0.00, -1.00, 343.0, 52.0)">t</text><text xml:space="preserve" font-family="Palatino-Bold,Palatino" font-weight="bold" font-size="31.9" fill="#000000" transform="matrix(1.00, 0.00, -0.00, -1.00, 353.7, 52.0)">r</text><text xml:space="preserve" font-family="Palatino-Bold,Palatino" font-weight="bold" font-size="31.9" fill="#000000" transform="matrix(1.00, 0.00, -0.00, -1.00, 366.1, 52.0)">a</text><text xml:space="preserve" font-family="Palatino-Bold,Palatino" font-weight="bold" font-size="31.9" fill="#000000" transform="matrix(1.00, 0.00, -0.00, -1.00, 382.0, 52.0)"> </text><text xml:space="preserve" font-family="Palatino-Bold,Palatino" font-weight="bold" font-size="31.9" fill="#000000" transform="matrix(1.00, 0.00, -0.00, -1.00, 33.6, 10.0)">w</text><text xml:space="preserve" font-family="Palatino-Bold,Palatino" font-weight="bold" font-size="31.9" fill="#000000" transform="matrix(1.00, 0.00, -0.00, -1.00, 60.2, 10.0)">e</text><text xml:space="preserve" font-family="Palatino-Bold,Palatino" font-weight="bold" font-size="31.9" fill="#000000" transform="matrix(1.00, 0.00, -0.00, -1.00, 76.1, 10.0)">i</text><text xml:space="preserve" font-family="Palatino-Bold,Palatino" font-weight="bold" font-size="31.9" fill="#000000" transform="matrix(1.00, 0.00, -0.00, -1.00, 86.8, 10.0)">g</text><text xml:space="preserve" font-family="Palatino-Bold,Palatino" font-weight="bold" font-size="31.9" fill="#000000" transform="matrix(1.00, 0.00, -0.00, -1.00, 104.5, 10.0)">h</text><text xml:space="preserve" font-family="Palatino-Bold,Palatino" font-weight="bold" font-size="31.9" fill="#000000" transform="matrix(1.00, 0.00, -0.00, -1.00, 124.0, 10.0)">t</text><text xml:space="preserve" font-family="Palatino-Bold,Palatino" font-weight="bold" font-size="31.9" fill="#000000" transform="matrix(1.00, 0.00, -0.00, -1.00, 134.7, 10.0)">i</text><text xml:space="preserve" font-family="Palatino-Bold,Palatino" font-weight="bold" font-size="31.9" fill="#000000" transform="matrix(1.00, 0.00, -0.00, -1.00, 145.3, 10.0)">n</text><text xml:space="preserve" font-family="Palatino-Bold,Palatino" font-weight="bold" font-size="31.9" fill="#000000" transform="matrix(1.00, 0.00, -0.00, -1.00, 164.8, 10.0)">g</text><text xml:space="preserve" font-family="Palatino-Bold,Palatino" font-weight="bold" font-size="31.9" fill="#000000" transform="matrix(1.00, 0.00, -0.00, -1.00, 182.5, 10.0)"> </text><text xml:space="preserve" font-family="Palatino-Bold,Palatino" font-weight="bold" font-size="31.9" fill="#000000" transform="matrix(1.00, 0.00, -0.00, -1.00, 190.5, 10.0)">f</text><text xml:space="preserve" font-family="Palatino-Bold,Palatino" font-weight="bold" font-size="31.9" fill="#000000" transform="matrix(1.00, 0.00, -0.00, -1.00, 202.9, 10.0)">o</text><text xml:space="preserve" font-family="Palatino-Bold,Palatino" font-weight="bold" font-size="31.9" fill="#000000" transform="matrix(1.00, 0.00, -0.00, -1.00, 220.7, 10.0)">r</text><text xml:space="preserve" font-family="Palatino-Bold,Palatino" font-weight="bold" font-size="31.9" fill="#000000" transform="matrix(1.00, 0.00, -0.00, -1.00, 233.1, 10.0)"> </text><text xml:space="preserve" font-family="Palatino-Bold,Palatino" font-weight="bold" font-size="31.9" fill="#000000" transform="matrix(1.00, 0.00, -0.00, -1.00, 241.1, 10.0)">v</text><text xml:space="preserve" font-family="Palatino-Bold,Palatino" font-weight="bold" font-size="31.9" fill="#000000" transform="matrix(1.00, 0.00, -0.00, -1.00, 258.9, 10.0)">i</text><text xml:space="preserve" font-family="Palatino-Bold,Palatino" font-weight="bold" font-size="31.9" fill="#000000" transform="matrix(1.00, 0.00, -0.00, -1.00, 269.5, 10.0)">o</text><text xml:space="preserve" font-family="Palatino-Bold,Palatino" font-weight="bold" font-size="31.9" fill="#000000" transform="matrix(1.00, 0.00, -0.00, -1.00, 287.3, 10.0)">l</text><text xml:space="preserve" font-family="Palatino-Bold,Palatino" font-weight="bold" font-size="31.9" fill="#000000" transform="matrix(1.00, 0.00, -0.00, -1.00, 297.9, 10.0)">e</text><text xml:space="preserve" font-family="Palatino-Bold,Palatino" font-weight="bold" font-size="31.9" fill="#000000" transform="matrix(1.00, 0.00, -0.00, -1.00, 313.9, 10.0)">n</text><text xml:space="preserve" font-family="Palatino-Bold,Palatino" font-weight="bold" font-size="31.9" fill="#000000" transform="matrix(1.00, 0.00, -0.00, -1.00, 333.3, 10.0)">t</text><text xml:space="preserve" font-family="Palatino-Bold,Palatino" font-weight="bold" font-size="31.9" fill="#000000" transform="matrix(1.00, 0.00, -0.00, -1.00, 344.0, 10.0)"> </text><text xml:space="preserve" font-family="Palatino-Bold,Palatino" font-weight="bold" font-size="31.9" fill="#000000" transform="matrix(1.00, 0.00, -0.00, -1.00, 352.0, 10.0)">c</text><text xml:space="preserve" font-family="Palatino-Bold,Palatino" font-weight="bold" font-size="31.9" fill="#000000" transform="matrix(1.00, 0.00, -0.00, -1.00, 366.1, 10.0)">r</text><text xml:space="preserve" font-family="Palatino-Bold,Palatino" font-weight="bold" font-size="31.9" fill="#000000" transform="matrix(1.00, 0.00, -0.00, -1.00, 378.5, 10.0)">i</text><text xml:space="preserve" font-family="Palatino-Bold,Palatino" font-weight="bold" font-size="31.9" fill="#000000" transform="matrix(1.00, 0.00, -0.00, -1.00, 389.2, 10.0)">m</text><text xml:space="preserve" font-family="Palatino-Bold,Palatino" font-weight="bold" font-size="31.9" fill="#000000" transform="matrix(1.00, 0.00, -0.00, -1.00, 417.6, 10.0)">e</text><text xml:space="preserve" font-family="Palatino-Bold,Palatino" font-weight="bold" font-size="31.9" fill="#000000" transform="matrix(1.00, 0.00, -0.00, -1.00, 433.5, 10.0)">)</text></g></svg>