<?xml version="1.0" encoding="UTF-8" standalone="no"?><svg xmlns="http://www.w3.org/2000/svg" xmlns:xlink="http://www.w3.org/1999/xlink" clip-rule="evenodd" stroke-miterlimit="10" viewBox="0 0 403 133"><desc>SVG generated by Keynote</desc><defs></defs><g transform="matrix(1.00, 0.00, -0.00, -1.00, 0.0, 133.0)"><g><clipPath id="clip0x7fcb2b97aed0"><path d="M 5.1 -1.1 L 635.7 -1.1 L 635.7 134.6 L 5.1 134.6 Z M 5.1 -1.1 "></path></clipPath><g clip-path="url(#clip0x7fcb2b97aed0)"><text xml:space="preserve" font-family="Palatino-Bold,Palatino" font-weight="bold" font-size="43.0" fill="#C25F61" transform="matrix(1.00, 0.00, -0.00, -1.00, 84.9, 78.7)">V</text><text xml:space="preserve" font-family="Palatino-Bold,Palatino" font-weight="bold" font-size="43.0" fill="#324763" transform="matrix(1.00, 0.00, -0.00, -1.00, 113.6, 78.7)">e</text><text xml:space="preserve" font-family="Palatino-Bold,Palatino" font-weight="bold" font-size="43.0" fill="#324763" transform="matrix(1.00, 0.00, -0.00, -1.00, 135.1, 78.7)">c</text><text xml:space="preserve" font-family="Palatino-Bold,Palatino" font-weight="bold" font-size="43.0" fill="#324763" transform="matrix(1.00, 0.00, -0.00, -1.00, 154.2, 78.7)">t</text><text xml:space="preserve" font-family="Palatino-Bold,Palatino" font-weight="bold" font-size="43.0" fill="#324763" transform="matrix(1.00, 0.00, -0.00, -1.00, 168.5, 78.7)">o</text><text xml:space="preserve" font-family="Palatino-Bold,Palatino" font-weight="bold" font-size="43.0" fill="#324763" transform="matrix(1.00, 0.00, -0.00, -1.00, 192.4, 78.7)">r</text><text xml:space="preserve" font-family="Palatino-Bold,Palatino" font-weight="bold" font-size="43.0" fill="#324763" transform="matrix(1.00, 0.00, -0.00, -1.00, 209.2, 78.7)"> </text><text xml:space="preserve" font-family="Palatino-Bold,Palatino" font-weight="bold" font-size="43.0" fill="#C25F61" transform="matrix(1.00, 0.00, -0.00, -1.00, 219.9, 78.7)">A</text><text xml:space="preserve" font-family="Palatino-Bold,Palatino" font-weight="bold" font-size="43.0" fill="#324763" transform="matrix(1.00, 0.00, -0.00, -1.00, 253.3, 78.7)">u</text><text xml:space="preserve" font-family="Palatino-Bold,Palatino" font-weight="bold" font-size="43.0" fill="#324763" transform="matrix(1.00, 0.00, -0.00, -1.00, 279.6, 78.7)">t</text><text xml:space="preserve" font-family="Palatino-Bold,Palatino" font-weight="bold" font-size="43.0" fill="#324763" transform="matrix(1.00, 0.00, -0.00, -1.00, 293.9, 78.7)">o</text><text xml:space="preserve" font-family="Palatino-Bold,Palatino" font-weight="bold" font-size="43.0" fill="#C25F61" transform="matrix(1.00, 0.00, -0.00, -1.00, 22.8, 22.7)">R</text><text xml:space="preserve" font-family="Palatino-Bold,Palatino" font-weight="bold" font-size="43.0" fill="#324763" transform="matrix(1.00, 0.00, -0.00, -1.00, 53.9, 22.7)">e</text><text xml:space="preserve" font-family="Palatino-Bold,Palatino" font-weight="bold" font-size="43.0" fill="#324763" transform="matrix(1.00, 0.00, -0.00, -1.00, 75.4, 22.7)">g</text><text xml:space="preserve" font-family="Palatino-Bold,Palatino" font-weight="bold" font-size="43.0" fill="#324763" transform="matrix(1.00, 0.00, -0.00, -1.00, 99.3, 22.7)">r</text><text xml:space="preserve" font-family="Palatino-Bold,Palatino" font-weight="bold" font-size="43.0" fill="#324763" transform="matrix(1.00, 0.00, -0.00, -1.00, 116.0, 22.7)">e</text><text xml:space="preserve" font-family="Palatino-Bold,Palatino" font-weight="bold" font-size="43.0" fill="#324763" transform="matrix(1.00, 0.00, -0.00, -1.00, 137.5, 22.7)">s</text><text xml:space="preserve" font-family="Palatino-Bold,Palatino" font-weight="bold" font-size="43.0" fill="#324763" transform="matrix(1.00, 0.00, -0.00, -1.00, 156.6, 22.7)">s</text><text xml:space="preserve" font-family="Palatino-Bold,Palatino" font-weight="bold" font-size="43.0" fill="#324763" transform="matrix(1.00, 0.00, -0.00, -1.00, 175.7, 22.7)">i</text><text xml:space="preserve" font-family="Palatino-Bold,Palatino" font-weight="bold" font-size="43.0" fill="#324763" transform="matrix(1.00, 0.00, -0.00, -1.00, 190.0, 22.7)">o</text><text xml:space="preserve" font-family="Palatino-Bold,Palatino" font-weight="bold" font-size="43.0" fill="#324763" transform="matrix(1.00, 0.00, -0.00, -1.00, 213.9, 22.7)">n</text><text xml:space="preserve" font-family="Palatino-Bold,Palatino" font-weight="bold" font-size="43.0" fill="#324763" transform="matrix(1.00, 0.00, -0.00, -1.00, 240.2, 22.7)"> </text><text xml:space="preserve" font-family="Palatino-Bold,Palatino" font-weight="bold" font-size="43.0" fill="#C25F61" transform="matrix(1.00, 0.00, -0.00, -1.00, 250.9, 22.7)">M</text><text xml:space="preserve" font-family="Palatino-Bold,Palatino" font-weight="bold" font-size="43.0" fill="#324763" transform="matrix(1.00, 0.00, -0.00, -1.00, 293.9, 22.7)">o</text><text xml:space="preserve" font-family="Palatino-Bold,Palatino" font-weight="bold" font-size="43.0" fill="#324763" transform="matrix(1.00, 0.00, -0.00, -1.00, 317.9, 22.7)">d</text><text xml:space="preserve" font-family="Palatino-Bold,Palatino" font-weight="bold" font-size="43.0" fill="#324763" transform="matrix(1.00, 0.00, -0.00, -1.00, 344.1, 22.7)">e</text><text xml:space="preserve" font-family="Palatino-Bold,Palatino" font-weight="bold" font-size="43.0" fill="#324763" transform="matrix(1.00, 0.00, -0.00, -1.00, 365.6, 22.7)">l</text><text xml:space="preserve" font-family="Palatino-Bold,Palatino" font-weight="bold" font-size="43.0" fill="#324763" transform="matrix(1.00, 0.00, -0.00, -1.00, 379.9, 22.7)"> </text></g></g><g><clipPath id="clip0x7fcb2b98f390"><path d="M 0.6 0.5 L 402.2 0.5 L 402.2 133.0 L 0.6 133.0 Z M 0.6 0.5 "></path></clipPath><g clip-path="url(#clip0x7fcb2b98f390)"><path d="M 0.0 96.3 L 0.4 28.3 C 0.4 12.7 12.7 0.0 28.3 0.0 L 365.3 0.0 C 381.0 0.0 393.4 12.7 393.4 28.3 L 393.4 96.3 C 393.4 111.9 381.0 125.0 365.3 125.0 L 28.3 125.0 C 12.7 125.0 0.0 111.9 0.0 96.3 Z M 0.0 96.3 " fill="none" stroke="#426132" stroke-width="6.00" transform="matrix(1.00, 0.00, 0.00, -1.00, 4.6, 129.0)"></path></g></g></g></svg>