<?xml version="1.0" encoding="UTF-8" standalone="no"?><svg xmlns="http://www.w3.org/2000/svg" xmlns:xlink="http://www.w3.org/1999/xlink" clip-rule="evenodd" stroke-miterlimit="10" viewBox="0 0 452 106"><desc>SVG generated by Keynote</desc><defs></defs><g transform="matrix(1.00, 0.00, -0.00, -1.00, 0.0, 106.0)"><text xml:space="preserve" font-family="Palatino-Bold,Palatino" font-weight="bold" font-size="30.0" fill="#324763" transform="matrix(1.00, 0.00, -0.00, -1.00, 9.2, 83.3)">S</text><text xml:space="preserve" font-family="Palatino-Bold,Palatino" font-weight="bold" font-size="30.0" fill="#324763" transform="matrix(1.00, 0.00, -0.00, -1.00, 27.5, 83.3)">H</text><text xml:space="preserve" font-family="Palatino-Bold,Palatino" font-weight="bold" font-size="30.0" fill="#324763" transform="matrix(1.00, 0.00, -0.00, -1.00, 52.5, 83.3)">O</text><text xml:space="preserve" font-family="Palatino-Bold,Palatino" font-weight="bold" font-size="30.0" fill="#324763" transform="matrix(1.00, 0.00, -0.00, -1.00, 77.5, 83.3)">W</text><text xml:space="preserve" font-family="Palatino-Bold,Palatino" font-weight="bold" font-size="30.0" fill="#324763" transform="matrix(1.00, 0.00, -0.00, -1.00, 107.5, 83.3)"> </text><text xml:space="preserve" font-family="Palatino-Bold,Palatino" font-weight="bold" font-size="30.0" fill="#324763" transform="matrix(1.00, 0.00, -0.00, -1.00, 115.0, 83.3)">P</text><text xml:space="preserve" font-family="Palatino-Bold,Palatino" font-weight="bold" font-size="30.0" fill="#324763" transform="matrix(1.00, 0.00, -0.00, -1.00, 133.3, 83.3)">R</text><text xml:space="preserve" font-family="Palatino-Bold,Palatino" font-weight="bold" font-size="30.0" fill="#324763" transform="matrix(1.00, 0.00, -0.00, -1.00, 155.0, 83.3)">E</text><text xml:space="preserve" font-family="Palatino-Bold,Palatino" font-weight="bold" font-size="30.0" fill="#324763" transform="matrix(1.00, 0.00, -0.00, -1.00, 173.3, 83.3)">D</text><text xml:space="preserve" font-family="Palatino-Bold,Palatino" font-weight="bold" font-size="30.0" fill="#324763" transform="matrix(1.00, 0.00, -0.00, -1.00, 198.3, 83.3)">I</text><text xml:space="preserve" font-family="Palatino-Bold,Palatino" font-weight="bold" font-size="30.0" fill="#324763" transform="matrix(1.00, 0.00, -0.00, -1.00, 210.0, 83.3)">C</text><text xml:space="preserve" font-family="Palatino-Bold,Palatino" font-weight="bold" font-size="30.0" fill="#324763" transform="matrix(1.00, 0.00, -0.00, -1.00, 231.7, 83.3)">T</text><text xml:space="preserve" font-family="Palatino-Bold,Palatino" font-weight="bold" font-size="30.0" fill="#324763" transform="matrix(1.00, 0.00, -0.00, -1.00, 251.7, 83.3)">E</text><text xml:space="preserve" font-family="Palatino-Bold,Palatino" font-weight="bold" font-size="30.0" fill="#324763" transform="matrix(1.00, 0.00, -0.00, -1.00, 270.0, 83.3)">D</text><text xml:space="preserve" font-family="Palatino-Bold,Palatino" font-weight="bold" font-size="30.0" fill="#324763" transform="matrix(1.00, 0.00, -0.00, -1.00, 295.0, 83.3)"> </text><text xml:space="preserve" font-family="Palatino-Bold,Palatino" font-weight="bold" font-size="30.0" fill="#C25F61" transform="matrix(1.00, 0.00, -0.00, -1.00, 302.5, 83.3)">C</text><text xml:space="preserve" font-family="Palatino-Bold,Palatino" font-weight="bold" font-size="30.0" fill="#C25F61" transform="matrix(1.00, 0.00, -0.00, -1.00, 324.2, 83.3)">H</text><text xml:space="preserve" font-family="Palatino-Bold,Palatino" font-weight="bold" font-size="30.0" fill="#C25F61" transform="matrix(1.00, 0.00, -0.00, -1.00, 349.2, 83.3)">A</text><text xml:space="preserve" font-family="Palatino-Bold,Palatino" font-weight="bold" font-size="30.0" fill="#C25F61" transform="matrix(1.00, 0.00, -0.00, -1.00, 372.5, 83.3)">N</text><text xml:space="preserve" font-family="Palatino-Bold,Palatino" font-weight="bold" font-size="30.0" fill="#C25F61" transform="matrix(1.00, 0.00, -0.00, -1.00, 397.5, 83.3)">G</text><text xml:space="preserve" font-family="Palatino-Bold,Palatino" font-weight="bold" font-size="30.0" fill="#C25F61" transform="matrix(1.00, 0.00, -0.00, -1.00, 422.5, 83.3)">E</text><text xml:space="preserve" font-family="Palatino-Bold,Palatino" font-weight="bold" font-size="30.0" fill="#324763" transform="matrix(1.00, 0.00, -0.00, -1.00, 440.8, 83.3)"> </text><text xml:space="preserve" font-family="Palatino-Bold,Palatino" font-weight="bold" font-size="30.0" fill="#324763" transform="matrix(1.00, 0.00, -0.00, -1.00, 0.3, 43.3)">I</text><text xml:space="preserve" font-family="Palatino-Bold,Palatino" font-weight="bold" font-size="30.0" fill="#324763" transform="matrix(1.00, 0.00, -0.00, -1.00, 12.0, 43.3)">N</text><text xml:space="preserve" font-family="Palatino-Bold,Palatino" font-weight="bold" font-size="30.0" fill="#324763" transform="matrix(1.00, 0.00, -0.00, -1.00, 37.0, 43.3)"> </text><text xml:space="preserve" font-family="Palatino-Bold,Palatino" font-weight="bold" font-size="30.0" fill="#324763" transform="matrix(1.00, 0.00, -0.00, -1.00, 44.5, 43.3)">V</text><text xml:space="preserve" font-family="Palatino-Bold,Palatino" font-weight="bold" font-size="30.0" fill="#324763" transform="matrix(1.00, 0.00, -0.00, -1.00, 63.9, 43.3)">A</text><text xml:space="preserve" font-family="Palatino-Bold,Palatino" font-weight="bold" font-size="30.0" fill="#324763" transform="matrix(1.00, 0.00, -0.00, -1.00, 87.3, 43.3)">L</text><text xml:space="preserve" font-family="Palatino-Bold,Palatino" font-weight="bold" font-size="30.0" fill="#324763" transform="matrix(1.00, 0.00, -0.00, -1.00, 105.6, 43.3)">U</text><text xml:space="preserve" font-family="Palatino-Bold,Palatino" font-weight="bold" font-size="30.0" fill="#324763" transform="matrix(1.00, 0.00, -0.00, -1.00, 128.9, 43.3)">E</text><text xml:space="preserve" font-family="Palatino-Bold,Palatino" font-weight="bold" font-size="30.0" fill="#324763" transform="matrix(1.00, 0.00, -0.00, -1.00, 147.2, 43.3)"> </text><text xml:space="preserve" font-family="Palatino-Bold,Palatino" font-weight="bold" font-size="30.0" fill="#324763" transform="matrix(1.00, 0.00, -0.00, -1.00, 154.7, 43.3)">B</text><text xml:space="preserve" font-family="Palatino-Bold,Palatino" font-weight="bold" font-size="30.0" fill="#324763" transform="matrix(1.00, 0.00, -0.00, -1.00, 174.7, 43.3)">A</text><text xml:space="preserve" font-family="Palatino-Bold,Palatino" font-weight="bold" font-size="30.0" fill="#324763" transform="matrix(1.00, 0.00, -0.00, -1.00, 198.1, 43.3)">S</text><text xml:space="preserve" font-family="Palatino-Bold,Palatino" font-weight="bold" font-size="30.0" fill="#324763" transform="matrix(1.00, 0.00, -0.00, -1.00, 216.4, 43.3)">E</text><text xml:space="preserve" font-family="Palatino-Bold,Palatino" font-weight="bold" font-size="30.0" fill="#324763" transform="matrix(1.00, 0.00, -0.00, -1.00, 234.7, 43.3)">D</text><text xml:space="preserve" font-family="Palatino-Bold,Palatino" font-weight="bold" font-size="30.0" fill="#324763" transform="matrix(1.00, 0.00, -0.00, -1.00, 259.7, 43.3)"> </text><text xml:space="preserve" font-family="Palatino-Bold,Palatino" font-weight="bold" font-size="30.0" fill="#324763" transform="matrix(1.00, 0.00, -0.00, -1.00, 267.2, 43.3)">O</text><text xml:space="preserve" font-family="Palatino-Bold,Palatino" font-weight="bold" font-size="30.0" fill="#324763" transform="matrix(1.00, 0.00, -0.00, -1.00, 292.2, 43.3)">N</text><text xml:space="preserve" font-family="Palatino-Bold,Palatino" font-weight="bold" font-size="30.0" fill="#324763" transform="matrix(1.00, 0.00, -0.00, -1.00, 317.2, 43.3)"> </text><text xml:space="preserve" font-family="Palatino-Bold,Palatino" font-weight="bold" font-size="30.0" fill="#324763" transform="matrix(1.00, 0.00, -0.00, -1.00, 324.7, 43.3)">R</text><text xml:space="preserve" font-family="Palatino-Bold,Palatino" font-weight="bold" font-size="30.0" fill="#324763" transform="matrix(1.00, 0.00, -0.00, -1.00, 346.3, 43.3)">E</text><text xml:space="preserve" font-family="Palatino-Bold,Palatino" font-weight="bold" font-size="30.0" fill="#324763" transform="matrix(1.00, 0.00, -0.00, -1.00, 364.7, 43.3)">C</text><text xml:space="preserve" font-family="Palatino-Bold,Palatino" font-weight="bold" font-size="30.0" fill="#324763" transform="matrix(1.00, 0.00, -0.00, -1.00, 386.3, 43.3)">E</text><text xml:space="preserve" font-family="Palatino-Bold,Palatino" font-weight="bold" font-size="30.0" fill="#324763" transform="matrix(1.00, 0.00, -0.00, -1.00, 404.7, 43.3)">N</text><text xml:space="preserve" font-family="Palatino-Bold,Palatino" font-weight="bold" font-size="30.0" fill="#324763" transform="matrix(1.00, 0.00, -0.00, -1.00, 429.6, 43.3)">T</text><text xml:space="preserve" font-family="Palatino-Bold,Palatino" font-weight="bold" font-size="30.0" fill="#324763" transform="matrix(1.00, 0.00, -0.00, -1.00, 449.7, 43.3)"> </text><text xml:space="preserve" font-family="Palatino-Bold,Palatino" font-weight="bold" font-size="30.0" fill="#324763" transform="matrix(1.00, 0.00, -0.00, -1.00, 114.0, 3.3)">C</text><text xml:space="preserve" font-family="Palatino-Bold,Palatino" font-weight="bold" font-size="30.0" fill="#324763" transform="matrix(1.00, 0.00, -0.00, -1.00, 135.7, 3.3)">R</text><text xml:space="preserve" font-family="Palatino-Bold,Palatino" font-weight="bold" font-size="30.0" fill="#324763" transform="matrix(1.00, 0.00, -0.00, -1.00, 157.3, 3.3)">I</text><text xml:space="preserve" font-family="Palatino-Bold,Palatino" font-weight="bold" font-size="30.0" fill="#324763" transform="matrix(1.00, 0.00, -0.00, -1.00, 169.0, 3.3)">M</text><text xml:space="preserve" font-family="Palatino-Bold,Palatino" font-weight="bold" font-size="30.0" fill="#324763" transform="matrix(1.00, 0.00, -0.00, -1.00, 199.0, 3.3)">E</text><text xml:space="preserve" font-family="Palatino-Bold,Palatino" font-weight="bold" font-size="30.0" fill="#324763" transform="matrix(1.00, 0.00, -0.00, -1.00, 217.3, 3.3)"> </text><text xml:space="preserve" font-family="Palatino-Bold,Palatino" font-weight="bold" font-size="30.0" fill="#324763" transform="matrix(1.00, 0.00, -0.00, -1.00, 224.8, 3.3)">D</text><text xml:space="preserve" font-family="Palatino-Bold,Palatino" font-weight="bold" font-size="30.0" fill="#324763" transform="matrix(1.00, 0.00, -0.00, -1.00, 249.8, 3.3)">A</text><text xml:space="preserve" font-family="Palatino-Bold,Palatino" font-weight="bold" font-size="30.0" fill="#324763" transform="matrix(1.00, 0.00, -0.00, -1.00, 270.4, 3.3)">T</text><text xml:space="preserve" font-family="Palatino-Bold,Palatino" font-weight="bold" font-size="30.0" fill="#324763" transform="matrix(1.00, 0.00, -0.00, -1.00, 287.7, 3.3)">A</text><text xml:space="preserve" font-family="Palatino-Bold,Palatino" font-weight="bold" font-size="30.0" fill="#324763" transform="matrix(1.00, 0.00, -0.00, -1.00, 311.0, 3.3)">!</text><text xml:space="preserve" font-family="Palatino-Bold,Palatino" font-weight="bold" font-size="30.0" fill="#324763" transform="matrix(1.00, 0.00, -0.00, -1.00, 319.3, 3.3)">!</text><text xml:space="preserve" font-family="Palatino-Bold,Palatino" font-weight="bold" font-size="30.0" fill="#324763" transform="matrix(1.00, 0.00, -0.00, -1.00, 327.7, 3.3)">!</text></g></svg>