<?xml version="1.0" encoding="UTF-8" standalone="no"?><svg xmlns="http://www.w3.org/2000/svg" xmlns:xlink="http://www.w3.org/1999/xlink" clip-rule="evenodd" stroke-miterlimit="10" viewBox="0 0 447 270"><desc>SVG generated by Keynote</desc><defs></defs><g transform="matrix(1.00, 0.00, -0.00, -1.00, 0.0, 270.0)"><text xml:space="preserve" font-family="Palatino-Roman,Palatino" font-size="30.0" fill="#A53234" transform="matrix(1.00, 0.00, -0.00, -1.00, 5.4, 245.3)">W</text><text xml:space="preserve" font-family="Palatino-Roman,Palatino" font-size="30.0" fill="#A53234" transform="matrix(1.00, 0.00, -0.00, -1.00, 35.4, 245.3)">h</text><text xml:space="preserve" font-family="Palatino-Roman,Palatino" font-size="30.0" fill="#A53234" transform="matrix(1.00, 0.00, -0.00, -1.00, 52.8, 245.3)">e</text><text xml:space="preserve" font-family="Palatino-Roman,Palatino" font-size="30.0" fill="#A53234" transform="matrix(1.00, 0.00, -0.00, -1.00, 67.2, 245.3)">r</text><text xml:space="preserve" font-family="Palatino-Roman,Palatino" font-size="30.0" fill="#A53234" transform="matrix(1.00, 0.00, -0.00, -1.00, 78.5, 245.3)">e</text><text xml:space="preserve" font-family="Palatino-Roman,Palatino" font-size="30.0" fill="#A53234" transform="matrix(1.00, 0.00, -0.00, -1.00, 92.9, 245.3)"> </text><text xml:space="preserve" font-family="Palatino-Roman,Palatino" font-size="30.0" fill="#A53234" transform="matrix(1.00, 0.00, -0.00, -1.00, 100.4, 245.3)">c</text><text xml:space="preserve" font-family="Palatino-Roman,Palatino" font-size="30.0" fill="#A53234" transform="matrix(1.00, 0.00, -0.00, -1.00, 113.7, 245.3)">a</text><text xml:space="preserve" font-family="Palatino-Roman,Palatino" font-size="30.0" fill="#A53234" transform="matrix(1.00, 0.00, -0.00, -1.00, 128.7, 245.3)">n</text><text xml:space="preserve" font-family="Palatino-Roman,Palatino" font-size="30.0" fill="#A53234" transform="matrix(1.00, 0.00, -0.00, -1.00, 146.2, 245.3)"> </text><text xml:space="preserve" font-family="Palatino-Roman,Palatino" font-size="30.0" fill="#A53234" transform="matrix(1.00, 0.00, -0.00, -1.00, 153.7, 245.3)">I</text><text xml:space="preserve" font-family="Palatino-Roman,Palatino" font-size="30.0" fill="#A53234" transform="matrix(1.00, 0.00, -0.00, -1.00, 163.8, 245.3)"> </text><text xml:space="preserve" font-family="Palatino-Roman,Palatino" font-size="30.0" fill="#A53234" transform="matrix(1.00, 0.00, -0.00, -1.00, 171.3, 245.3)">b</text><text xml:space="preserve" font-family="Palatino-Roman,Palatino" font-size="30.0" fill="#A53234" transform="matrix(1.00, 0.00, -0.00, -1.00, 187.9, 245.3)">u</text><text xml:space="preserve" font-family="Palatino-Roman,Palatino" font-size="30.0" fill="#A53234" transform="matrix(1.00, 0.00, -0.00, -1.00, 206.0, 245.3)">y</text><text xml:space="preserve" font-family="Palatino-Roman,Palatino" font-size="30.0" fill="#A53234" transform="matrix(1.00, 0.00, -0.00, -1.00, 222.7, 245.3)"> </text><text xml:space="preserve" font-family="Palatino-Roman,Palatino" font-size="30.0" fill="#A53234" transform="matrix(1.00, 0.00, -0.00, -1.00, 230.2, 245.3)">a</text><text xml:space="preserve" font-family="Palatino-Roman,Palatino" font-size="30.0" fill="#A53234" transform="matrix(1.00, 0.00, -0.00, -1.00, 245.2, 245.3)"> </text><text xml:space="preserve" font-family="Palatino-Roman,Palatino" font-size="30.0" fill="#A53234" transform="matrix(1.00, 0.00, -0.00, -1.00, 252.7, 245.3)">h</text><text xml:space="preserve" font-family="Palatino-Roman,Palatino" font-size="30.0" fill="#A53234" transform="matrix(1.00, 0.00, -0.00, -1.00, 270.1, 245.3)">o</text><text xml:space="preserve" font-family="Palatino-Roman,Palatino" font-size="30.0" fill="#A53234" transform="matrix(1.00, 0.00, -0.00, -1.00, 286.5, 245.3)">m</text><text xml:space="preserve" font-family="Palatino-Roman,Palatino" font-size="30.0" fill="#A53234" transform="matrix(1.00, 0.00, -0.00, -1.00, 313.0, 245.3)">e</text><text xml:space="preserve" font-family="Palatino-Roman,Palatino" font-size="30.0" fill="#A53234" transform="matrix(1.00, 0.00, -0.00, -1.00, 327.3, 245.3)"> </text><text xml:space="preserve" font-family="Palatino-Roman,Palatino" font-size="30.0" fill="#A53234" transform="matrix(1.00, 0.00, -0.00, -1.00, 334.8, 245.3)">i</text><text xml:space="preserve" font-family="Palatino-Roman,Palatino" font-size="30.0" fill="#A53234" transform="matrix(1.00, 0.00, -0.00, -1.00, 343.6, 245.3)">n</text><text xml:space="preserve" font-family="Palatino-Roman,Palatino" font-size="30.0" fill="#A53234" transform="matrix(1.00, 0.00, -0.00, -1.00, 361.0, 245.3)"> </text><text xml:space="preserve" font-family="Palatino-Roman,Palatino" font-size="30.0" fill="#A53234" transform="matrix(1.00, 0.00, -0.00, -1.00, 368.5, 245.3)">a</text><text xml:space="preserve" font-family="Palatino-Roman,Palatino" font-size="30.0" fill="#A53234" transform="matrix(1.00, 0.00, -0.00, -1.00, 383.5, 245.3)">n</text><text xml:space="preserve" font-family="Palatino-Roman,Palatino" font-size="30.0" fill="#A53234" transform="matrix(1.00, 0.00, -0.00, -1.00, 401.0, 245.3)"> </text><text xml:space="preserve" font-family="Palatino-Roman,Palatino" font-size="30.0" fill="#A53234" transform="matrix(1.00, 0.00, -0.00, -1.00, 408.5, 245.3)">u</text><text xml:space="preserve" font-family="Palatino-Roman,Palatino" font-size="30.0" fill="#A53234" transform="matrix(1.00, 0.00, -0.00, -1.00, 426.6, 245.3)">p</text><text xml:space="preserve" font-family="Palatino-Roman,Palatino" font-size="30.0" fill="#A53234" transform="matrix(1.00, 0.00, -0.00, -1.00, 444.6, 245.3)"> </text><text xml:space="preserve" font-family="Palatino-Roman,Palatino" font-size="30.0" fill="#A53234" transform="matrix(1.00, 0.00, -0.00, -1.00, 42.2, 205.3)">a</text><text xml:space="preserve" font-family="Palatino-Roman,Palatino" font-size="30.0" fill="#A53234" transform="matrix(1.00, 0.00, -0.00, -1.00, 57.2, 205.3)">n</text><text xml:space="preserve" font-family="Palatino-Roman,Palatino" font-size="30.0" fill="#A53234" transform="matrix(1.00, 0.00, -0.00, -1.00, 74.6, 205.3)">d</text><text xml:space="preserve" font-family="Palatino-Roman,Palatino" font-size="30.0" fill="#A53234" transform="matrix(1.00, 0.00, -0.00, -1.00, 92.9, 205.3)"> </text><text xml:space="preserve" font-family="Palatino-Roman,Palatino" font-size="30.0" fill="#A53234" transform="matrix(1.00, 0.00, -0.00, -1.00, 100.4, 205.3)">c</text><text xml:space="preserve" font-family="Palatino-Roman,Palatino" font-size="30.0" fill="#A53234" transform="matrix(1.00, 0.00, -0.00, -1.00, 113.7, 205.3)">o</text><text xml:space="preserve" font-family="Palatino-Roman,Palatino" font-size="30.0" fill="#A53234" transform="matrix(1.00, 0.00, -0.00, -1.00, 130.1, 205.3)">m</text><text xml:space="preserve" font-family="Palatino-Roman,Palatino" font-size="30.0" fill="#A53234" transform="matrix(1.00, 0.00, -0.00, -1.00, 156.6, 205.3)">i</text><text xml:space="preserve" font-family="Palatino-Roman,Palatino" font-size="30.0" fill="#A53234" transform="matrix(1.00, 0.00, -0.00, -1.00, 165.3, 205.3)">n</text><text xml:space="preserve" font-family="Palatino-Roman,Palatino" font-size="30.0" fill="#A53234" transform="matrix(1.00, 0.00, -0.00, -1.00, 182.8, 205.3)">g</text><text xml:space="preserve" font-family="Palatino-Roman,Palatino" font-size="30.0" fill="#A53234" transform="matrix(1.00, 0.00, -0.00, -1.00, 199.5, 205.3)"> </text><text xml:space="preserve" font-family="Palatino-Roman,Palatino" font-size="30.0" fill="#A53234" transform="matrix(1.00, 0.00, -0.00, -1.00, 207.0, 205.3)">n</text><text xml:space="preserve" font-family="Palatino-Roman,Palatino" font-size="30.0" fill="#A53234" transform="matrix(1.00, 0.00, -0.00, -1.00, 224.4, 205.3)">e</text><text xml:space="preserve" font-family="Palatino-Roman,Palatino" font-size="30.0" fill="#A53234" transform="matrix(1.00, 0.00, -0.00, -1.00, 238.8, 205.3)">i</text><text xml:space="preserve" font-family="Palatino-Roman,Palatino" font-size="30.0" fill="#A53234" transform="matrix(1.00, 0.00, -0.00, -1.00, 247.5, 205.3)">g</text><text xml:space="preserve" font-family="Palatino-Roman,Palatino" font-size="30.0" fill="#A53234" transform="matrix(1.00, 0.00, -0.00, -1.00, 264.2, 205.3)">h</text><text xml:space="preserve" font-family="Palatino-Roman,Palatino" font-size="30.0" fill="#A53234" transform="matrix(1.00, 0.00, -0.00, -1.00, 281.7, 205.3)">b</text><text xml:space="preserve" font-family="Palatino-Roman,Palatino" font-size="30.0" fill="#A53234" transform="matrix(1.00, 0.00, -0.00, -1.00, 298.3, 205.3)">o</text><text xml:space="preserve" font-family="Palatino-Roman,Palatino" font-size="30.0" fill="#A53234" transform="matrix(1.00, 0.00, -0.00, -1.00, 314.7, 205.3)">r</text><text xml:space="preserve" font-family="Palatino-Roman,Palatino" font-size="30.0" fill="#A53234" transform="matrix(1.00, 0.00, -0.00, -1.00, 326.0, 205.3)">h</text><text xml:space="preserve" font-family="Palatino-Roman,Palatino" font-size="30.0" fill="#A53234" transform="matrix(1.00, 0.00, -0.00, -1.00, 343.4, 205.3)">o</text><text xml:space="preserve" font-family="Palatino-Roman,Palatino" font-size="30.0" fill="#A53234" transform="matrix(1.00, 0.00, -0.00, -1.00, 359.8, 205.3)">o</text><text xml:space="preserve" font-family="Palatino-Roman,Palatino" font-size="30.0" fill="#A53234" transform="matrix(1.00, 0.00, -0.00, -1.00, 376.2, 205.3)">d</text><text xml:space="preserve" font-family="Palatino-Roman,Palatino" font-size="30.0" fill="#A53234" transform="matrix(1.00, 0.00, -0.00, -1.00, 394.5, 205.3)">?</text><text xml:space="preserve" font-family="Palatino-Roman,Palatino" font-size="30.0" fill="#000000" transform="matrix(1.00, 0.00, -0.00, -1.00, 4.6, 49.3)">L</text><text xml:space="preserve" font-family="Palatino-Roman,Palatino" font-size="30.0" fill="#000000" transform="matrix(1.00, 0.00, -0.00, -1.00, 22.9, 49.3)">o</text><text xml:space="preserve" font-family="Palatino-Roman,Palatino" font-size="30.0" fill="#000000" transform="matrix(1.00, 0.00, -0.00, -1.00, 39.3, 49.3)">o</text><text xml:space="preserve" font-family="Palatino-Roman,Palatino" font-size="30.0" fill="#000000" transform="matrix(1.00, 0.00, -0.00, -1.00, 55.6, 49.3)">k</text><text xml:space="preserve" font-family="Palatino-Roman,Palatino" font-size="30.0" fill="#000000" transform="matrix(1.00, 0.00, -0.00, -1.00, 72.3, 49.3)"> </text><text xml:space="preserve" font-family="Palatino-Roman,Palatino" font-size="30.0" fill="#000000" transform="matrix(1.00, 0.00, -0.00, -1.00, 79.8, 49.3)">a</text><text xml:space="preserve" font-family="Palatino-Roman,Palatino" font-size="30.0" fill="#000000" transform="matrix(1.00, 0.00, -0.00, -1.00, 94.8, 49.3)">t</text><text xml:space="preserve" font-family="Palatino-Roman,Palatino" font-size="30.0" fill="#000000" transform="matrix(1.00, 0.00, -0.00, -1.00, 104.6, 49.3)"> </text><text xml:space="preserve" font-family="Palatino-Roman,Palatino" font-size="30.0" fill="#000000" transform="matrix(1.00, 0.00, -0.00, -1.00, 112.1, 49.3)">c</text><text xml:space="preserve" font-family="Palatino-Roman,Palatino" font-size="30.0" fill="#000000" transform="matrix(1.00, 0.00, -0.00, -1.00, 125.4, 49.3)">r</text><text xml:space="preserve" font-family="Palatino-Roman,Palatino" font-size="30.0" fill="#000000" transform="matrix(1.00, 0.00, -0.00, -1.00, 137.3, 49.3)">i</text><text xml:space="preserve" font-family="Palatino-Roman,Palatino" font-size="30.0" fill="#000000" transform="matrix(1.00, 0.00, -0.00, -1.00, 146.0, 49.3)">m</text><text xml:space="preserve" font-family="Palatino-Roman,Palatino" font-size="30.0" fill="#000000" transform="matrix(1.00, 0.00, -0.00, -1.00, 172.5, 49.3)">e</text><text xml:space="preserve" font-family="Palatino-Roman,Palatino" font-size="30.0" fill="#000000" transform="matrix(1.00, 0.00, -0.00, -1.00, 186.9, 49.3)"> </text><text xml:space="preserve" font-family="Palatino-Roman,Palatino" font-size="30.0" fill="#000000" transform="matrix(1.00, 0.00, -0.00, -1.00, 194.4, 49.3)">r</text><text xml:space="preserve" font-family="Palatino-Roman,Palatino" font-size="30.0" fill="#000000" transform="matrix(1.00, 0.00, -0.00, -1.00, 206.2, 49.3)">a</text><text xml:space="preserve" font-family="Palatino-Roman,Palatino" font-size="30.0" fill="#000000" transform="matrix(1.00, 0.00, -0.00, -1.00, 221.2, 49.3)">t</text><text xml:space="preserve" font-family="Palatino-Roman,Palatino" font-size="30.0" fill="#000000" transform="matrix(1.00, 0.00, -0.00, -1.00, 231.0, 49.3)">e</text><text xml:space="preserve" font-family="Palatino-Roman,Palatino" font-size="30.0" fill="#000000" transform="matrix(1.00, 0.00, -0.00, -1.00, 245.4, 49.3)">s</text><text xml:space="preserve" font-family="Palatino-Roman,Palatino" font-size="30.0" fill="#000000" transform="matrix(1.00, 0.00, -0.00, -1.00, 258.1, 49.3)"> </text><text xml:space="preserve" font-family="Palatino-Roman,Palatino" font-size="30.0" fill="#000000" transform="matrix(1.00, 0.00, -0.00, -1.00, 265.6, 49.3)">a</text><text xml:space="preserve" font-family="Palatino-Roman,Palatino" font-size="30.0" fill="#000000" transform="matrix(1.00, 0.00, -0.00, -1.00, 280.6, 49.3)">s</text><text xml:space="preserve" font-family="Palatino-Roman,Palatino" font-size="30.0" fill="#000000" transform="matrix(1.00, 0.00, -0.00, -1.00, 293.3, 49.3)"> </text><text xml:space="preserve" font-family="Palatino-Roman,Palatino" font-size="30.0" fill="#000000" transform="matrix(1.00, 0.00, -0.00, -1.00, 300.8, 49.3)">a</text><text xml:space="preserve" font-family="Palatino-Roman,Palatino" font-size="30.0" fill="#000000" transform="matrix(1.00, 0.00, -0.00, -1.00, 315.8, 49.3)"> </text><text xml:space="preserve" font-family="Palatino-Roman,Palatino" font-size="30.0" fill="#000000" transform="matrix(1.00, 0.00, -0.00, -1.00, 323.3, 49.3)">p</text><text xml:space="preserve" font-family="Palatino-Roman,Palatino" font-size="30.0" fill="#000000" transform="matrix(1.00, 0.00, -0.00, -1.00, 341.3, 49.3)">r</text><text xml:space="preserve" font-family="Palatino-Roman,Palatino" font-size="30.0" fill="#000000" transform="matrix(1.00, 0.00, -0.00, -1.00, 352.7, 49.3)">e</text><text xml:space="preserve" font-family="Palatino-Roman,Palatino" font-size="30.0" fill="#000000" transform="matrix(1.00, 0.00, -0.00, -1.00, 367.0, 49.3)">d</text><text xml:space="preserve" font-family="Palatino-Roman,Palatino" font-size="30.0" fill="#000000" transform="matrix(1.00, 0.00, -0.00, -1.00, 385.3, 49.3)">i</text><text xml:space="preserve" font-family="Palatino-Roman,Palatino" font-size="30.0" fill="#000000" transform="matrix(1.00, 0.00, -0.00, -1.00, 394.1, 49.3)">c</text><text xml:space="preserve" font-family="Palatino-Roman,Palatino" font-size="30.0" fill="#000000" transform="matrix(1.00, 0.00, -0.00, -1.00, 407.4, 49.3)">t</text><text xml:space="preserve" font-family="Palatino-Roman,Palatino" font-size="30.0" fill="#000000" transform="matrix(1.00, 0.00, -0.00, -1.00, 417.2, 49.3)">o</text><text xml:space="preserve" font-family="Palatino-Roman,Palatino" font-size="30.0" fill="#000000" transform="matrix(1.00, 0.00, -0.00, -1.00, 433.5, 49.3)">r</text><text xml:space="preserve" font-family="Palatino-Roman,Palatino" font-size="30.0" fill="#000000" transform="matrix(1.00, 0.00, -0.00, -1.00, 445.4, 49.3)"> </text><text xml:space="preserve" font-family="Palatino-Roman,Palatino" font-size="30.0" fill="#000000" transform="matrix(1.00, 0.00, -0.00, -1.00, 60.3, 9.3)">o</text><text xml:space="preserve" font-family="Palatino-Roman,Palatino" font-size="30.0" fill="#000000" transform="matrix(1.00, 0.00, -0.00, -1.00, 76.7, 9.3)">f</text><text xml:space="preserve" font-family="Palatino-Roman,Palatino" font-size="30.0" fill="#000000" transform="matrix(1.00, 0.00, -0.00, -1.00, 86.7, 9.3)"> </text><text xml:space="preserve" font-family="Palatino-Roman,Palatino" font-size="30.0" fill="#000000" transform="matrix(1.00, 0.00, -0.00, -1.00, 94.2, 9.3)">h</text><text xml:space="preserve" font-family="Palatino-Roman,Palatino" font-size="30.0" fill="#000000" transform="matrix(1.00, 0.00, -0.00, -1.00, 111.6, 9.3)">o</text><text xml:space="preserve" font-family="Palatino-Roman,Palatino" font-size="30.0" fill="#000000" transform="matrix(1.00, 0.00, -0.00, -1.00, 128.0, 9.3)">m</text><text xml:space="preserve" font-family="Palatino-Roman,Palatino" font-size="30.0" fill="#000000" transform="matrix(1.00, 0.00, -0.00, -1.00, 154.5, 9.3)">e</text><text xml:space="preserve" font-family="Palatino-Roman,Palatino" font-size="30.0" fill="#000000" transform="matrix(1.00, 0.00, -0.00, -1.00, 168.9, 9.3)">-</text><text xml:space="preserve" font-family="Palatino-Roman,Palatino" font-size="30.0" fill="#000000" transform="matrix(1.00, 0.00, -0.00, -1.00, 178.9, 9.3)">p</text><text xml:space="preserve" font-family="Palatino-Roman,Palatino" font-size="30.0" fill="#000000" transform="matrix(1.00, 0.00, -0.00, -1.00, 196.9, 9.3)">r</text><text xml:space="preserve" font-family="Palatino-Roman,Palatino" font-size="30.0" fill="#000000" transform="matrix(1.00, 0.00, -0.00, -1.00, 208.7, 9.3)">i</text><text xml:space="preserve" font-family="Palatino-Roman,Palatino" font-size="30.0" fill="#000000" transform="matrix(1.00, 0.00, -0.00, -1.00, 217.5, 9.3)">c</text><text xml:space="preserve" font-family="Palatino-Roman,Palatino" font-size="30.0" fill="#000000" transform="matrix(1.00, 0.00, -0.00, -1.00, 230.8, 9.3)">e</text><text xml:space="preserve" font-family="Palatino-Roman,Palatino" font-size="30.0" fill="#000000" transform="matrix(1.00, 0.00, -0.00, -1.00, 245.2, 9.3)"> </text><text xml:space="preserve" font-family="Palatino-Roman,Palatino" font-size="30.0" fill="#000000" transform="matrix(1.00, 0.00, -0.00, -1.00, 252.7, 9.3)">c</text><text xml:space="preserve" font-family="Palatino-Roman,Palatino" font-size="30.0" fill="#000000" transform="matrix(1.00, 0.00, -0.00, -1.00, 266.0, 9.3)">h</text><text xml:space="preserve" font-family="Palatino-Roman,Palatino" font-size="30.0" fill="#000000" transform="matrix(1.00, 0.00, -0.00, -1.00, 283.4, 9.3)">a</text><text xml:space="preserve" font-family="Palatino-Roman,Palatino" font-size="30.0" fill="#000000" transform="matrix(1.00, 0.00, -0.00, -1.00, 298.4, 9.3)">n</text><text xml:space="preserve" font-family="Palatino-Roman,Palatino" font-size="30.0" fill="#000000" transform="matrix(1.00, 0.00, -0.00, -1.00, 315.9, 9.3)">g</text><text xml:space="preserve" font-family="Palatino-Roman,Palatino" font-size="30.0" fill="#000000" transform="matrix(1.00, 0.00, -0.00, -1.00, 332.6, 9.3)">e</text><text xml:space="preserve" font-family="Palatino-Roman,Palatino" font-size="30.0" fill="#000000" transform="matrix(1.00, 0.00, -0.00, -1.00, 346.9, 9.3)">s</text><text xml:space="preserve" font-family="Palatino-Roman,Palatino" font-size="30.0" fill="#000000" transform="matrix(1.00, 0.00, -0.00, -1.00, 359.7, 9.3)">…</text></g></svg>