<?xml version="1.0" encoding="UTF-8" standalone="no"?><svg xmlns="http://www.w3.org/2000/svg" xmlns:xlink="http://www.w3.org/1999/xlink" clip-rule="evenodd" stroke-miterlimit="10" viewBox="0 0 1024 768"><desc>SVG generated by Keynote</desc><defs><pattern id="patternP1" patternUnits="userSpaceOnUse" width="383" height="383" viewBox="0 0 383 383"><image xlink:href="D626B71A4AE5DFC1FBD88E4E5E357B33.png" width="383.00" height="383.00"></image></pattern></defs><g transform="matrix(1.00, 0.00, -0.00, -1.00, 0.0, 768.0)"><g><clipPath id="clip0x7fcb2abcc700"><path d="M 0.0 768.0 L 1024.0 768.0 L 1024.0 0.0 L 0.0 0.0 Z M 0.0 768.0 "></path></clipPath><g clip-path="url(#clip0x7fcb2abcc700)"><image xlink:href="../../CABF5236-1324-4602-9291-A4670FFDE0C7/assets/1783979FC7716684DCC3F94F50982FFC.jpeg" width="2048.00" height="1536.00" transform="matrix(0.50, 0.00, -0.00, -0.50, 0.0, 768.0)"></image></g></g><path d="M 0.0 0.5 L 960.0 0.5 L 960.0 0.5 L 0.0 0.5 Z M 0.0 0.0 " fill="none" stroke="#7995B9" stroke-width="1.00" transform="matrix(1.00, 0.00, 0.00, -1.00, 32.0, 566.0)"></path><path d="M 0.0 0.5 L 960.0 0.5 L 960.0 0.5 L 0.0 0.5 Z M 0.0 0.0 " fill="none" stroke="#7995B9" stroke-width="1.00" transform="matrix(1.00, 0.00, 0.00, -1.00, 32.0, 562.0)"></path><text xml:space="preserve" font-family="Didot,Didot" font-size="64.0" fill="#304863" transform="matrix(1.00, 0.00, -0.00, -1.00, 32.0, 631.7)">…</text><text xml:space="preserve" font-family="Didot,Didot" font-size="64.0" fill="#304863" transform="matrix(1.00, 0.00, -0.00, -1.00, 94.7, 631.7)"> </text><text xml:space="preserve" font-family="Didot,Didot" font-size="64.0" fill="#304863" transform="matrix(1.00, 0.00, -0.00, -1.00, 111.2, 631.7)">w</text><text xml:space="preserve" font-family="Didot,Didot" font-size="64.0" fill="#304863" transform="matrix(1.00, 0.00, -0.00, -1.00, 157.4, 631.7)">h</text><text xml:space="preserve" font-family="Didot,Didot" font-size="64.0" fill="#304863" transform="matrix(1.00, 0.00, -0.00, -1.00, 195.2, 631.7)">a</text><text xml:space="preserve" font-family="Didot,Didot" font-size="64.0" fill="#304863" transform="matrix(1.00, 0.00, -0.00, -1.00, 224.7, 631.7)">t</text><text xml:space="preserve" font-family="Didot,Didot" font-size="64.0" fill="#304863" transform="matrix(1.00, 0.00, -0.00, -1.00, 244.7, 631.7)">’</text><text xml:space="preserve" font-family="Didot,Didot" font-size="64.0" fill="#304863" transform="matrix(1.00, 0.00, -0.00, -1.00, 257.7, 631.7)">s</text><text xml:space="preserve" font-family="Didot,Didot" font-size="64.0" fill="#304863" transform="matrix(1.00, 0.00, -0.00, -1.00, 283.7, 631.7)"> </text><text xml:space="preserve" font-family="Didot,Didot" font-size="64.0" fill="#304863" transform="matrix(1.00, 0.00, -0.00, -1.00, 300.2, 631.7)">u</text><text xml:space="preserve" font-family="Didot,Didot" font-size="64.0" fill="#304863" transform="matrix(1.00, 0.00, -0.00, -1.00, 336.9, 631.7)">n</text><text xml:space="preserve" font-family="Didot,Didot" font-size="64.0" fill="#304863" transform="matrix(1.00, 0.00, -0.00, -1.00, 374.7, 631.7)">d</text><text xml:space="preserve" font-family="Didot,Didot" font-size="64.0" fill="#304863" transform="matrix(1.00, 0.00, -0.00, -1.00, 411.4, 631.7)">e</text><text xml:space="preserve" font-family="Didot,Didot" font-size="64.0" fill="#304863" transform="matrix(1.00, 0.00, -0.00, -1.00, 442.1, 631.7)">r</text><text xml:space="preserve" font-family="Didot,Didot" font-size="64.0" fill="#304863" transform="matrix(1.00, 0.00, -0.00, -1.00, 466.9, 631.7)"> </text><text xml:space="preserve" font-family="Didot,Didot" font-size="64.0" fill="#304863" transform="matrix(1.00, 0.00, -0.00, -1.00, 483.4, 631.7)">t</text><text xml:space="preserve" font-family="Didot,Didot" font-size="64.0" fill="#304863" transform="matrix(1.00, 0.00, -0.00, -1.00, 503.4, 631.7)">h</text><text xml:space="preserve" font-family="Didot,Didot" font-size="64.0" fill="#304863" transform="matrix(1.00, 0.00, -0.00, -1.00, 541.2, 631.7)">e</text><text xml:space="preserve" font-family="Didot,Didot" font-size="64.0" fill="#304863" transform="matrix(1.00, 0.00, -0.00, -1.00, 572.0, 631.7)"> </text><text xml:space="preserve" font-family="Didot,Didot" font-size="64.0" fill="#304863" transform="matrix(1.00, 0.00, -0.00, -1.00, 588.5, 631.7)">h</text><text xml:space="preserve" font-family="Didot,Didot" font-size="64.0" fill="#304863" transform="matrix(1.00, 0.00, -0.00, -1.00, 626.3, 631.7)">o</text><text xml:space="preserve" font-family="Didot,Didot" font-size="64.0" fill="#304863" transform="matrix(1.00, 0.00, -0.00, -1.00, 660.6, 631.7)">o</text><text xml:space="preserve" font-family="Didot,Didot" font-size="64.0" fill="#304863" transform="matrix(1.00, 0.00, -0.00, -1.00, 694.9, 631.7)">d</text><text xml:space="preserve" font-family="Didot,Didot" font-size="64.0" fill="#304863" transform="matrix(1.00, 0.00, -0.00, -1.00, 731.6, 631.7)">…</text><g><clipPath id="clip0x7fcb2ad79030"><path d="M 44.9 540.9 L 347.4 540.9 L 347.4 464.4 L 44.9 464.4 Z M 44.9 540.9 "></path></clipPath><g clip-path="url(#clip0x7fcb2ad79030)"><g><clipPath id="clip0x7fcb2ad797b0"><path d="M 44.9 464.4 L 347.4 464.4 L 347.4 540.9 L 44.9 540.9 Z M 44.9 464.4 "></path></clipPath><g clip-path="url(#clip0x7fcb2ad797b0)"><path d="M 51.9 471.4 C 54.7 472.6 81.1 481.3 105.3 482.8 C 105.9 484.8 108.5 491.6 109.0 493.4 C 83.8 491.7 63.4 484.2 55.2 480.4 L 51.9 471.4 " fill="#82BE41"></path><path d="M 56.1 483.0 C 63.8 490.9 91.6 516.3 91.6 516.3 C 77.2 513.0 62.1 508.5 56.7 506.0 L 48.6 497.8 C 55.4 499.2 57.6 499.5 62.5 500.2 L 56.1 483.0 " fill="#82BE41"></path><path d="M 91.3 533.4 C 87.0 531.4 74.4 521.8 67.7 516.7 C 75.9 519.4 95.6 523.8 105.7 524.0 C 102.6 526.2 93.7 532.2 91.3 533.4 " fill="#3B66A2"></path><path d="M 107.6 522.7 C 107.6 522.7 83.1 498.3 79.3 494.8 C 86.7 497.5 102.0 500.6 111.7 501.2 C 112.8 504.6 114.0 507.1 114.0 507.1 L 127.0 508.4 C 127.0 508.4 117.1 516.3 107.6 522.7 " fill="#3B66A2"></path><path d="M 266.2 479.3 C 263.1 475.8 259.1 473.7 252.8 473.7 C 241.8 473.7 234.5 482.0 234.5 494.8 C 234.5 507.6 241.8 516.1 252.8 516.1 C 258.6 516.1 263.1 514.1 266.6 509.9 C 269.9 506.1 271.3 501.7 271.3 495.1 C 271.3 488.1 269.7 483.3 266.2 479.3 Z M 257.6 506.0 C 256.6 507.4 254.9 508.2 253.0 508.2 C 250.4 508.2 248.4 506.6 247.5 504.1 C 246.8 501.9 246.4 499.1 246.4 495.0 C 246.4 490.3 246.9 486.8 247.7 484.7 C 248.7 482.5 251.1 481.4 253.1 481.4 C 257.7 481.4 259.7 485.5 259.7 495.2 C 259.7 500.6 259.0 504.2 257.6 506.0 Z M 317.8 474.6 L 308.0 474.6 L 304.4 488.6 C 303.5 491.8 302.6 495.7 302.1 498.4 C 301.8 500.3 301.7 500.9 301.5 502.5 C 301.2 500.7 301.1 500.2 300.5 497.2 C 299.7 493.7 298.0 486.7 297.0 482.9 L 294.9 474.6 L 285.0 474.6 L 273.7 515.3 L 284.5 515.3 L 287.8 500.1 C 288.8 495.4 290.1 487.4 290.1 487.4 C 290.1 487.4 291.1 494.7 293.0 501.6 L 296.8 515.3 L 306.9 515.3 L 310.1 501.8 C 311.9 494.3 313.1 487.4 313.1 487.4 C 313.4 489.2 314.2 495.6 315.4 500.7 L 318.5 515.3 L 329.4 515.3 L 317.8 474.6 Z M 215.6 474.6 L 226.5 474.6 L 226.4 533.4 L 215.5 530.9 L 215.6 474.6 Z M 194.4 474.6 L 205.3 474.6 L 205.2 533.4 L 194.3 530.9 L 194.4 474.6 Z M 173.3 474.5 L 173.3 510.3 L 183.9 512.7 L 184.0 474.5 L 173.3 474.5 Z M 178.6 515.0 C 175.0 515.0 172.1 518.0 172.1 521.6 C 172.1 525.3 175.1 528.2 178.8 528.2 C 182.4 528.2 185.2 525.3 185.2 521.6 C 185.2 518.0 182.3 515.0 178.6 515.0 Z M 163.1 474.6 L 128.7 474.6 L 128.7 482.4 L 149.5 518.2 C 151.0 520.7 151.8 522.7 151.8 522.7 C 151.8 522.7 150.6 522.8 147.3 522.8 L 130.3 522.8 L 132.7 532.0 L 165.8 532.0 L 165.8 524.0 L 144.8 487.2 C 143.6 485.2 142.7 483.6 142.7 483.6 C 142.7 483.6 145.2 483.6 147.4 483.6 L 166.0 483.6 L 163.1 474.6 " fill="#3B66A2"></path><path d="M 338.8 516.0 C 336.0 516.0 333.7 518.2 333.7 521.1 C 333.7 524.0 336.0 526.3 338.8 526.3 C 341.6 526.3 343.9 524.0 343.9 521.1 C 343.9 518.2 341.6 516.0 338.8 516.0 Z M 338.8 525.4 C 336.5 525.4 334.7 523.5 334.7 521.1 C 334.7 518.7 336.5 516.8 338.8 516.8 C 341.0 516.8 342.9 518.7 342.9 521.1 C 342.9 523.5 341.0 525.4 338.8 525.4 Z M 339.9 518.3 L 339.4 519.2 C 339.0 519.9 338.8 520.3 338.5 520.6 C 338.3 520.7 338.3 520.7 338.1 520.8 L 338.1 518.3 L 337.1 518.3 L 337.1 524.0 L 338.9 524.0 C 340.2 524.0 340.7 523.3 340.7 522.4 C 340.7 521.5 340.2 520.8 339.3 520.8 C 339.5 520.7 339.9 520.1 340.2 519.7 L 341.1 518.3 L 339.9 518.3 Z M 338.1 523.2 L 338.1 521.4 L 338.6 521.4 C 339.1 521.4 339.3 521.5 339.5 521.7 C 339.7 521.8 339.8 522.1 339.8 522.4 C 339.8 522.9 339.4 523.2 338.6 523.2 L 338.1 523.2 " fill="#3B66A2"></path></g></g></g></g><g><clipPath id="clip0x7fcb2ad7e750"><path d="M 83.1 332.7 L 515.5 332.7 L 515.5 469.3 L 83.1 469.3 Z M 83.1 332.7 "></path></clipPath><g clip-path="url(#clip0x7fcb2ad7e750)"><text xml:space="preserve" font-family="Palatino-Roman,Palatino" font-size="30.0" fill="#324763" transform="matrix(1.00, 0.00, -0.00, -1.00, 129.2, 429.3)">1</text><text xml:space="preserve" font-family="Palatino-Roman,Palatino" font-size="30.0" fill="#324763" transform="matrix(1.00, 0.00, -0.00, -1.00, 144.2, 429.3)">7</text><text xml:space="preserve" font-family="Palatino-Roman,Palatino" font-size="30.0" fill="#324763" transform="matrix(1.00, 0.00, -0.00, -1.00, 159.2, 429.3)">K</text><text xml:space="preserve" font-family="Palatino-Roman,Palatino" font-size="30.0" fill="#324763" transform="matrix(1.00, 0.00, -0.00, -1.00, 181.0, 429.3)"> </text><text xml:space="preserve" font-family="Palatino-Roman,Palatino" font-size="30.0" fill="#324763" transform="matrix(1.00, 0.00, -0.00, -1.00, 188.5, 429.3)">h</text><text xml:space="preserve" font-family="Palatino-Roman,Palatino" font-size="30.0" fill="#324763" transform="matrix(1.00, 0.00, -0.00, -1.00, 205.9, 429.3)">o</text><text xml:space="preserve" font-family="Palatino-Roman,Palatino" font-size="30.0" fill="#324763" transform="matrix(1.00, 0.00, -0.00, -1.00, 222.3, 429.3)">m</text><text xml:space="preserve" font-family="Palatino-Roman,Palatino" font-size="30.0" fill="#324763" transform="matrix(1.00, 0.00, -0.00, -1.00, 248.8, 429.3)">e</text><text xml:space="preserve" font-family="Palatino-Roman,Palatino" font-size="30.0" fill="#324763" transform="matrix(1.00, 0.00, -0.00, -1.00, 99.4, 389.3)">s</text><text xml:space="preserve" font-family="Palatino-Roman,Palatino" font-size="30.0" fill="#324763" transform="matrix(1.00, 0.00, -0.00, -1.00, 112.1, 389.3)">a</text><text xml:space="preserve" font-family="Palatino-Roman,Palatino" font-size="30.0" fill="#324763" transform="matrix(1.00, 0.00, -0.00, -1.00, 127.1, 389.3)">l</text><text xml:space="preserve" font-family="Palatino-Roman,Palatino" font-size="30.0" fill="#324763" transform="matrix(1.00, 0.00, -0.00, -1.00, 135.8, 389.3)">e</text><text xml:space="preserve" font-family="Palatino-Roman,Palatino" font-size="30.0" fill="#324763" transform="matrix(1.00, 0.00, -0.00, -1.00, 150.2, 389.3)">s</text><text xml:space="preserve" font-family="Palatino-Roman,Palatino" font-size="30.0" fill="#324763" transform="matrix(1.00, 0.00, -0.00, -1.00, 162.9, 389.3)"> </text><text xml:space="preserve" font-family="Palatino-Roman,Palatino" font-size="30.0" fill="#324763" transform="matrix(1.00, 0.00, -0.00, -1.00, 170.4, 389.3)">o</text><text xml:space="preserve" font-family="Palatino-Roman,Palatino" font-size="30.0" fill="#324763" transform="matrix(1.00, 0.00, -0.00, -1.00, 186.8, 389.3)">v</text><text xml:space="preserve" font-family="Palatino-Roman,Palatino" font-size="30.0" fill="#324763" transform="matrix(1.00, 0.00, -0.00, -1.00, 203.7, 389.3)">e</text><text xml:space="preserve" font-family="Palatino-Roman,Palatino" font-size="30.0" fill="#324763" transform="matrix(1.00, 0.00, -0.00, -1.00, 218.1, 389.3)">r</text><text xml:space="preserve" font-family="Palatino-Roman,Palatino" font-size="30.0" fill="#324763" transform="matrix(1.00, 0.00, -0.00, -1.00, 229.9, 389.3)"> </text><text xml:space="preserve" font-family="Palatino-Roman,Palatino" font-size="30.0" fill="#324763" transform="matrix(1.00, 0.00, -0.00, -1.00, 237.4, 389.3)">p</text><text xml:space="preserve" font-family="Palatino-Roman,Palatino" font-size="30.0" fill="#324763" transform="matrix(1.00, 0.00, -0.00, -1.00, 255.5, 389.3)">a</text><text xml:space="preserve" font-family="Palatino-Roman,Palatino" font-size="30.0" fill="#324763" transform="matrix(1.00, 0.00, -0.00, -1.00, 270.5, 389.3)">s</text><text xml:space="preserve" font-family="Palatino-Roman,Palatino" font-size="30.0" fill="#324763" transform="matrix(1.00, 0.00, -0.00, -1.00, 283.2, 389.3)">t</text><text xml:space="preserve" font-family="Palatino-Roman,Palatino" font-size="30.0" fill="#324763" transform="matrix(1.00, 0.00, -0.00, -1.00, 293.0, 389.3)"> </text><text xml:space="preserve" font-family="Palatino-Roman,Palatino" font-size="30.0" fill="#324763" transform="matrix(1.00, 0.00, -0.00, -1.00, 145.5, 349.3)">4</text><text xml:space="preserve" font-family="Palatino-Roman,Palatino" font-size="30.0" fill="#324763" transform="matrix(1.00, 0.00, -0.00, -1.00, 160.5, 349.3)"> </text><text xml:space="preserve" font-family="Palatino-Roman,Palatino" font-size="30.0" fill="#324763" transform="matrix(1.00, 0.00, -0.00, -1.00, 168.0, 349.3)">y</text><text xml:space="preserve" font-family="Palatino-Roman,Palatino" font-size="30.0" fill="#324763" transform="matrix(1.00, 0.00, -0.00, -1.00, 184.6, 349.3)">e</text><text xml:space="preserve" font-family="Palatino-Roman,Palatino" font-size="30.0" fill="#324763" transform="matrix(1.00, 0.00, -0.00, -1.00, 199.0, 349.3)">a</text><text xml:space="preserve" font-family="Palatino-Roman,Palatino" font-size="30.0" fill="#324763" transform="matrix(1.00, 0.00, -0.00, -1.00, 214.0, 349.3)">r</text><text xml:space="preserve" font-family="Palatino-Roman,Palatino" font-size="30.0" fill="#324763" transform="matrix(1.00, 0.00, -0.00, -1.00, 225.9, 349.3)">s</text><text xml:space="preserve" font-family="Palatino-Roman,Palatino" font-size="30.0" fill="#324763" transform="matrix(1.00, 0.00, -0.00, -1.00, 238.6, 349.3)">!</text></g></g><g><clipPath id="clip0x7fcb2ad976a0"><path d="M 30.0 329.1 L 362.4 329.1 L 362.4 553.0 L 30.0 553.0 Z M 30.0 329.1 "></path></clipPath><g clip-path="url(#clip0x7fcb2ad976a0)"><path d="M 0.0 184.5 L 0.0 32.5 C 0.0 14.6 14.6 -0.0 32.5 -0.0 L 292.8 -0.0 C 310.8 -0.0 325.0 14.6 325.0 32.5 L 325.0 184.4 C 325.0 202.3 310.8 217.0 292.8 217.0 L 32.5 217.0 C 14.6 217.0 0.0 202.5 0.0 184.5 Z M 0.0 184.4 " fill="none" stroke="#A53234" stroke-width="5.00" transform="matrix(1.00, 0.00, 0.00, -1.00, 33.5, 549.5)"></path></g></g><g><clipPath id="clip0x7fcb2ad9a150"><path d="M 68.1 39.7 L 560.6 39.7 L 560.6 136.3 L 68.1 136.3 Z M 68.1 39.7 "></path></clipPath><g clip-path="url(#clip0x7fcb2ad9a150)"><text xml:space="preserve" font-family="Palatino-Roman,Palatino" font-size="30.0" fill="#324763" transform="matrix(1.00, 0.00, -0.00, -1.00, 84.3, 96.3)">4</text><text xml:space="preserve" font-family="Palatino-Roman,Palatino" font-size="30.0" fill="#324763" transform="matrix(1.00, 0.00, -0.00, -1.00, 99.3, 96.3)">0</text><text xml:space="preserve" font-family="Palatino-Roman,Palatino" font-size="30.0" fill="#324763" transform="matrix(1.00, 0.00, -0.00, -1.00, 114.3, 96.3)">0</text><text xml:space="preserve" font-family="Palatino-Roman,Palatino" font-size="30.0" fill="#324763" transform="matrix(1.00, 0.00, -0.00, -1.00, 129.3, 96.3)">k</text><text xml:space="preserve" font-family="Palatino-Roman,Palatino" font-size="30.0" fill="#324763" transform="matrix(1.00, 0.00, -0.00, -1.00, 146.0, 96.3)"> </text><text xml:space="preserve" font-family="Palatino-Roman,Palatino" font-size="30.0" fill="#324763" transform="matrix(1.00, 0.00, -0.00, -1.00, 153.5, 96.3)">c</text><text xml:space="preserve" font-family="Palatino-Roman,Palatino" font-size="30.0" fill="#324763" transform="matrix(1.00, 0.00, -0.00, -1.00, 166.8, 96.3)">r</text><text xml:space="preserve" font-family="Palatino-Roman,Palatino" font-size="30.0" fill="#324763" transform="matrix(1.00, 0.00, -0.00, -1.00, 178.7, 96.3)">i</text><text xml:space="preserve" font-family="Palatino-Roman,Palatino" font-size="30.0" fill="#324763" transform="matrix(1.00, 0.00, -0.00, -1.00, 187.4, 96.3)">m</text><text xml:space="preserve" font-family="Palatino-Roman,Palatino" font-size="30.0" fill="#324763" transform="matrix(1.00, 0.00, -0.00, -1.00, 213.9, 96.3)">e</text><text xml:space="preserve" font-family="Palatino-Roman,Palatino" font-size="30.0" fill="#324763" transform="matrix(1.00, 0.00, -0.00, -1.00, 228.3, 96.3)">s</text><text xml:space="preserve" font-family="Palatino-Roman,Palatino" font-size="30.0" fill="#324763" transform="matrix(1.00, 0.00, -0.00, -1.00, 241.0, 96.3)"> </text><text xml:space="preserve" font-family="Palatino-Roman,Palatino" font-size="30.0" fill="#324763" transform="matrix(1.00, 0.00, -0.00, -1.00, 248.5, 96.3)">o</text><text xml:space="preserve" font-family="Palatino-Roman,Palatino" font-size="30.0" fill="#324763" transform="matrix(1.00, 0.00, -0.00, -1.00, 264.8, 96.3)">v</text><text xml:space="preserve" font-family="Palatino-Roman,Palatino" font-size="30.0" fill="#324763" transform="matrix(1.00, 0.00, -0.00, -1.00, 281.8, 96.3)">e</text><text xml:space="preserve" font-family="Palatino-Roman,Palatino" font-size="30.0" fill="#324763" transform="matrix(1.00, 0.00, -0.00, -1.00, 296.2, 96.3)">r</text><text xml:space="preserve" font-family="Palatino-Roman,Palatino" font-size="30.0" fill="#324763" transform="matrix(1.00, 0.00, -0.00, -1.00, 308.0, 96.3)"> </text><text xml:space="preserve" font-family="Palatino-Roman,Palatino" font-size="30.0" fill="#324763" transform="matrix(1.00, 0.00, -0.00, -1.00, 113.9, 56.3)">p</text><text xml:space="preserve" font-family="Palatino-Roman,Palatino" font-size="30.0" fill="#324763" transform="matrix(1.00, 0.00, -0.00, -1.00, 132.0, 56.3)">a</text><text xml:space="preserve" font-family="Palatino-Roman,Palatino" font-size="30.0" fill="#324763" transform="matrix(1.00, 0.00, -0.00, -1.00, 147.0, 56.3)">s</text><text xml:space="preserve" font-family="Palatino-Roman,Palatino" font-size="30.0" fill="#324763" transform="matrix(1.00, 0.00, -0.00, -1.00, 159.7, 56.3)">t</text><text xml:space="preserve" font-family="Palatino-Roman,Palatino" font-size="30.0" fill="#324763" transform="matrix(1.00, 0.00, -0.00, -1.00, 169.5, 56.3)"> </text><text xml:space="preserve" font-family="Palatino-Roman,Palatino" font-size="30.0" fill="#324763" transform="matrix(1.00, 0.00, -0.00, -1.00, 177.0, 56.3)">4</text><text xml:space="preserve" font-family="Palatino-Roman,Palatino" font-size="30.0" fill="#324763" transform="matrix(1.00, 0.00, -0.00, -1.00, 192.0, 56.3)"> </text><text xml:space="preserve" font-family="Palatino-Roman,Palatino" font-size="30.0" fill="#324763" transform="matrix(1.00, 0.00, -0.00, -1.00, 199.5, 56.3)">y</text><text xml:space="preserve" font-family="Palatino-Roman,Palatino" font-size="30.0" fill="#324763" transform="matrix(1.00, 0.00, -0.00, -1.00, 216.2, 56.3)">e</text><text xml:space="preserve" font-family="Palatino-Roman,Palatino" font-size="30.0" fill="#324763" transform="matrix(1.00, 0.00, -0.00, -1.00, 230.5, 56.3)">a</text><text xml:space="preserve" font-family="Palatino-Roman,Palatino" font-size="30.0" fill="#324763" transform="matrix(1.00, 0.00, -0.00, -1.00, 245.5, 56.3)">r</text><text xml:space="preserve" font-family="Palatino-Roman,Palatino" font-size="30.0" fill="#324763" transform="matrix(1.00, 0.00, -0.00, -1.00, 257.4, 56.3)">s</text><text xml:space="preserve" font-family="Palatino-Roman,Palatino" font-size="30.0" fill="#324763" transform="matrix(1.00, 0.00, -0.00, -1.00, 270.1, 56.3)">!</text></g></g><g><clipPath id="clip0x7fcb2ada4ef0"><path d="M 77.5 146.0 L 77.0 204.0 C 77.0 212.3 84.2 219.0 92.5 219.0 L 299.9 219.0 C 308.2 219.0 315.0 212.3 315.0 204.0 L 315.0 146.0 C 315.0 137.7 308.2 131.0 299.9 131.0 L 92.5 131.0 C 84.2 131.0 77.5 137.7 77.5 146.0 Z M 77.5 146.0 "></path></clipPath><g clip-path="url(#clip0x7fcb2ada4ef0)"><g><clipPath id="clip0x7fcb2adab2c0"><path d="M 76.5 130.0 L 315.9 130.0 L 315.9 220.0 L 76.5 220.0 Z M 76.5 130.0 "></path></clipPath><g clip-path="url(#clip0x7fcb2adab2c0)"><path d="M 77.0 131.0 L 315.0 131.0 L 315.0 219.0 L 77.0 219.0 Z M 77.0 131.0 " fill="url(#patternP1)"></path></g></g></g></g><g><clipPath id="clip0x7fcb2adad590"><path d="M 86.7 137.5 L 305.7 137.5 L 305.7 212.5 L 86.7 212.5 Z M 86.7 137.5 "></path></clipPath><g clip-path="url(#clip0x7fcb2adad590)"><image xlink:href="8EADCC0CF958B80F92CEE08876B6051B.png" width="219.00" height="75.00" transform="matrix(1.00, 0.00, -0.00, -1.00, 86.7, 212.5)"></image></g></g><g><clipPath id="clip0x7fcb2b80b410"><path d="M 30.0 20.6 L 362.4 20.6 L 362.4 244.5 L 30.0 244.5 Z M 30.0 20.6 "></path></clipPath><g clip-path="url(#clip0x7fcb2b80b410)"><path d="M 0.0 184.0 L 0.0 32.5 C 0.0 14.6 14.6 -0.5 32.5 -0.5 L 292.8 -0.5 C 310.8 -0.5 325.0 14.6 325.0 32.5 L 325.0 184.4 C 325.0 202.3 310.8 216.5 292.8 216.5 L 32.5 216.5 C 14.6 216.5 0.0 202.0 0.0 184.0 Z M 0.0 184.4 " fill="none" stroke="#729460" stroke-width="5.00" transform="matrix(1.00, 0.00, 0.00, -1.00, 33.5, 241.0)"></path></g></g></g></svg>