<?xml version="1.0" encoding="UTF-8" standalone="no"?><svg xmlns="http://www.w3.org/2000/svg" xmlns:xlink="http://www.w3.org/1999/xlink" clip-rule="evenodd" stroke-miterlimit="10" viewBox="0 0 1024 768"><desc>SVG generated by Keynote</desc><defs></defs><g transform="matrix(1.00, 0.00, -0.00, -1.00, 0.0, 768.0)"><g><clipPath id="clip0x7fcb2ac7a770"><path d="M 0.0 768.0 L 1024.0 768.0 L 1024.0 0.0 L 0.0 0.0 Z M 0.0 768.0 "></path></clipPath><g clip-path="url(#clip0x7fcb2ac7a770)"><image xlink:href="../../CABF5236-1324-4602-9291-A4670FFDE0C7/assets/1783979FC7716684DCC3F94F50982FFC.jpeg" width="2048.00" height="1536.00" transform="matrix(0.50, 0.00, -0.00, -0.50, 0.0, 768.0)"></image></g></g><path d="M 0.0 0.5 L 448.0 0.5 L 448.0 0.5 L 0.0 0.5 Z M 0.0 0.0 " fill="none" stroke="#7995B9" stroke-width="1.00" transform="matrix(1.00, 0.00, 0.00, -1.00, 32.0, 566.0)"></path><path d="M 0.0 0.5 L 448.0 0.5 L 448.0 0.5 L 0.0 0.5 Z M 0.0 0.0 " fill="none" stroke="#7995B9" stroke-width="1.00" transform="matrix(1.00, 0.00, 0.00, -1.00, 32.0, 562.0)"></path><image xlink:href="C19B96BF51A0A75A1BBFFA2B3605334A.png" width="22.00" height="18.00" transform="matrix(1.00, 0.00, -0.00, -1.00, 972.0, 36.0)"></image><text xml:space="preserve" font-family="Palatino-Roman,Palatino" font-size="16.0" fill="#FEFFFE" transform="matrix(1.00, 0.00, -0.00, -1.00, 975.5, 22.4)">0</text><text xml:space="preserve" font-family="Palatino-Roman,Palatino" font-size="16.0" fill="#FEFFFE" transform="matrix(1.00, 0.00, -0.00, -1.00, 983.5, 22.4)">1</text><g><clipPath id="clip0x7fcb2ac779c0"><path d="M 534.0 722.0 L 984.0 722.0 L 984.0 46.0 L 534.0 46.0 Z M 533.7 722.0 "></path></clipPath><g clip-path="url(#clip0x7fcb2ac779c0)"><image xlink:href="B68F8C4D71CC36E9CA8D0345B5F29B16.jpeg" width="700.00" height="876.00" transform="matrix(0.77, 0.00, -0.00, -0.77, 488.9, 722.0)"></image></g></g><text xml:space="preserve" font-family="Didot,Didot" font-size="64.0" fill="#304863" transform="matrix(1.00, 0.00, -0.00, -1.00, 32.0, 631.7)">P</text><text xml:space="preserve" font-family="Didot,Didot" font-size="64.0" fill="#304863" transform="matrix(1.00, 0.00, -0.00, -1.00, 72.2, 631.7)">R</text><text xml:space="preserve" font-family="Didot,Didot" font-size="64.0" fill="#304863" transform="matrix(1.00, 0.00, -0.00, -1.00, 117.1, 631.7)">O</text><text xml:space="preserve" font-family="Didot,Didot" font-size="64.0" fill="#304863" transform="matrix(1.00, 0.00, -0.00, -1.00, 169.1, 631.7)">B</text><text xml:space="preserve" font-family="Didot,Didot" font-size="64.0" fill="#304863" transform="matrix(1.00, 0.00, -0.00, -1.00, 210.5, 631.7)">L</text><text xml:space="preserve" font-family="Didot,Didot" font-size="64.0" fill="#304863" transform="matrix(1.00, 0.00, -0.00, -1.00, 253.1, 631.7)">E</text><text xml:space="preserve" font-family="Didot,Didot" font-size="64.0" fill="#304863" transform="matrix(1.00, 0.00, -0.00, -1.00, 296.8, 631.7)">M</text><text xml:space="preserve" font-family="Palatino-Roman,Palatino" font-size="30.0" fill="#A53234" transform="matrix(1.00, 0.00, -0.00, -1.00, 58.4, 477.3)">W</text><text xml:space="preserve" font-family="Palatino-Roman,Palatino" font-size="30.0" fill="#A53234" transform="matrix(1.00, 0.00, -0.00, -1.00, 88.4, 477.3)">h</text><text xml:space="preserve" font-family="Palatino-Roman,Palatino" font-size="30.0" fill="#A53234" transform="matrix(1.00, 0.00, -0.00, -1.00, 105.8, 477.3)">e</text><text xml:space="preserve" font-family="Palatino-Roman,Palatino" font-size="30.0" fill="#A53234" transform="matrix(1.00, 0.00, -0.00, -1.00, 120.2, 477.3)">r</text><text xml:space="preserve" font-family="Palatino-Roman,Palatino" font-size="30.0" fill="#A53234" transform="matrix(1.00, 0.00, -0.00, -1.00, 131.5, 477.3)">e</text><text xml:space="preserve" font-family="Palatino-Roman,Palatino" font-size="30.0" fill="#A53234" transform="matrix(1.00, 0.00, -0.00, -1.00, 145.9, 477.3)"> </text><text xml:space="preserve" font-family="Palatino-Roman,Palatino" font-size="30.0" fill="#A53234" transform="matrix(1.00, 0.00, -0.00, -1.00, 153.4, 477.3)">c</text><text xml:space="preserve" font-family="Palatino-Roman,Palatino" font-size="30.0" fill="#A53234" transform="matrix(1.00, 0.00, -0.00, -1.00, 166.7, 477.3)">a</text><text xml:space="preserve" font-family="Palatino-Roman,Palatino" font-size="30.0" fill="#A53234" transform="matrix(1.00, 0.00, -0.00, -1.00, 181.7, 477.3)">n</text><text xml:space="preserve" font-family="Palatino-Roman,Palatino" font-size="30.0" fill="#A53234" transform="matrix(1.00, 0.00, -0.00, -1.00, 199.2, 477.3)"> </text><text xml:space="preserve" font-family="Palatino-Roman,Palatino" font-size="30.0" fill="#A53234" transform="matrix(1.00, 0.00, -0.00, -1.00, 206.7, 477.3)">I</text><text xml:space="preserve" font-family="Palatino-Roman,Palatino" font-size="30.0" fill="#A53234" transform="matrix(1.00, 0.00, -0.00, -1.00, 216.8, 477.3)"> </text><text xml:space="preserve" font-family="Palatino-Roman,Palatino" font-size="30.0" fill="#A53234" transform="matrix(1.00, 0.00, -0.00, -1.00, 224.3, 477.3)">b</text><text xml:space="preserve" font-family="Palatino-Roman,Palatino" font-size="30.0" fill="#A53234" transform="matrix(1.00, 0.00, -0.00, -1.00, 240.9, 477.3)">u</text><text xml:space="preserve" font-family="Palatino-Roman,Palatino" font-size="30.0" fill="#A53234" transform="matrix(1.00, 0.00, -0.00, -1.00, 259.0, 477.3)">y</text><text xml:space="preserve" font-family="Palatino-Roman,Palatino" font-size="30.0" fill="#A53234" transform="matrix(1.00, 0.00, -0.00, -1.00, 275.7, 477.3)"> </text><text xml:space="preserve" font-family="Palatino-Roman,Palatino" font-size="30.0" fill="#A53234" transform="matrix(1.00, 0.00, -0.00, -1.00, 283.2, 477.3)">a</text><text xml:space="preserve" font-family="Palatino-Roman,Palatino" font-size="30.0" fill="#A53234" transform="matrix(1.00, 0.00, -0.00, -1.00, 298.2, 477.3)"> </text><text xml:space="preserve" font-family="Palatino-Roman,Palatino" font-size="30.0" fill="#A53234" transform="matrix(1.00, 0.00, -0.00, -1.00, 305.7, 477.3)">h</text><text xml:space="preserve" font-family="Palatino-Roman,Palatino" font-size="30.0" fill="#A53234" transform="matrix(1.00, 0.00, -0.00, -1.00, 323.1, 477.3)">o</text><text xml:space="preserve" font-family="Palatino-Roman,Palatino" font-size="30.0" fill="#A53234" transform="matrix(1.00, 0.00, -0.00, -1.00, 339.5, 477.3)">m</text><text xml:space="preserve" font-family="Palatino-Roman,Palatino" font-size="30.0" fill="#A53234" transform="matrix(1.00, 0.00, -0.00, -1.00, 366.0, 477.3)">e</text><text xml:space="preserve" font-family="Palatino-Roman,Palatino" font-size="30.0" fill="#A53234" transform="matrix(1.00, 0.00, -0.00, -1.00, 380.3, 477.3)"> </text><text xml:space="preserve" font-family="Palatino-Roman,Palatino" font-size="30.0" fill="#A53234" transform="matrix(1.00, 0.00, -0.00, -1.00, 387.8, 477.3)">i</text><text xml:space="preserve" font-family="Palatino-Roman,Palatino" font-size="30.0" fill="#A53234" transform="matrix(1.00, 0.00, -0.00, -1.00, 396.6, 477.3)">n</text><text xml:space="preserve" font-family="Palatino-Roman,Palatino" font-size="30.0" fill="#A53234" transform="matrix(1.00, 0.00, -0.00, -1.00, 414.0, 477.3)"> </text><text xml:space="preserve" font-family="Palatino-Roman,Palatino" font-size="30.0" fill="#A53234" transform="matrix(1.00, 0.00, -0.00, -1.00, 421.5, 477.3)">a</text><text xml:space="preserve" font-family="Palatino-Roman,Palatino" font-size="30.0" fill="#A53234" transform="matrix(1.00, 0.00, -0.00, -1.00, 436.5, 477.3)">n</text><text xml:space="preserve" font-family="Palatino-Roman,Palatino" font-size="30.0" fill="#A53234" transform="matrix(1.00, 0.00, -0.00, -1.00, 454.0, 477.3)"> </text><text xml:space="preserve" font-family="Palatino-Roman,Palatino" font-size="30.0" fill="#A53234" transform="matrix(1.00, 0.00, -0.00, -1.00, 461.5, 477.3)">u</text><text xml:space="preserve" font-family="Palatino-Roman,Palatino" font-size="30.0" fill="#A53234" transform="matrix(1.00, 0.00, -0.00, -1.00, 479.6, 477.3)">p</text><text xml:space="preserve" font-family="Palatino-Roman,Palatino" font-size="30.0" fill="#A53234" transform="matrix(1.00, 0.00, -0.00, -1.00, 497.6, 477.3)"> </text><text xml:space="preserve" font-family="Palatino-Roman,Palatino" font-size="30.0" fill="#A53234" transform="matrix(1.00, 0.00, -0.00, -1.00, 95.2, 437.3)">a</text><text xml:space="preserve" font-family="Palatino-Roman,Palatino" font-size="30.0" fill="#A53234" transform="matrix(1.00, 0.00, -0.00, -1.00, 110.2, 437.3)">n</text><text xml:space="preserve" font-family="Palatino-Roman,Palatino" font-size="30.0" fill="#A53234" transform="matrix(1.00, 0.00, -0.00, -1.00, 127.6, 437.3)">d</text><text xml:space="preserve" font-family="Palatino-Roman,Palatino" font-size="30.0" fill="#A53234" transform="matrix(1.00, 0.00, -0.00, -1.00, 145.9, 437.3)"> </text><text xml:space="preserve" font-family="Palatino-Roman,Palatino" font-size="30.0" fill="#A53234" transform="matrix(1.00, 0.00, -0.00, -1.00, 153.4, 437.3)">c</text><text xml:space="preserve" font-family="Palatino-Roman,Palatino" font-size="30.0" fill="#A53234" transform="matrix(1.00, 0.00, -0.00, -1.00, 166.7, 437.3)">o</text><text xml:space="preserve" font-family="Palatino-Roman,Palatino" font-size="30.0" fill="#A53234" transform="matrix(1.00, 0.00, -0.00, -1.00, 183.1, 437.3)">m</text><text xml:space="preserve" font-family="Palatino-Roman,Palatino" font-size="30.0" fill="#A53234" transform="matrix(1.00, 0.00, -0.00, -1.00, 209.6, 437.3)">i</text><text xml:space="preserve" font-family="Palatino-Roman,Palatino" font-size="30.0" fill="#A53234" transform="matrix(1.00, 0.00, -0.00, -1.00, 218.3, 437.3)">n</text><text xml:space="preserve" font-family="Palatino-Roman,Palatino" font-size="30.0" fill="#A53234" transform="matrix(1.00, 0.00, -0.00, -1.00, 235.8, 437.3)">g</text><text xml:space="preserve" font-family="Palatino-Roman,Palatino" font-size="30.0" fill="#A53234" transform="matrix(1.00, 0.00, -0.00, -1.00, 252.5, 437.3)"> </text><text xml:space="preserve" font-family="Palatino-Roman,Palatino" font-size="30.0" fill="#A53234" transform="matrix(1.00, 0.00, -0.00, -1.00, 260.0, 437.3)">n</text><text xml:space="preserve" font-family="Palatino-Roman,Palatino" font-size="30.0" fill="#A53234" transform="matrix(1.00, 0.00, -0.00, -1.00, 277.4, 437.3)">e</text><text xml:space="preserve" font-family="Palatino-Roman,Palatino" font-size="30.0" fill="#A53234" transform="matrix(1.00, 0.00, -0.00, -1.00, 291.8, 437.3)">i</text><text xml:space="preserve" font-family="Palatino-Roman,Palatino" font-size="30.0" fill="#A53234" transform="matrix(1.00, 0.00, -0.00, -1.00, 300.5, 437.3)">g</text><text xml:space="preserve" font-family="Palatino-Roman,Palatino" font-size="30.0" fill="#A53234" transform="matrix(1.00, 0.00, -0.00, -1.00, 317.2, 437.3)">h</text><text xml:space="preserve" font-family="Palatino-Roman,Palatino" font-size="30.0" fill="#A53234" transform="matrix(1.00, 0.00, -0.00, -1.00, 334.7, 437.3)">b</text><text xml:space="preserve" font-family="Palatino-Roman,Palatino" font-size="30.0" fill="#A53234" transform="matrix(1.00, 0.00, -0.00, -1.00, 351.3, 437.3)">o</text><text xml:space="preserve" font-family="Palatino-Roman,Palatino" font-size="30.0" fill="#A53234" transform="matrix(1.00, 0.00, -0.00, -1.00, 367.7, 437.3)">r</text><text xml:space="preserve" font-family="Palatino-Roman,Palatino" font-size="30.0" fill="#A53234" transform="matrix(1.00, 0.00, -0.00, -1.00, 379.0, 437.3)">h</text><text xml:space="preserve" font-family="Palatino-Roman,Palatino" font-size="30.0" fill="#A53234" transform="matrix(1.00, 0.00, -0.00, -1.00, 396.4, 437.3)">o</text><text xml:space="preserve" font-family="Palatino-Roman,Palatino" font-size="30.0" fill="#A53234" transform="matrix(1.00, 0.00, -0.00, -1.00, 412.8, 437.3)">o</text><text xml:space="preserve" font-family="Palatino-Roman,Palatino" font-size="30.0" fill="#A53234" transform="matrix(1.00, 0.00, -0.00, -1.00, 429.2, 437.3)">d</text><text xml:space="preserve" font-family="Palatino-Roman,Palatino" font-size="30.0" fill="#A53234" transform="matrix(1.00, 0.00, -0.00, -1.00, 447.5, 437.3)">?</text><text xml:space="preserve" font-family="Palatino-Roman,Palatino" font-size="30.0" fill="#000000" transform="matrix(1.00, 0.00, -0.00, -1.00, 57.6, 281.3)">L</text><text xml:space="preserve" font-family="Palatino-Roman,Palatino" font-size="30.0" fill="#000000" transform="matrix(1.00, 0.00, -0.00, -1.00, 75.9, 281.3)">o</text><text xml:space="preserve" font-family="Palatino-Roman,Palatino" font-size="30.0" fill="#000000" transform="matrix(1.00, 0.00, -0.00, -1.00, 92.3, 281.3)">o</text><text xml:space="preserve" font-family="Palatino-Roman,Palatino" font-size="30.0" fill="#000000" transform="matrix(1.00, 0.00, -0.00, -1.00, 108.6, 281.3)">k</text><text xml:space="preserve" font-family="Palatino-Roman,Palatino" font-size="30.0" fill="#000000" transform="matrix(1.00, 0.00, -0.00, -1.00, 125.3, 281.3)"> </text><text xml:space="preserve" font-family="Palatino-Roman,Palatino" font-size="30.0" fill="#000000" transform="matrix(1.00, 0.00, -0.00, -1.00, 132.8, 281.3)">a</text><text xml:space="preserve" font-family="Palatino-Roman,Palatino" font-size="30.0" fill="#000000" transform="matrix(1.00, 0.00, -0.00, -1.00, 147.8, 281.3)">t</text><text xml:space="preserve" font-family="Palatino-Roman,Palatino" font-size="30.0" fill="#000000" transform="matrix(1.00, 0.00, -0.00, -1.00, 157.6, 281.3)"> </text><text xml:space="preserve" font-family="Palatino-Roman,Palatino" font-size="30.0" fill="#000000" transform="matrix(1.00, 0.00, -0.00, -1.00, 165.1, 281.3)">c</text><text xml:space="preserve" font-family="Palatino-Roman,Palatino" font-size="30.0" fill="#000000" transform="matrix(1.00, 0.00, -0.00, -1.00, 178.4, 281.3)">r</text><text xml:space="preserve" font-family="Palatino-Roman,Palatino" font-size="30.0" fill="#000000" transform="matrix(1.00, 0.00, -0.00, -1.00, 190.3, 281.3)">i</text><text xml:space="preserve" font-family="Palatino-Roman,Palatino" font-size="30.0" fill="#000000" transform="matrix(1.00, 0.00, -0.00, -1.00, 199.0, 281.3)">m</text><text xml:space="preserve" font-family="Palatino-Roman,Palatino" font-size="30.0" fill="#000000" transform="matrix(1.00, 0.00, -0.00, -1.00, 225.5, 281.3)">e</text><text xml:space="preserve" font-family="Palatino-Roman,Palatino" font-size="30.0" fill="#000000" transform="matrix(1.00, 0.00, -0.00, -1.00, 239.9, 281.3)"> </text><text xml:space="preserve" font-family="Palatino-Roman,Palatino" font-size="30.0" fill="#000000" transform="matrix(1.00, 0.00, -0.00, -1.00, 247.4, 281.3)">r</text><text xml:space="preserve" font-family="Palatino-Roman,Palatino" font-size="30.0" fill="#000000" transform="matrix(1.00, 0.00, -0.00, -1.00, 259.2, 281.3)">a</text><text xml:space="preserve" font-family="Palatino-Roman,Palatino" font-size="30.0" fill="#000000" transform="matrix(1.00, 0.00, -0.00, -1.00, 274.2, 281.3)">t</text><text xml:space="preserve" font-family="Palatino-Roman,Palatino" font-size="30.0" fill="#000000" transform="matrix(1.00, 0.00, -0.00, -1.00, 284.0, 281.3)">e</text><text xml:space="preserve" font-family="Palatino-Roman,Palatino" font-size="30.0" fill="#000000" transform="matrix(1.00, 0.00, -0.00, -1.00, 298.4, 281.3)">s</text><text xml:space="preserve" font-family="Palatino-Roman,Palatino" font-size="30.0" fill="#000000" transform="matrix(1.00, 0.00, -0.00, -1.00, 311.1, 281.3)"> </text><text xml:space="preserve" font-family="Palatino-Roman,Palatino" font-size="30.0" fill="#000000" transform="matrix(1.00, 0.00, -0.00, -1.00, 318.6, 281.3)">a</text><text xml:space="preserve" font-family="Palatino-Roman,Palatino" font-size="30.0" fill="#000000" transform="matrix(1.00, 0.00, -0.00, -1.00, 333.6, 281.3)">s</text><text xml:space="preserve" font-family="Palatino-Roman,Palatino" font-size="30.0" fill="#000000" transform="matrix(1.00, 0.00, -0.00, -1.00, 346.3, 281.3)"> </text><text xml:space="preserve" font-family="Palatino-Roman,Palatino" font-size="30.0" fill="#000000" transform="matrix(1.00, 0.00, -0.00, -1.00, 353.8, 281.3)">a</text><text xml:space="preserve" font-family="Palatino-Roman,Palatino" font-size="30.0" fill="#000000" transform="matrix(1.00, 0.00, -0.00, -1.00, 368.8, 281.3)"> </text><text xml:space="preserve" font-family="Palatino-Roman,Palatino" font-size="30.0" fill="#000000" transform="matrix(1.00, 0.00, -0.00, -1.00, 376.3, 281.3)">p</text><text xml:space="preserve" font-family="Palatino-Roman,Palatino" font-size="30.0" fill="#000000" transform="matrix(1.00, 0.00, -0.00, -1.00, 394.3, 281.3)">r</text><text xml:space="preserve" font-family="Palatino-Roman,Palatino" font-size="30.0" fill="#000000" transform="matrix(1.00, 0.00, -0.00, -1.00, 405.7, 281.3)">e</text><text xml:space="preserve" font-family="Palatino-Roman,Palatino" font-size="30.0" fill="#000000" transform="matrix(1.00, 0.00, -0.00, -1.00, 420.0, 281.3)">d</text><text xml:space="preserve" font-family="Palatino-Roman,Palatino" font-size="30.0" fill="#000000" transform="matrix(1.00, 0.00, -0.00, -1.00, 438.3, 281.3)">i</text><text xml:space="preserve" font-family="Palatino-Roman,Palatino" font-size="30.0" fill="#000000" transform="matrix(1.00, 0.00, -0.00, -1.00, 447.1, 281.3)">c</text><text xml:space="preserve" font-family="Palatino-Roman,Palatino" font-size="30.0" fill="#000000" transform="matrix(1.00, 0.00, -0.00, -1.00, 460.4, 281.3)">t</text><text xml:space="preserve" font-family="Palatino-Roman,Palatino" font-size="30.0" fill="#000000" transform="matrix(1.00, 0.00, -0.00, -1.00, 470.2, 281.3)">o</text><text xml:space="preserve" font-family="Palatino-Roman,Palatino" font-size="30.0" fill="#000000" transform="matrix(1.00, 0.00, -0.00, -1.00, 486.5, 281.3)">r</text><text xml:space="preserve" font-family="Palatino-Roman,Palatino" font-size="30.0" fill="#000000" transform="matrix(1.00, 0.00, -0.00, -1.00, 498.4, 281.3)"> </text><text xml:space="preserve" font-family="Palatino-Roman,Palatino" font-size="30.0" fill="#000000" transform="matrix(1.00, 0.00, -0.00, -1.00, 113.3, 241.3)">o</text><text xml:space="preserve" font-family="Palatino-Roman,Palatino" font-size="30.0" fill="#000000" transform="matrix(1.00, 0.00, -0.00, -1.00, 129.7, 241.3)">f</text><text xml:space="preserve" font-family="Palatino-Roman,Palatino" font-size="30.0" fill="#000000" transform="matrix(1.00, 0.00, -0.00, -1.00, 139.7, 241.3)"> </text><text xml:space="preserve" font-family="Palatino-Roman,Palatino" font-size="30.0" fill="#000000" transform="matrix(1.00, 0.00, -0.00, -1.00, 147.2, 241.3)">h</text><text xml:space="preserve" font-family="Palatino-Roman,Palatino" font-size="30.0" fill="#000000" transform="matrix(1.00, 0.00, -0.00, -1.00, 164.6, 241.3)">o</text><text xml:space="preserve" font-family="Palatino-Roman,Palatino" font-size="30.0" fill="#000000" transform="matrix(1.00, 0.00, -0.00, -1.00, 181.0, 241.3)">m</text><text xml:space="preserve" font-family="Palatino-Roman,Palatino" font-size="30.0" fill="#000000" transform="matrix(1.00, 0.00, -0.00, -1.00, 207.5, 241.3)">e</text><text xml:space="preserve" font-family="Palatino-Roman,Palatino" font-size="30.0" fill="#000000" transform="matrix(1.00, 0.00, -0.00, -1.00, 221.9, 241.3)">-</text><text xml:space="preserve" font-family="Palatino-Roman,Palatino" font-size="30.0" fill="#000000" transform="matrix(1.00, 0.00, -0.00, -1.00, 231.9, 241.3)">p</text><text xml:space="preserve" font-family="Palatino-Roman,Palatino" font-size="30.0" fill="#000000" transform="matrix(1.00, 0.00, -0.00, -1.00, 249.9, 241.3)">r</text><text xml:space="preserve" font-family="Palatino-Roman,Palatino" font-size="30.0" fill="#000000" transform="matrix(1.00, 0.00, -0.00, -1.00, 261.7, 241.3)">i</text><text xml:space="preserve" font-family="Palatino-Roman,Palatino" font-size="30.0" fill="#000000" transform="matrix(1.00, 0.00, -0.00, -1.00, 270.5, 241.3)">c</text><text xml:space="preserve" font-family="Palatino-Roman,Palatino" font-size="30.0" fill="#000000" transform="matrix(1.00, 0.00, -0.00, -1.00, 283.8, 241.3)">e</text><text xml:space="preserve" font-family="Palatino-Roman,Palatino" font-size="30.0" fill="#000000" transform="matrix(1.00, 0.00, -0.00, -1.00, 298.2, 241.3)"> </text><text xml:space="preserve" font-family="Palatino-Roman,Palatino" font-size="30.0" fill="#000000" transform="matrix(1.00, 0.00, -0.00, -1.00, 305.7, 241.3)">c</text><text xml:space="preserve" font-family="Palatino-Roman,Palatino" font-size="30.0" fill="#000000" transform="matrix(1.00, 0.00, -0.00, -1.00, 319.0, 241.3)">h</text><text xml:space="preserve" font-family="Palatino-Roman,Palatino" font-size="30.0" fill="#000000" transform="matrix(1.00, 0.00, -0.00, -1.00, 336.4, 241.3)">a</text><text xml:space="preserve" font-family="Palatino-Roman,Palatino" font-size="30.0" fill="#000000" transform="matrix(1.00, 0.00, -0.00, -1.00, 351.4, 241.3)">n</text><text xml:space="preserve" font-family="Palatino-Roman,Palatino" font-size="30.0" fill="#000000" transform="matrix(1.00, 0.00, -0.00, -1.00, 368.9, 241.3)">g</text><text xml:space="preserve" font-family="Palatino-Roman,Palatino" font-size="30.0" fill="#000000" transform="matrix(1.00, 0.00, -0.00, -1.00, 385.6, 241.3)">e</text><text xml:space="preserve" font-family="Palatino-Roman,Palatino" font-size="30.0" fill="#000000" transform="matrix(1.00, 0.00, -0.00, -1.00, 399.9, 241.3)">s</text><text xml:space="preserve" font-family="Palatino-Roman,Palatino" font-size="30.0" fill="#000000" transform="matrix(1.00, 0.00, -0.00, -1.00, 412.7, 241.3)">…</text></g></svg>