<?xml version="1.0" encoding="UTF-8" standalone="no"?><svg xmlns="http://www.w3.org/2000/svg" xmlns:xlink="http://www.w3.org/1999/xlink" clip-rule="evenodd" stroke-miterlimit="10" viewBox="0 0 945 51"><desc>SVG generated by Keynote</desc><defs></defs><g transform="matrix(1.00, 0.00, -0.00, -1.00, 0.0, 51.0)"><text xml:space="preserve" font-family="Didot,Didot" font-size="63.4" fill="#304863" transform="matrix(1.00, 0.00, -0.00, -1.00, -6.0, 3.5)">…</text><text xml:space="preserve" font-family="Didot,Didot" font-size="63.4" fill="#304863" transform="matrix(1.00, 0.00, -0.00, -1.00, 56.1, 3.5)">w</text><text xml:space="preserve" font-family="Didot,Didot" font-size="63.4" fill="#304863" transform="matrix(1.00, 0.00, -0.00, -1.00, 101.8, 3.5)">h</text><text xml:space="preserve" font-family="Didot,Didot" font-size="63.4" fill="#304863" transform="matrix(1.00, 0.00, -0.00, -1.00, 139.2, 3.5)">a</text><text xml:space="preserve" font-family="Didot,Didot" font-size="63.4" fill="#304863" transform="matrix(1.00, 0.00, -0.00, -1.00, 168.4, 3.5)">t</text><text xml:space="preserve" font-family="Didot,Didot" font-size="63.4" fill="#304863" transform="matrix(1.00, 0.00, -0.00, -1.00, 188.3, 3.5)"> </text><text xml:space="preserve" font-family="Didot,Didot" font-size="63.4" fill="#304863" transform="matrix(1.00, 0.00, -0.00, -1.00, 204.6, 3.5)">k</text><text xml:space="preserve" font-family="Didot,Didot" font-size="63.4" fill="#304863" transform="matrix(1.00, 0.00, -0.00, -1.00, 237.4, 3.5)">i</text><text xml:space="preserve" font-family="Didot,Didot" font-size="63.4" fill="#304863" transform="matrix(1.00, 0.00, -0.00, -1.00, 254.9, 3.5)">n</text><text xml:space="preserve" font-family="Didot,Didot" font-size="63.4" fill="#304863" transform="matrix(1.00, 0.00, -0.00, -1.00, 292.3, 3.5)">d</text><text xml:space="preserve" font-family="Didot,Didot" font-size="63.4" fill="#304863" transform="matrix(1.00, 0.00, -0.00, -1.00, 328.6, 3.5)">s</text><text xml:space="preserve" font-family="Didot,Didot" font-size="63.4" fill="#304863" transform="matrix(1.00, 0.00, -0.00, -1.00, 354.3, 3.5)"> </text><text xml:space="preserve" font-family="Didot,Didot" font-size="63.4" fill="#304863" transform="matrix(1.00, 0.00, -0.00, -1.00, 370.7, 3.5)">o</text><text xml:space="preserve" font-family="Didot,Didot" font-size="63.4" fill="#304863" transform="matrix(1.00, 0.00, -0.00, -1.00, 404.6, 3.5)">f</text><text xml:space="preserve" font-family="Didot,Didot" font-size="63.4" fill="#304863" transform="matrix(1.00, 0.00, -0.00, -1.00, 424.5, 3.5)"> </text><text xml:space="preserve" font-family="Didot,Didot" font-size="63.4" fill="#304863" transform="matrix(1.00, 0.00, -0.00, -1.00, 440.8, 3.5)">t</text><text xml:space="preserve" font-family="Didot,Didot" font-size="63.4" fill="#304863" transform="matrix(1.00, 0.00, -0.00, -1.00, 460.6, 3.5)">r</text><text xml:space="preserve" font-family="Didot,Didot" font-size="63.4" fill="#304863" transform="matrix(1.00, 0.00, -0.00, -1.00, 485.2, 3.5)">e</text><text xml:space="preserve" font-family="Didot,Didot" font-size="63.4" fill="#304863" transform="matrix(1.00, 0.00, -0.00, -1.00, 515.6, 3.5)">n</text><text xml:space="preserve" font-family="Didot,Didot" font-size="63.4" fill="#304863" transform="matrix(1.00, 0.00, -0.00, -1.00, 553.0, 3.5)">d</text><text xml:space="preserve" font-family="Didot,Didot" font-size="63.4" fill="#304863" transform="matrix(1.00, 0.00, -0.00, -1.00, 589.3, 3.5)">s</text><text xml:space="preserve" font-family="Didot,Didot" font-size="63.4" fill="#304863" transform="matrix(1.00, 0.00, -0.00, -1.00, 615.1, 3.5)"> </text><text xml:space="preserve" font-family="Didot,Didot" font-size="63.4" fill="#304863" transform="matrix(1.00, 0.00, -0.00, -1.00, 631.4, 3.5)">d</text><text xml:space="preserve" font-family="Didot,Didot" font-size="63.4" fill="#304863" transform="matrix(1.00, 0.00, -0.00, -1.00, 667.7, 3.5)">o</text><text xml:space="preserve" font-family="Didot,Didot" font-size="63.4" fill="#304863" transform="matrix(1.00, 0.00, -0.00, -1.00, 701.7, 3.5)"> </text><text xml:space="preserve" font-family="Didot,Didot" font-size="63.4" fill="#304863" transform="matrix(1.00, 0.00, -0.00, -1.00, 718.0, 3.5)">w</text><text xml:space="preserve" font-family="Didot,Didot" font-size="63.4" fill="#304863" transform="matrix(1.00, 0.00, -0.00, -1.00, 763.1, 3.5)">e</text><text xml:space="preserve" font-family="Didot,Didot" font-size="63.4" fill="#304863" transform="matrix(1.00, 0.00, -0.00, -1.00, 793.5, 3.5)"> </text><text xml:space="preserve" font-family="Didot,Didot" font-size="63.4" fill="#304863" transform="matrix(1.00, 0.00, -0.00, -1.00, 809.8, 3.5)">f</text><text xml:space="preserve" font-family="Didot,Didot" font-size="63.4" fill="#304863" transform="matrix(1.00, 0.00, -0.00, -1.00, 830.3, 3.5)">i</text><text xml:space="preserve" font-family="Didot,Didot" font-size="63.4" fill="#304863" transform="matrix(1.00, 0.00, -0.00, -1.00, 847.8, 3.5)">n</text><text xml:space="preserve" font-family="Didot,Didot" font-size="63.4" fill="#304863" transform="matrix(1.00, 0.00, -0.00, -1.00, 885.2, 3.5)">d</text><text xml:space="preserve" font-family="Didot,Didot" font-size="63.4" fill="#304863" transform="matrix(1.00, 0.00, -0.00, -1.00, 921.5, 3.5)">?</text></g></svg>