<?xml version="1.0" encoding="UTF-8" standalone="no"?><svg xmlns="http://www.w3.org/2000/svg" xmlns:xlink="http://www.w3.org/1999/xlink" clip-rule="evenodd" stroke-miterlimit="10" viewBox="0 0 1024 768"><desc>SVG generated by Keynote</desc><defs></defs><g transform="matrix(1.00, 0.00, -0.00, -1.00, 0.0, 768.0)"><g><clipPath id="clip0x7fcb2be9f740"><path d="M 0.0 768.0 L 1024.0 768.0 L 1024.0 0.0 L 0.0 0.0 Z M 0.0 768.0 "></path></clipPath><g clip-path="url(#clip0x7fcb2be9f740)"><image xlink:href="../../CABF5236-1324-4602-9291-A4670FFDE0C7/assets/1783979FC7716684DCC3F94F50982FFC.jpeg" width="2048.00" height="1536.00" transform="matrix(0.50, 0.00, -0.00, -0.50, 0.0, 768.0)"></image></g></g><path d="M 0.0 0.5 L 960.0 0.5 L 960.0 0.5 L 0.0 0.5 Z M 0.0 0.0 " fill="none" stroke="#7995B9" stroke-width="1.00" transform="matrix(1.00, 0.00, 0.00, -1.00, 32.0, 566.0)"></path><path d="M 0.0 0.5 L 960.0 0.5 L 960.0 0.5 L 0.0 0.5 Z M 0.0 0.0 " fill="none" stroke="#7995B9" stroke-width="1.00" transform="matrix(1.00, 0.00, 0.00, -1.00, 32.0, 562.0)"></path><text xml:space="preserve" font-family="Didot,Didot" font-size="64.0" fill="#304863" transform="matrix(1.00, 0.00, -0.00, -1.00, 574.3, 632.2)">Z</text><text xml:space="preserve" font-family="Didot,Didot" font-size="64.0" fill="#304863" transform="matrix(1.00, 0.00, -0.00, -1.00, 614.5, 632.2)">a</text><text xml:space="preserve" font-family="Didot,Didot" font-size="64.0" fill="#304863" transform="matrix(1.00, 0.00, -0.00, -1.00, 644.0, 632.2)">c</text><text xml:space="preserve" font-family="Didot,Didot" font-size="64.0" fill="#304863" transform="matrix(1.00, 0.00, -0.00, -1.00, 672.9, 632.2)">k</text><text xml:space="preserve" font-family="Didot,Didot" font-size="64.0" fill="#304863" transform="matrix(1.00, 0.00, -0.00, -1.00, 705.9, 632.2)"> </text><text xml:space="preserve" font-family="Didot,Didot" font-size="64.0" fill="#304863" transform="matrix(1.00, 0.00, -0.00, -1.00, 722.5, 632.2)">C</text><text xml:space="preserve" font-family="Didot,Didot" font-size="64.0" fill="#304863" transform="matrix(1.00, 0.00, -0.00, -1.00, 767.4, 632.2)">h</text><text xml:space="preserve" font-family="Didot,Didot" font-size="64.0" fill="#304863" transform="matrix(1.00, 0.00, -0.00, -1.00, 805.2, 632.2)">a</text><text xml:space="preserve" font-family="Didot,Didot" font-size="64.0" fill="#304863" transform="matrix(1.00, 0.00, -0.00, -1.00, 834.7, 632.2)">d</text><text xml:space="preserve" font-family="Didot,Didot" font-size="64.0" fill="#304863" transform="matrix(1.00, 0.00, -0.00, -1.00, 871.4, 632.2)">i</text><text xml:space="preserve" font-family="Didot,Didot" font-size="64.0" fill="#304863" transform="matrix(1.00, 0.00, -0.00, -1.00, 889.0, 632.2)">c</text><text xml:space="preserve" font-family="Didot,Didot" font-size="64.0" fill="#304863" transform="matrix(1.00, 0.00, -0.00, -1.00, 917.9, 632.2)">k</text><g><clipPath id="clip0x7fcb2bdccb60"><path d="M 711.1 395.0 L 999.2 395.0 L 999.2 533.0 L 711.1 533.0 Z M 711.1 395.0 "></path></clipPath><g clip-path="url(#clip0x7fcb2bdccb60)"><path d="M 878.9 495.4 L 878.9 505.3 L 839.0 505.3 L 839.0 471.0 C 837.4 478.3 831.2 480.9 824.5 482.5 L 810.7 485.9 C 808.3 486.5 804.6 487.4 804.6 491.9 C 804.6 497.0 810.0 498.7 814.5 498.7 C 824.9 498.7 825.9 492.7 826.2 490.1 L 837.6 490.1 C 837.5 497.1 832.9 508.5 815.4 508.5 C 797.2 508.5 793.6 497.6 793.5 491.2 C 791.8 485.3 787.5 482.1 781.5 482.1 C 771.5 482.1 767.6 491.2 767.6 501.2 C 767.6 517.1 775.8 520.8 781.5 520.8 C 791.1 520.8 792.9 514.5 793.9 511.1 L 805.6 511.1 C 805.0 519.4 798.2 531.0 781.4 531.0 C 769.5 531.0 759.8 524.2 756.7 511.0 L 756.7 529.8 L 744.6 529.8 L 744.6 492.6 C 744.6 485.7 741.3 481.8 733.2 481.8 C 727.7 481.8 723.1 485.3 723.1 493.1 L 723.1 529.8 L 711.1 529.8 L 711.1 492.4 C 711.3 486.7 712.4 482.1 715.5 478.7 C 720.5 473.1 728.3 471.8 733.4 471.8 C 747.3 471.8 756.1 477.8 756.6 491.8 C 759.6 478.7 769.0 472.0 781.2 472.0 C 789.1 472.0 794.8 474.6 798.6 479.1 C 802.0 476.5 806.8 475.4 811.6 474.3 L 817.7 472.8 C 823.7 471.4 828.0 470.2 828.0 465.8 C 828.0 459.7 821.8 458.4 816.1 458.4 C 805.7 458.4 804.2 464.4 804.1 467.6 L 792.7 467.6 C 792.7 460.5 796.2 448.6 817.0 448.6 C 821.5 448.6 836.4 449.8 839.0 463.0 L 839.0 448.6 L 850.7 448.6 L 850.7 472.8 L 875.4 472.8 L 875.4 482.7 L 850.7 482.7 L 850.7 495.4 L 878.9 495.4 " fill="#000000"></path><path d="M 805.7 427.3 C 805.7 423.6 803.6 421.7 799.9 421.7 C 796.1 421.7 793.9 423.4 793.9 427.3 L 793.9 436.7 L 795.8 436.7 L 795.8 427.3 C 795.8 424.7 797.3 423.3 799.9 423.3 C 802.4 423.3 803.7 424.7 803.7 427.3 L 803.7 436.7 L 805.7 436.7 L 805.7 427.3 " fill="#1A1918"></path><path d="M 808.5 432.7 L 810.2 432.7 L 810.2 431.0 L 810.2 431.0 C 810.9 432.3 812.1 432.9 813.7 432.9 C 816.5 432.9 817.3 431.3 817.3 429.0 L 817.3 422.0 L 815.6 422.0 L 815.6 429.2 C 815.6 430.5 814.7 431.4 813.4 431.4 C 811.3 431.4 810.3 429.9 810.3 428.0 L 810.3 422.0 L 808.5 422.0 L 808.5 432.7 " fill="#1A1918"></path><path d="M 820.1 432.7 L 821.8 432.7 L 821.8 422.0 L 820.1 422.0 Z M 820.1 436.7 L 821.8 436.7 L 821.8 434.6 L 820.1 434.6 Z M 820.1 436.7 " fill="#1A1918"></path><path d="M 829.3 422.0 L 827.4 422.0 L 823.5 432.7 L 825.4 432.7 L 828.4 423.8 L 828.5 423.8 L 831.4 432.7 L 833.2 432.7 L 829.3 422.0 " fill="#1A1918"></path><path d="M 842.2 428.4 C 842.1 430.0 840.9 431.4 839.1 431.4 C 837.3 431.4 836.2 430.0 836.1 428.4 L 842.2 428.4 Z M 843.9 425.4 C 843.4 423.0 841.7 421.8 839.3 421.8 C 835.9 421.8 834.3 424.1 834.2 427.4 C 834.2 430.6 836.3 432.9 839.2 432.9 C 843.0 432.9 844.2 429.4 844.0 426.8 L 836.1 426.8 C 836.0 425.0 837.1 423.3 839.4 423.3 C 840.8 423.3 841.8 424.0 842.2 425.4 L 843.9 425.4 " fill="#1A1918"></path><path d="M 845.8 432.7 L 847.4 432.7 L 847.4 430.4 L 847.5 430.4 C 848.3 432.1 849.5 433.0 851.4 432.9 L 851.4 431.1 C 848.6 431.1 847.5 429.4 847.5 426.8 L 847.5 422.0 L 845.8 422.0 L 845.8 432.7 " fill="#1A1918"></path><path d="M 853.8 425.4 C 853.8 423.8 855.2 423.3 856.6 423.3 C 857.7 423.3 859.2 423.6 859.2 424.9 C 859.2 426.3 857.5 426.5 855.7 426.9 C 854.0 427.3 852.3 427.8 852.3 429.9 C 852.3 432.0 854.4 432.9 856.2 432.9 C 858.6 432.9 860.4 432.2 860.6 429.6 L 858.8 429.6 C 858.7 430.9 857.5 431.4 856.4 431.4 C 855.3 431.4 854.1 431.1 854.1 430.0 C 854.1 428.8 856.0 428.5 857.6 428.2 C 859.3 427.8 861.1 427.2 861.1 425.1 C 861.1 422.6 858.7 421.8 856.5 421.8 C 854.1 421.8 852.1 422.7 852.0 425.4 L 853.8 425.4 " fill="#1A1918"></path><path d="M 863.1 432.7 L 864.8 432.7 L 864.8 422.0 L 863.1 422.0 Z M 863.1 436.7 L 864.8 436.7 L 864.8 434.6 L 863.1 434.6 Z M 863.1 436.7 " fill="#1A1918"></path><path d="M 870.0 432.7 L 872.1 432.7 L 872.1 431.1 L 870.0 431.1 L 870.0 424.5 C 870.0 423.7 870.2 423.6 871.3 423.6 L 872.1 423.6 L 872.1 422.0 L 870.8 422.0 C 869.0 422.0 868.2 422.4 868.2 424.3 L 868.2 431.1 L 866.4 431.1 L 866.4 432.7 L 868.2 432.7 L 868.2 435.8 L 870.0 435.8 L 870.0 432.7 " fill="#1A1918"></path><path d="M 878.2 420.6 C 877.4 418.5 876.7 417.8 875.1 417.8 C 874.7 417.8 874.3 417.8 873.9 417.9 L 873.9 419.6 C 874.3 419.4 874.6 419.3 875.0 419.3 C 875.7 419.3 876.1 419.7 876.4 420.3 L 877.1 422.1 L 872.9 432.7 L 874.9 432.7 L 878.0 424.0 L 878.0 424.0 L 881.0 432.7 L 882.8 432.7 L 878.2 420.6 " fill="#1A1918"></path><path d="M 893.5 423.3 C 895.3 423.3 896.8 424.8 896.8 427.3 C 896.8 429.9 895.3 431.4 893.5 431.4 C 891.7 431.4 890.2 429.9 890.2 427.3 C 890.2 424.8 891.7 423.3 893.5 423.3 Z M 893.5 432.9 C 896.9 432.9 898.7 430.5 898.7 427.3 C 898.7 424.2 896.9 421.8 893.5 421.8 C 890.1 421.8 888.3 424.2 888.3 427.3 C 888.3 430.5 890.1 432.9 893.5 432.9 " fill="#1A1918"></path><path d="M 901.4 431.1 L 899.6 431.1 L 899.6 432.7 L 901.4 432.7 L 901.4 434.2 C 901.4 436.0 902.5 436.9 904.4 436.9 C 904.7 436.9 905.2 436.8 905.5 436.7 L 905.5 435.2 C 905.2 435.3 904.8 435.3 904.5 435.3 C 903.7 435.3 903.2 435.1 903.2 434.1 L 903.2 432.7 L 905.2 432.7 L 905.2 431.1 L 903.2 431.1 L 903.2 422.0 L 901.4 422.0 L 901.4 431.1 " fill="#1A1918"></path><path d="M 922.0 432.3 C 921.6 434.4 919.9 435.4 917.9 435.4 C 914.4 435.4 912.9 432.5 912.9 429.5 C 912.9 426.1 914.4 423.3 917.9 423.3 C 920.5 423.3 922.0 425.1 922.1 427.6 L 924.1 427.6 C 923.7 423.9 921.4 421.7 917.7 421.7 C 913.2 421.7 910.9 425.0 910.9 429.3 C 910.9 433.6 913.4 437.1 917.9 437.1 C 921.0 437.1 923.5 435.4 924.0 432.3 L 922.0 432.3 " fill="#1A1918"></path><path d="M 932.8 427.5 C 932.1 427.0 930.8 427.0 929.6 426.8 C 928.5 426.6 927.5 426.2 927.5 424.9 C 927.5 423.7 928.5 423.3 929.6 423.3 C 931.9 423.3 932.8 424.8 932.8 425.7 L 932.8 427.5 Z M 935.7 422.1 C 935.4 421.9 935.0 421.8 934.4 421.8 C 933.5 421.8 932.9 422.3 932.9 423.4 C 932.0 422.3 930.7 421.8 929.2 421.8 C 927.2 421.8 925.7 422.6 925.7 424.8 C 925.7 427.2 927.4 427.7 929.3 428.0 C 931.2 428.4 932.8 428.3 932.8 429.6 C 932.8 431.1 931.6 431.4 930.5 431.4 C 929.0 431.4 927.9 430.9 927.8 429.3 L 926.1 429.3 C 926.2 432.0 928.2 432.9 930.6 432.9 C 932.5 432.9 934.6 432.5 934.6 430.0 L 934.6 424.5 C 934.6 423.7 934.6 423.3 935.1 423.3 C 935.3 423.3 935.4 423.3 935.7 423.4 L 935.7 422.1 " fill="#1A1918"></path><path d="M 937.4 436.7 L 939.1 436.7 L 939.1 422.0 L 937.4 422.0 Z M 937.4 436.7 " fill="#1A1918"></path><path d="M 942.0 432.7 L 943.7 432.7 L 943.7 422.0 L 942.0 422.0 Z M 942.0 436.7 L 943.7 436.7 L 943.7 434.6 L 942.0 434.6 Z M 942.0 436.7 " fill="#1A1918"></path><path d="M 947.1 431.1 L 945.4 431.1 L 945.4 432.7 L 947.1 432.7 L 947.1 434.2 C 947.1 436.0 948.2 436.9 950.1 436.9 C 950.4 436.9 950.9 436.8 951.2 436.7 L 951.2 435.2 C 950.9 435.3 950.5 435.3 950.2 435.3 C 949.4 435.3 948.9 435.1 948.9 434.1 L 948.9 432.7 L 950.9 432.7 L 950.9 431.1 L 948.9 431.1 L 948.9 422.0 L 947.1 422.0 L 947.1 431.1 " fill="#1A1918"></path><path d="M 957.1 423.3 C 958.9 423.3 960.4 424.8 960.4 427.3 C 960.4 429.9 958.9 431.4 957.1 431.4 C 955.3 431.4 953.8 429.9 953.8 427.3 C 953.8 424.8 955.3 423.3 957.1 423.3 Z M 957.1 432.9 C 960.5 432.9 962.3 430.5 962.3 427.3 C 962.3 424.2 960.5 421.8 957.1 421.8 C 953.7 421.8 951.9 424.2 951.9 427.3 C 951.9 430.5 953.7 432.9 957.1 432.9 " fill="#1A1918"></path><path d="M 964.3 432.7 L 965.9 432.7 L 965.9 430.4 L 965.9 430.4 C 966.8 432.1 968.0 433.0 969.9 432.9 L 969.9 431.1 C 967.0 431.1 966.0 429.4 966.0 426.8 L 966.0 422.0 L 964.3 422.0 L 964.3 432.7 " fill="#1A1918"></path><path d="M 971.5 432.7 L 973.2 432.7 L 973.2 431.0 L 973.2 431.0 C 974.0 432.3 975.2 432.9 976.7 432.9 C 979.5 432.9 980.3 431.3 980.3 429.0 L 980.3 422.0 L 978.6 422.0 L 978.6 429.2 C 978.6 430.5 977.8 431.4 976.4 431.4 C 974.3 431.4 973.3 429.9 973.3 428.0 L 973.3 422.0 L 971.5 422.0 L 971.5 432.7 " fill="#1A1918"></path><path d="M 983.1 432.7 L 984.8 432.7 L 984.8 422.0 L 983.1 422.0 Z M 983.1 436.7 L 984.8 436.7 L 984.8 434.6 L 983.1 434.6 Z M 983.1 436.7 " fill="#1A1918"></path><path d="M 994.1 427.5 C 993.5 427.0 992.1 427.0 991.0 426.8 C 989.8 426.6 988.8 426.2 988.8 424.9 C 988.8 423.7 989.8 423.3 990.9 423.3 C 993.2 423.3 994.1 424.8 994.1 425.7 L 994.1 427.5 Z M 997.0 422.1 C 996.7 421.9 996.3 421.8 995.7 421.8 C 994.8 421.8 994.2 422.3 994.2 423.4 C 993.3 422.3 992.0 421.8 990.5 421.8 C 988.6 421.8 987.0 422.6 987.0 424.8 C 987.0 427.2 988.8 427.7 990.6 428.0 C 992.5 428.4 994.2 428.3 994.2 429.6 C 994.2 431.1 992.9 431.4 991.8 431.4 C 990.3 431.4 989.2 430.9 989.1 429.3 L 987.4 429.3 C 987.5 432.0 989.5 432.9 991.9 432.9 C 993.8 432.9 995.9 432.5 995.9 430.0 L 995.9 424.5 C 995.9 423.7 995.9 423.3 996.4 423.3 C 996.6 423.3 996.7 423.3 997.0 423.4 L 997.0 422.1 " fill="#1A1918"></path><path d="M 802.4 405.8 C 802.2 407.9 800.8 408.8 798.8 408.8 C 797.2 408.8 795.5 408.2 795.5 406.3 C 795.5 404.5 797.9 404.2 800.2 403.7 C 802.6 403.1 804.9 402.3 804.9 399.4 C 804.9 396.3 801.8 395.0 799.2 395.0 C 795.9 395.0 793.1 396.6 793.1 400.2 L 795.0 400.2 C 795.0 397.7 797.0 396.7 799.2 396.7 C 801.0 396.7 803.0 397.2 803.0 399.4 C 803.0 401.4 800.6 401.7 798.3 402.2 C 795.9 402.7 793.6 403.4 793.6 406.1 C 793.6 409.1 796.2 410.4 798.9 410.4 C 801.9 410.4 804.2 409.0 804.3 405.8 L 802.4 405.8 " fill="#1A1918"></path><path d="M 813.6 400.9 C 812.9 400.4 811.6 400.4 810.4 400.2 C 809.3 399.9 808.3 399.5 808.3 398.2 C 808.3 397.1 809.3 396.7 810.3 396.7 C 812.6 396.7 813.6 398.1 813.6 399.1 L 813.6 400.9 Z M 816.4 395.4 C 816.1 395.2 815.7 395.1 815.2 395.1 C 814.3 395.1 813.7 395.6 813.7 396.8 C 812.7 395.6 811.4 395.1 809.9 395.1 C 808.0 395.1 806.4 396.0 806.4 398.1 C 806.4 400.5 808.2 401.0 810.0 401.4 C 812.0 401.8 813.6 401.6 813.6 403.0 C 813.6 404.5 812.3 404.7 811.2 404.7 C 809.8 404.7 808.7 404.3 808.6 402.7 L 806.8 402.7 C 806.9 405.3 809.0 406.3 811.3 406.3 C 813.2 406.3 815.3 405.8 815.3 403.3 L 815.3 397.9 C 815.3 397.0 815.3 396.7 815.9 396.7 C 816.0 396.7 816.2 396.7 816.4 396.8 L 816.4 395.4 " fill="#1A1918"></path><path d="M 818.0 406.0 L 819.7 406.0 L 819.7 404.3 L 819.7 404.3 C 820.5 405.6 821.7 406.3 823.2 406.3 C 826.0 406.3 826.8 404.7 826.8 402.4 L 826.8 395.4 L 825.1 395.4 L 825.1 402.6 C 825.1 403.9 824.3 404.7 822.9 404.7 C 820.8 404.7 819.8 403.3 819.8 401.4 L 819.8 395.4 L 818.0 395.4 L 818.0 406.0 " fill="#1A1918"></path><path d="M 834.3 410.1 L 844.0 410.1 L 844.0 408.4 L 836.3 408.4 L 836.3 403.8 L 843.0 403.8 L 843.0 402.1 L 836.3 402.1 L 836.3 395.4 L 834.3 395.4 L 834.3 410.1 " fill="#1A1918"></path><path d="M 845.8 406.0 L 847.4 406.0 L 847.4 403.8 L 847.5 403.8 C 848.3 405.5 849.5 406.3 851.4 406.3 L 851.4 404.4 C 848.6 404.4 847.6 402.8 847.6 400.1 L 847.6 395.4 L 845.8 395.4 L 845.8 406.0 " fill="#1A1918"></path><path d="M 859.3 400.9 C 858.6 400.4 857.3 400.4 856.1 400.2 C 855.0 399.9 854.0 399.5 854.0 398.2 C 854.0 397.1 855.0 396.7 856.1 396.7 C 858.4 396.7 859.3 398.1 859.3 399.1 L 859.3 400.9 Z M 862.1 395.4 C 861.8 395.2 861.4 395.1 860.9 395.1 C 860.0 395.1 859.4 395.6 859.4 396.8 C 858.4 395.6 857.1 395.1 855.7 395.1 C 853.7 395.1 852.1 396.0 852.1 398.1 C 852.1 400.5 853.9 401.0 855.7 401.4 C 857.7 401.8 859.3 401.6 859.3 403.0 C 859.3 404.5 858.1 404.7 857.0 404.7 C 855.5 404.7 854.4 404.3 854.3 402.7 L 852.6 402.7 C 852.7 405.3 854.7 406.3 857.1 406.3 C 859.0 406.3 861.0 405.8 861.0 403.3 L 861.0 397.9 C 861.0 397.0 861.0 396.7 861.6 396.7 C 861.7 396.7 861.9 396.7 862.1 396.8 L 862.1 395.4 " fill="#1A1918"></path><path d="M 863.8 406.0 L 865.4 406.0 L 865.4 404.3 L 865.5 404.3 C 866.2 405.6 867.4 406.3 868.9 406.3 C 871.7 406.3 872.6 404.7 872.6 402.4 L 872.6 395.4 L 870.8 395.4 L 870.8 402.6 C 870.8 403.9 870.0 404.7 868.7 404.7 C 866.5 404.7 865.5 403.3 865.5 401.4 L 865.5 395.4 L 863.8 395.4 L 863.8 406.0 " fill="#1A1918"></path><path d="M 882.4 402.6 C 882.2 403.9 881.2 404.7 879.8 404.7 C 877.3 404.7 876.5 402.7 876.5 400.6 C 876.5 398.6 877.4 396.7 879.6 396.7 C 881.3 396.7 882.3 397.7 882.5 399.3 L 884.3 399.3 C 883.9 396.7 882.3 395.1 879.6 395.1 C 876.4 395.1 874.6 397.4 874.6 400.6 C 874.6 403.8 876.3 406.3 879.6 406.3 C 882.1 406.3 884.0 405.1 884.2 402.6 L 882.4 402.6 " fill="#1A1918"></path><path d="M 886.4 406.0 L 888.1 406.0 L 888.1 395.4 L 886.4 395.4 Z M 886.4 410.1 L 888.1 410.1 L 888.1 407.9 L 886.4 407.9 Z M 886.4 410.1 " fill="#1A1918"></path><path d="M 891.9 398.7 C 892.0 397.2 893.3 396.7 894.7 396.7 C 895.8 396.7 897.3 396.9 897.3 398.3 C 897.3 399.6 895.6 399.8 893.8 400.2 C 892.1 400.6 890.4 401.2 890.4 403.2 C 890.4 405.4 892.5 406.3 894.3 406.3 C 896.7 406.3 898.6 405.5 898.7 402.9 L 897.0 402.9 C 896.8 404.3 895.6 404.7 894.5 404.7 C 893.4 404.7 892.2 404.4 892.2 403.4 C 892.2 402.1 894.1 401.9 895.7 401.5 C 897.4 401.1 899.2 400.5 899.2 398.5 C 899.2 396.0 896.8 395.1 894.6 395.1 C 892.3 395.1 890.2 396.1 890.1 398.7 L 891.9 398.7 " fill="#1A1918"></path><path d="M 908.3 402.6 C 908.1 403.9 907.1 404.7 905.7 404.7 C 903.2 404.7 902.4 402.7 902.4 400.6 C 902.4 398.6 903.3 396.7 905.5 396.7 C 907.2 396.7 908.2 397.7 908.4 399.3 L 910.2 399.3 C 909.8 396.7 908.2 395.1 905.5 395.1 C 902.3 395.1 900.5 397.4 900.5 400.6 C 900.5 403.8 902.2 406.3 905.6 406.3 C 908.0 406.3 909.9 405.1 910.1 402.6 L 908.3 402.6 " fill="#1A1918"></path><path d="M 916.7 396.7 C 918.6 396.7 920.1 398.1 920.1 400.7 C 920.1 403.3 918.6 404.7 916.7 404.7 C 914.9 404.7 913.4 403.3 913.4 400.7 C 913.4 398.1 914.9 396.7 916.7 396.7 Z M 916.7 406.3 C 920.1 406.3 921.9 403.8 921.9 400.7 C 921.9 397.6 920.1 395.1 916.7 395.1 C 913.4 395.1 911.6 397.6 911.6 400.7 C 911.6 403.8 913.4 406.3 916.7 406.3 " fill="#1A1918"></path></g></g><image xlink:href="../../9B733369-6000-495F-8D56-C7131C173B00/assets/DD2A19A578BE80BDE275849631DE297A.png" width="2078.00" height="2079.00" transform="matrix(0.14, 0.00, -0.00, -0.14, 718.1, 301.5)"></image><g><clipPath id="clip0x7fcb2bcd3350"><path d="M 341.0 512.0 L 768.0 512.0 L 768.0 327.0 L 341.0 327.0 Z M 341.4 511.5 "></path></clipPath><g clip-path="url(#clip0x7fcb2bcd3350)"><g><clipPath id="clip0x7fcb2bcd2560"><path d="M 341.4 326.8 L 768.1 326.8 L 768.1 511.5 L 341.4 511.5 Z M 341.4 326.8 "></path></clipPath><g clip-path="url(#clip0x7fcb2bcd2560)"><image xlink:href="../../9B733369-6000-495F-8D56-C7131C173B00/assets/5B27930CE78D4F3636F8BE93F2DCF633.png" width="1405.00" height="312.00" transform="matrix(0.59, 0.00, -0.00, -0.59, -63.4, 511.5)"></image></g></g></g></g><g><clipPath id="clip0x7fcb2bea0d90"><path d="M 331.0 394.0 L 735.0 394.0 L 735.0 209.0 L 331.0 209.0 Z M 330.9 394.0 "></path></clipPath><g clip-path="url(#clip0x7fcb2bea0d90)"><g><clipPath id="clip0x7fcb2bea14f0"><path d="M 330.9 209.4 L 734.9 209.4 L 734.9 394.0 L 330.9 394.0 Z M 330.9 209.4 "></path></clipPath><g clip-path="url(#clip0x7fcb2bea14f0)"><image xlink:href="../../9B733369-6000-495F-8D56-C7131C173B00/assets/5B27930CE78D4F3636F8BE93F2DCF633.png" width="1405.00" height="312.00" transform="matrix(0.59, 0.00, -0.00, -0.59, 330.9, 394.0)"></image></g></g></g></g><image xlink:href="../../9B733369-6000-495F-8D56-C7131C173B00/assets/D4F0CCA0EF72AD0380D934CA04F949E4.png" width="386.00" height="426.00" transform="matrix(1.00, 0.00, -0.00, -1.00, 31.4, 765.6)" opacity="0.70"></image><g><clipPath id="clip0x7fcb2bea24c0"><path d="M 51.0 756.0 L 397.0 756.0 L 397.0 369.0 L 51.0 369.0 Z M 51.4 755.6 "></path></clipPath><g clip-path="url(#clip0x7fcb2bea24c0)"><image xlink:href="../../9B733369-6000-495F-8D56-C7131C173B00/assets/6F611A028285E4004848B9637655623C.jpeg" width="2448.00" height="3264.00" transform="matrix(0.15, 0.00, -0.00, -0.15, 33.1, 805.4)"></image></g></g><image xlink:href="../../9B733369-6000-495F-8D56-C7131C173B00/assets/B736731E48155FEF6C62FE42A76A5019.png" width="494.00" height="417.00" transform="matrix(1.00, 0.00, -0.00, -1.00, 17.2, 352.0)" opacity="0.70"></image><g><clipPath id="clip0x7fcb2bddf2c0"><path d="M 37.0 342.0 L 491.0 342.0 L 491.0 -35.0 L 37.0 -35.0 Z M 37.2 342.0 "></path></clipPath><g clip-path="url(#clip0x7fcb2bddf2c0)"><image xlink:href="../../9B733369-6000-495F-8D56-C7131C173B00/assets/987AF40E0C5E12D4E4E45E5876D8C02E.jpeg" width="3264.00" height="2448.00" transform="matrix(0.16, 0.00, -0.00, -0.16, 11.8, 360.0)"></image></g></g></g></svg>